<svg version="1.1" xmlns="http://www.w3.org/2000/svg" xmlns:xlink="http://www.w3.org/1999/xlink" width="1012" height="644"><defs/><g><g><path fill="none" stroke="#000000" paint-order="fill stroke markers" d=" M 10 10 L 1002 10 L 1002 634 L 10 634 L 10 10" stroke-miterlimit="10" stroke-dasharray=""/></g><g><path fill="#ffffff" stroke="none" paint-order="stroke fill markers" d=" M 10 10 L 10 33 L 218.93701171875 33 L 230.43701171875 21.5 L 230.43701171875 10 L 10 10"/></g><g><path fill="none" stroke="#000000" paint-order="fill stroke markers" d=" M 10 10 L 10 33 L 218.93701171875 33 L 230.43701171875 21.5 L 230.43701171875 10 L 10 10 L 10 10" stroke-miterlimit="10" stroke-dasharray=""/></g><g><g><path fill="none" stroke="none"/><text fill="#000000" stroke="none" font-family="Arial" font-size="13px" font-style="normal" font-weight="normal" text-decoration="undefined" x="146.33349609375" y="11.5" text-anchor="middle" dominant-baseline="central" transform="matrix(1 0 0 1 -22 10)">SequenceDiagramForSubKeys</text></g></g><g><g><path fill="none" stroke="none"/><text fill="#000000" stroke="none" font-family="Arial" font-size="13px" font-style="normal" font-weight="bold" text-decoration="undefined" x="43.864990234375" y="11.5" text-anchor="middle" dominant-baseline="central" transform="matrix(1 0 0 1 -22 10)">sd</text></g></g><g><rect fill="#C0C0C0" stroke="none" x="223" y="47" width="72.736328125" height="40" transform="matrix(1 0 0 1 -22 10)" fill-opacity="0.2"/></g><g><rect fill="#ffffff" stroke="none" x="216" y="40" width="72.736328125" height="40" transform="matrix(1 0 0 1 -22 10)"/></g><g><path fill="none" stroke="#000000" paint-order="fill stroke markers" d=" M 194 50 L 266.736328125 50 L 266.736328125 90 L 194 90 L 194 50 Z Z" stroke-miterlimit="10" stroke-dasharray=""/></g><g><g><path fill="none" stroke="none"/><text fill="#000000" stroke="none" font-family="Arial" font-size="13px" font-style="normal" font-weight="bold" text-decoration="undefined" x="252.8681640625" y="53.5" text-anchor="middle" dominant-baseline="central" transform="matrix(1 0 0 1 -22 10)">Rule</text></g></g><g><path fill="none" stroke="#000000" paint-order="fill stroke markers" d=" M 230.5 91 L 230.5 610" stroke-miterlimit="10" stroke-dasharray="3"/></g><g><rect fill="#C0C0C0" stroke="none" x="423" y="47" width="72.736328125" height="40" transform="matrix(1 0 0 1 -22 10)" fill-opacity="0.2"/></g><g><rect fill="#ffffff" stroke="none" x="416" y="40" width="72.736328125" height="40" transform="matrix(1 0 0 1 -22 10)"/></g><g><path fill="none" stroke="#000000" paint-order="fill stroke markers" d=" M 394 50 L 466.736328125 50 L 466.736328125 90 L 394 90 L 394 50 Z Z" stroke-miterlimit="10" stroke-dasharray=""/></g><g><g><path fill="none" stroke="none"/><text fill="#000000" stroke="none" font-family="Arial" font-size="13px" font-style="normal" font-weight="bold" text-decoration="undefined" x="452.8681640625" y="53.5" text-anchor="middle" dominant-baseline="central" transform="matrix(1 0 0 1 -22 10)">Menu</text></g></g><g><path fill="none" stroke="#000000" paint-order="fill stroke markers" d=" M 430.5 91 L 430.5 610" stroke-miterlimit="10" stroke-dasharray="3"/></g><g><rect fill="#C0C0C0" stroke="none" x="647" y="47" width="72.736328125" height="40" transform="matrix(1 0 0 1 -22 10)" fill-opacity="0.2"/></g><g><rect fill="#ffffff" stroke="none" x="640" y="40" width="72.736328125" height="40" transform="matrix(1 0 0 1 -22 10)"/></g><g><path fill="none" stroke="#000000" paint-order="fill stroke markers" d=" M 618 50 L 690.736328125 50 L 690.736328125 90 L 618 90 L 618 50 Z Z" stroke-miterlimit="10" stroke-dasharray=""/></g><g><g><path fill="none" stroke="none"/><text fill="#000000" stroke="none" font-family="Arial" font-size="13px" font-style="normal" font-weight="bold" text-decoration="undefined" x="676.8681640625" y="53.5" text-anchor="middle" dominant-baseline="central" transform="matrix(1 0 0 1 -22 10)">user</text></g></g><g><path fill="none" stroke="#000000" paint-order="fill stroke markers" d=" M 654.5 91 L 654.5 618" stroke-miterlimit="10" stroke-dasharray="3"/></g><g><rect fill="#C0C0C0" stroke="none" x="831" y="47" width="72.736328125" height="40" transform="matrix(1 0 0 1 -22 10)" fill-opacity="0.2"/></g><g><rect fill="#ffffff" stroke="none" x="824" y="40" width="72.736328125" height="40" transform="matrix(1 0 0 1 -22 10)"/></g><g><path fill="none" stroke="#000000" paint-order="fill stroke markers" d=" M 802 50 L 874.736328125 50 L 874.736328125 90 L 802 90 L 802 50 Z Z" stroke-miterlimit="10" stroke-dasharray=""/></g><g><g><path fill="none" stroke="none"/><text fill="#000000" stroke="none" font-family="Arial" font-size="13px" font-style="normal" font-weight="bold" text-decoration="undefined" x="860.8681640625" y="53.5" text-anchor="middle" dominant-baseline="central" transform="matrix(1 0 0 1 -22 10)">system</text></g></g><g><path fill="none" stroke="#000000" paint-order="fill stroke markers" d=" M 838.5 91 L 838.5 618" stroke-miterlimit="10" stroke-dasharray="3"/></g><g><path fill="none" stroke="#000000" paint-order="fill stroke markers" d=" M 431 114 L 461 114 L 461 134 L 437 134" stroke-miterlimit="10" stroke-dasharray=""/></g><g><path fill="#000000" stroke="none" paint-order="stroke fill markers" d=" M 447.16267485762415 129.790482243984 L 437 134 L 447.16267485762415 138.209517756016"/></g><g><path fill="none" stroke="#000000" paint-order="fill stroke markers" d=" M 447.16267485762415 129.790482243984 L 437 134 L 447.16267485762415 138.209517756016 L 447.16267485762415 129.790482243984" stroke-miterlimit="10" stroke-dasharray=""/></g><g><rect fill="#ffffff" stroke="none" x="450" y="107" width="85.86508178710938" height="13" transform="matrix(1 0 0 1 -22 10)"/></g><g><g><path fill="none" stroke="none"/><text fill="#000000" stroke="none" font-family="Arial" font-size="13px" font-style="normal" font-weight="normal" text-decoration="undefined" x="492.9325408935547" y="113.5" text-anchor="middle" dominant-baseline="central" transform="matrix(1 0 0 1 -22 10)">1 : WaitForKey</text></g></g><g><rect fill="#ffffff" stroke="none" x="445" y="124" width="14" height="83" transform="matrix(1 0 0 1 -22 10)"/></g><g><path fill="none" stroke="#000000" paint-order="fill stroke markers" d=" M 423 134 L 437 134 L 437 217 L 423 217 L 423 134 Z Z" stroke-miterlimit="10" stroke-dasharray=""/></g><g><path fill="none" stroke="#000000" paint-order="fill stroke markers" d=" M 654 154 L 444 154" stroke-miterlimit="10" stroke-dasharray=""/></g><g><path fill="none" stroke="#000000" paint-order="fill stroke markers" d=" M 454.16267485762415 149.790482243984 L 444 154 L 454.16267485762415 158.209517756016" stroke-miterlimit="10" stroke-dasharray=""/></g><g><rect fill="#ffffff" stroke="none" x="531" y="148" width="78.04443359375" height="13" transform="matrix(1 0 0 1 -22 10)"/></g><g><g><path fill="none" stroke="none"/><text fill="#000000" stroke="none" font-family="Arial" font-size="13px" font-style="normal" font-weight="normal" text-decoration="undefined" x="570.022216796875" y="154.5" text-anchor="middle" dominant-baseline="central" transform="matrix(1 0 0 1 -22 10)">2 : press 2</text></g></g><g><rect fill="#ffffff" stroke="none" x="452" y="144" width="14" height="28" transform="matrix(1 0 0 1 -22 10)"/></g><g><path fill="none" stroke="#000000" paint-order="fill stroke markers" d=" M 430 154 L 444 154 L 444 182 L 430 182 L 430 154 Z Z" stroke-miterlimit="10" stroke-dasharray=""/></g><g><path fill="none" stroke="#000000" paint-order="fill stroke markers" d=" M 430 178 L 237 178" stroke-miterlimit="10" stroke-dasharray=""/></g><g><path fill="none" stroke="#000000" paint-order="fill stroke markers" d=" M 247.16267485762415 173.790482243984 L 237 178 L 247.16267485762415 182.209517756016" stroke-miterlimit="10" stroke-dasharray=""/></g><g><rect fill="#ffffff" stroke="none" x="315" y="150" width="81.70506286621094" height="13" transform="matrix(1 0 0 1 -22 10)"/></g><g><g><path fill="none" stroke="none"/><text fill="#000000" stroke="none" font-family="Arial" font-size="13px" font-style="normal" font-weight="normal" text-decoration="undefined" x="355.85253143310547" y="156.5" text-anchor="middle" dominant-baseline="central" transform="matrix(1 0 0 1 -22 10)">3 : show rules</text></g></g><g><rect fill="#ffffff" stroke="none" x="245" y="168" width="14" height="221" transform="matrix(1 0 0 1 -22 10)"/></g><g><path fill="none" stroke="#000000" paint-order="fill stroke markers" d=" M 223 178 L 237 178 L 237 399 L 223 399 L 223 178 Z Z" stroke-miterlimit="10" stroke-dasharray=""/></g><g><path fill="none" stroke="#000000" paint-order="fill stroke markers" d=" M 237 226 L 267 226 L 267 246 L 244 246" stroke-miterlimit="10" stroke-dasharray=""/></g><g><path fill="#000000" stroke="none" paint-order="stroke fill markers" d=" M 254.16267485762415 241.790482243984 L 244 246 L 254.16267485762415 250.209517756016"/></g><g><path fill="none" stroke="#000000" paint-order="fill stroke markers" d=" M 254.16267485762415 241.790482243984 L 244 246 L 254.16267485762415 250.209517756016 L 254.16267485762415 241.790482243984" stroke-miterlimit="10" stroke-dasharray=""/></g><g><rect fill="#ffffff" stroke="none" x="309" y="240" width="85.86508178710938" height="13" transform="matrix(1 0 0 1 -22 10)"/></g><g><g><path fill="none" stroke="none"/><text fill="#000000" stroke="none" font-family="Arial" font-size="13px" font-style="normal" font-weight="normal" text-decoration="undefined" x="351.9325408935547" y="246.5" text-anchor="middle" dominant-baseline="central" transform="matrix(1 0 0 1 -22 10)">4 : WaitForKey</text></g></g><g><rect fill="#ffffff" stroke="none" x="252" y="236" width="14" height="150" transform="matrix(1 0 0 1 -22 10)"/></g><g><path fill="none" stroke="#000000" paint-order="fill stroke markers" d=" M 230 246 L 244 246 L 244 396 L 230 396 L 230 246 Z Z" stroke-miterlimit="10" stroke-dasharray=""/></g><g><path fill="none" stroke="#000000" paint-order="fill stroke markers" d=" M 654 274 L 251 274" stroke-miterlimit="10" stroke-dasharray=""/></g><g><path fill="none" stroke="#000000" paint-order="fill stroke markers" d=" M 261.16267485762415 269.790482243984 L 251 274 L 261.16267485762415 278.209517756016" stroke-miterlimit="10" stroke-dasharray=""/></g><g><rect fill="#ffffff" stroke="none" x="539" y="267" width="78.04443359375" height="13" transform="matrix(1 0 0 1 -22 10)"/></g><g><g><path fill="none" stroke="none"/><text fill="#000000" stroke="none" font-family="Arial" font-size="13px" font-style="normal" font-weight="normal" text-decoration="undefined" x="578.022216796875" y="273.5" text-anchor="middle" dominant-baseline="central" transform="matrix(1 0 0 1 -22 10)">5 : press 3</text></g></g><g><rect fill="#ffffff" stroke="none" x="259" y="264" width="14" height="119" transform="matrix(1 0 0 1 -22 10)"/></g><g><path fill="none" stroke="#000000" paint-order="fill stroke markers" d=" M 237 274 L 251 274 L 251 393 L 237 393 L 237 274 Z Z" stroke-miterlimit="10" stroke-dasharray=""/></g><g><path fill="none" stroke="#000000" paint-order="fill stroke markers" d=" M 251 314 L 831 314" stroke-miterlimit="10" stroke-dasharray=""/></g><g><path fill="#000000" stroke="none" paint-order="stroke fill markers" d=" M 820.8373251423759 318.209517756016 L 831 314 L 820.8373251423758 309.790482243984"/></g><g><path fill="none" stroke="#000000" paint-order="fill stroke markers" d=" M 820.8373251423759 318.209517756016 L 831 314 L 820.8373251423758 309.790482243984 L 820.8373251423759 318.209517756016" stroke-miterlimit="10" stroke-dasharray=""/></g><g><rect fill="#ffffff" stroke="none" x="512" y="288" width="103.44110107421875" height="13" transform="matrix(1 0 0 1 -22 10)"/></g><g><g><path fill="none" stroke="none"/><text fill="#000000" stroke="none" font-family="Arial" font-size="13px" font-style="normal" font-weight="normal" text-decoration="undefined" x="563.7205505371094" y="294.5" text-anchor="middle" dominant-baseline="central" transform="matrix(1 0 0 1 -22 10)">6 : request delete</text></g></g><g><rect fill="#ffffff" stroke="none" x="853" y="304" width="14" height="56" transform="matrix(1 0 0 1 -22 10)"/></g><g><path fill="none" stroke="#000000" paint-order="fill stroke markers" d=" M 831 314 L 845 314 L 845 370 L 831 370 L 831 314 Z Z" stroke-miterlimit="10" stroke-dasharray=""/></g><g><path fill="none" stroke="#000000" paint-order="fill stroke markers" d=" M 831 331 L 437 331" stroke-miterlimit="10" stroke-dasharray=""/></g><g><path fill="#000000" stroke="none" paint-order="stroke fill markers" d=" M 447.16267485762415 326.790482243984 L 437 331 L 447.16267485762415 335.209517756016"/></g><g><path fill="none" stroke="#000000" paint-order="fill stroke markers" d=" M 447.16267485762415 326.790482243984 L 437 331 L 447.16267485762415 335.209517756016 L 447.16267485762415 326.790482243984" stroke-miterlimit="10" stroke-dasharray=""/></g><g><path fill="none" stroke="#000000" paint-order="fill stroke markers" d=" M 420.5 600 L 440.5 620" stroke-miterlimit="10" stroke-dasharray=""/></g><g><path fill="none" stroke="#000000" paint-order="fill stroke markers" d=" M 440.5 600 L 420.5 620" stroke-miterlimit="10" stroke-dasharray=""/></g><g><rect fill="#ffffff" stroke="none" x="680" y="319" width="18.0654296875" height="13" transform="matrix(1 0 0 1 -22 10)"/></g><g><g><path fill="none" stroke="none"/><text fill="#000000" stroke="none" font-family="Arial" font-size="13px" font-style="normal" font-weight="normal" text-decoration="undefined" x="689.03271484375" y="325.5" text-anchor="middle" dominant-baseline="central" transform="matrix(1 0 0 1 -22 10)">7 : </text></g></g><g><rect fill="#ffffff" stroke="none" x="696" y="319" width="57.86305236816406" height="13" transform="matrix(1 0 0 1 -22 10)"/></g><g><g><path fill="none" stroke="none"/><text fill="#000000" stroke="none" font-family="Arial" font-size="13px" font-style="normal" font-weight="normal" text-decoration="undefined" x="724.931526184082" y="325.5" text-anchor="middle" dominant-baseline="central" transform="matrix(1 0 0 1 -22 10)">«destroy»</text></g></g><g><rect fill="#ffffff" stroke="none" x="445" y="321" width="14" height="28" transform="matrix(1 0 0 1 -22 10)"/></g><g><path fill="none" stroke="#000000" paint-order="fill stroke markers" d=" M 423 331 L 437 331 L 437 359 L 423 359 L 423 331 Z Z" stroke-miterlimit="10" stroke-dasharray=""/></g><g><path fill="none" stroke="#000000" paint-order="fill stroke markers" d=" M 831 362 L 258 362" stroke-miterlimit="10" stroke-dasharray=""/></g><g><path fill="#000000" stroke="none" paint-order="stroke fill markers" d=" M 268.16267485762415 357.790482243984 L 258 362 L 268.16267485762415 366.209517756016"/></g><g><path fill="none" stroke="#000000" paint-order="fill stroke markers" d=" M 268.16267485762415 357.790482243984 L 258 362 L 268.16267485762415 366.209517756016 L 268.16267485762415 357.790482243984" stroke-miterlimit="10" stroke-dasharray=""/></g><g><path fill="none" stroke="#000000" paint-order="fill stroke markers" d=" M 220.5 600 L 240.5 620" stroke-miterlimit="10" stroke-dasharray=""/></g><g><path fill="none" stroke="#000000" paint-order="fill stroke markers" d=" M 240.5 600 L 220.5 620" stroke-miterlimit="10" stroke-dasharray=""/></g><g><rect fill="#ffffff" stroke="none" x="344" y="360" width="18.0654296875" height="13" transform="matrix(1 0 0 1 -22 10)"/></g><g><g><path fill="none" stroke="none"/><text fill="#000000" stroke="none" font-family="Arial" font-size="13px" font-style="normal" font-weight="normal" text-decoration="undefined" x="353.03271484375" y="366.5" text-anchor="middle" dominant-baseline="central" transform="matrix(1 0 0 1 -22 10)">8 : </text></g></g><g><rect fill="#ffffff" stroke="none" x="368" y="360" width="57.86305236816406" height="13" transform="matrix(1 0 0 1 -22 10)"/></g><g><g><path fill="none" stroke="none"/><text fill="#000000" stroke="none" font-family="Arial" font-size="13px" font-style="normal" font-weight="normal" text-decoration="undefined" x="396.93152618408203" y="366.5" text-anchor="middle" dominant-baseline="central" transform="matrix(1 0 0 1 -22 10)">«destroy»</text></g></g><g><rect fill="#ffffff" stroke="none" x="266" y="352" width="14" height="28" transform="matrix(1 0 0 1 -22 10)"/></g><g><path fill="none" stroke="#000000" paint-order="fill stroke markers" d=" M 244 362 L 258 362 L 258 390 L 244 390 L 244 362 Z Z" stroke-miterlimit="10" stroke-dasharray=""/></g><g><path fill="none" stroke="#000000" paint-order="fill stroke markers" d=" M 431 418 L 461 418 L 461 438 L 437 438" stroke-miterlimit="10" stroke-dasharray=""/></g><g><path fill="#000000" stroke="none" paint-order="stroke fill markers" d=" M 447.16267485762415 433.790482243984 L 437 438 L 447.16267485762415 442.209517756016"/></g><g><path fill="none" stroke="#000000" paint-order="fill stroke markers" d=" M 447.16267485762415 433.790482243984 L 437 438 L 447.16267485762415 442.209517756016 L 447.16267485762415 433.790482243984" stroke-miterlimit="10" stroke-dasharray=""/></g><g><rect fill="#ffffff" stroke="none" x="446" y="411" width="92.7138671875" height="13" transform="matrix(1 0 0 1 -22 10)"/></g><g><g><path fill="none" stroke="none"/><text fill="#000000" stroke="none" font-family="Arial" font-size="13px" font-style="normal" font-weight="normal" text-decoration="undefined" x="492.35693359375" y="417.5" text-anchor="middle" dominant-baseline="central" transform="matrix(1 0 0 1 -22 10)">9 : WaitForKey</text></g></g><g><rect fill="#ffffff" stroke="none" x="445" y="428" width="14" height="56" transform="matrix(1 0 0 1 -22 10)"/></g><g><path fill="none" stroke="#000000" paint-order="fill stroke markers" d=" M 423 438 L 437 438 L 437 494 L 423 494 L 423 438 Z Z" stroke-miterlimit="10" stroke-dasharray=""/></g><g><path fill="none" stroke="#000000" paint-order="fill stroke markers" d=" M 654 463 L 444 463" stroke-miterlimit="10" stroke-dasharray=""/></g><g><path fill="none" stroke="#000000" paint-order="fill stroke markers" d=" M 454.16267485762415 458.790482243984 L 444 463 L 454.16267485762415 467.209517756016" stroke-miterlimit="10" stroke-dasharray=""/></g><g><rect fill="#ffffff" stroke="none" x="531" y="439" width="78.04443359375" height="13" transform="matrix(1 0 0 1 -22 10)"/></g><g><g><path fill="none" stroke="none"/><text fill="#000000" stroke="none" font-family="Arial" font-size="13px" font-style="normal" font-weight="normal" text-decoration="undefined" x="570.022216796875" y="445.5" text-anchor="middle" dominant-baseline="central" transform="matrix(1 0 0 1 -22 10)">10 : press 3</text></g></g><g><rect fill="#ffffff" stroke="none" x="452" y="453" width="14" height="28" transform="matrix(1 0 0 1 -22 10)"/></g><g><path fill="none" stroke="#000000" paint-order="fill stroke markers" d=" M 430 463 L 444 463 L 444 491 L 430 491 L 430 463 Z Z" stroke-miterlimit="10" stroke-dasharray=""/></g><g><path fill="none" stroke="#000000" paint-order="fill stroke markers" d=" M 444 482 L 831 482" stroke-miterlimit="10" stroke-dasharray=""/></g><g><path fill="#000000" stroke="none" paint-order="stroke fill markers" d=" M 820.8373251423759 486.209517756016 L 831 482 L 820.8373251423758 477.790482243984"/></g><g><path fill="none" stroke="#000000" paint-order="fill stroke markers" d=" M 820.8373251423759 486.209517756016 L 831 482 L 820.8373251423758 477.790482243984 L 820.8373251423759 486.209517756016" stroke-miterlimit="10" stroke-dasharray=""/></g><g><rect fill="#ffffff" stroke="none" x="598" y="472" width="110.65611267089844" height="13" transform="matrix(1 0 0 1 -22 10)"/></g><g><g><path fill="none" stroke="none"/><text fill="#000000" stroke="none" font-family="Arial" font-size="13px" font-style="normal" font-weight="normal" text-decoration="undefined" x="653.3280563354492" y="478.5" text-anchor="middle" dominant-baseline="central" transform="matrix(1 0 0 1 -22 10)">11 : request delete</text></g></g><g><rect fill="#ffffff" stroke="none" x="853" y="472" width="14" height="56" transform="matrix(1 0 0 1 -22 10)"/></g><g><path fill="none" stroke="#000000" paint-order="fill stroke markers" d=" M 831 482 L 845 482 L 845 538 L 831 538 L 831 482 Z Z" stroke-miterlimit="10" stroke-dasharray=""/></g><g><path fill="none" stroke="#000000" paint-order="fill stroke markers" d=" M 831 506 L 437 506" stroke-miterlimit="10" stroke-dasharray=""/></g><g><path fill="#000000" stroke="none" paint-order="stroke fill markers" d=" M 447.16267485762415 501.790482243984 L 437 506 L 447.16267485762415 510.209517756016"/></g><g><path fill="none" stroke="#000000" paint-order="fill stroke markers" d=" M 447.16267485762415 501.790482243984 L 437 506 L 447.16267485762415 510.209517756016 L 447.16267485762415 501.790482243984" stroke-miterlimit="10" stroke-dasharray=""/></g><g><path fill="none" stroke="#000000" paint-order="fill stroke markers" d=" M 420.5 600 L 440.5 620" stroke-miterlimit="10" stroke-dasharray=""/></g><g><path fill="none" stroke="#000000" paint-order="fill stroke markers" d=" M 440.5 600 L 420.5 620" stroke-miterlimit="10" stroke-dasharray=""/></g><g><rect fill="#ffffff" stroke="none" x="643" y="496" width="25.29541015625" height="13" transform="matrix(1 0 0 1 -22 10)"/></g><g><g><path fill="none" stroke="none"/><text fill="#000000" stroke="none" font-family="Arial" font-size="13px" font-style="normal" font-weight="normal" text-decoration="undefined" x="655.647705078125" y="502.5" text-anchor="middle" dominant-baseline="central" transform="matrix(1 0 0 1 -22 10)">12 : </text></g></g><g><rect fill="#ffffff" stroke="none" x="664" y="495" width="57.86305236816406" height="13" transform="matrix(1 0 0 1 -22 10)"/></g><g><g><path fill="none" stroke="none"/><text fill="#000000" stroke="none" font-family="Arial" font-size="13px" font-style="normal" font-weight="normal" text-decoration="undefined" x="692.931526184082" y="501.5" text-anchor="middle" dominant-baseline="central" transform="matrix(1 0 0 1 -22 10)">«destroy»</text></g></g><g><rect fill="#ffffff" stroke="none" x="445" y="496" width="14" height="28" transform="matrix(1 0 0 1 -22 10)"/></g><g><path fill="none" stroke="#000000" paint-order="fill stroke markers" d=" M 423 506 L 437 506 L 437 534 L 423 534 L 423 506 Z Z" stroke-miterlimit="10" stroke-dasharray=""/></g><g><path fill="none" stroke="#000000" paint-order="fill stroke markers" d=" M 838 538 L 237 538" stroke-miterlimit="10" stroke-dasharray=""/></g><g><path fill="#000000" stroke="none" paint-order="stroke fill markers" d=" M 247.16267485762415 533.790482243984 L 237 538 L 247.16267485762415 542.209517756016"/></g><g><path fill="none" stroke="#000000" paint-order="fill stroke markers" d=" M 247.16267485762415 533.790482243984 L 237 538 L 247.16267485762415 542.209517756016 L 247.16267485762415 533.790482243984" stroke-miterlimit="10" stroke-dasharray=""/></g><g><path fill="none" stroke="#000000" paint-order="fill stroke markers" d=" M 220.5 600 L 240.5 620" stroke-miterlimit="10" stroke-dasharray=""/></g><g><path fill="none" stroke="#000000" paint-order="fill stroke markers" d=" M 240.5 600 L 220.5 620" stroke-miterlimit="10" stroke-dasharray=""/></g><g><rect fill="#ffffff" stroke="none" x="546" y="528" width="25.29541015625" height="13" transform="matrix(1 0 0 1 -22 10)"/></g><g><g><path fill="none" stroke="none"/><text fill="#000000" stroke="none" font-family="Arial" font-size="13px" font-style="normal" font-weight="normal" text-decoration="undefined" x="558.647705078125" y="534.5" text-anchor="middle" dominant-baseline="central" transform="matrix(1 0 0 1 -22 10)">13 : </text></g></g><g><rect fill="#ffffff" stroke="none" x="568" y="527" width="57.86305236816406" height="13" transform="matrix(1 0 0 1 -22 10)"/></g><g><g><path fill="none" stroke="none"/><text fill="#000000" stroke="none" font-family="Arial" font-size="13px" font-style="normal" font-weight="normal" text-decoration="undefined" x="596.931526184082" y="533.5" text-anchor="middle" dominant-baseline="central" transform="matrix(1 0 0 1 -22 10)">«destroy»</text></g></g><g><rect fill="#ffffff" stroke="none" x="245" y="528" width="14" height="28" transform="matrix(1 0 0 1 -22 10)"/></g><g><path fill="none" stroke="#000000" paint-order="fill stroke markers" d=" M 223 538 L 237 538 L 237 566 L 223 566 L 223 538 Z Z" stroke-miterlimit="10" stroke-dasharray=""/></g><g><path fill="none" stroke="#000000" paint-order="fill stroke markers" d=" M 138 106 L 906 106 L 906 586 L 138 586 L 138 106" stroke-miterlimit="10" stroke-dasharray=""/></g><g><path fill="#ffffff" stroke="none" paint-order="stroke fill markers" d=" M 138 106 L 138 129 L 246.49169921875 129 L 257.99169921875 117.5 L 257.99169921875 106 L 138 106"/></g><g><path fill="none" stroke="#000000" paint-order="fill stroke markers" d=" M 138 106 L 138 129 L 246.49169921875 129 L 257.99169921875 117.5 L 257.99169921875 106 L 138 106 L 138 106" stroke-miterlimit="10" stroke-dasharray=""/></g><g><g><path fill="none" stroke="none"/><text fill="#000000" stroke="none" font-family="Arial" font-size="13px" font-style="normal" font-weight="normal" text-decoration="undefined" x="224.11083984375" y="107.5" text-anchor="middle" dominant-baseline="central" transform="matrix(1 0 0 1 -22 10)">altForSubKey</text></g></g><g><g><path fill="none" stroke="none"/><text fill="#000000" stroke="none" font-family="Arial" font-size="13px" font-style="normal" font-weight="bold" text-decoration="undefined" x="171.864990234375" y="107.5" text-anchor="middle" dominant-baseline="central" transform="matrix(1 0 0 1 -22 10)">alt</text></g></g><g><g><path fill="none" stroke="none"/><text fill="#000000" stroke="none" font-family="Arial" font-size="13px" font-style="normal" font-weight="normal" text-decoration="undefined" x="204.92724609375" y="140.5" text-anchor="middle" dominant-baseline="central" transform="matrix(1 0 0 1 -22 10)">[press 2]</text></g></g><g><path fill="none" stroke="#000000" paint-order="fill stroke markers" d=" M 138 402 L 905 402" stroke-miterlimit="10" stroke-dasharray="10,3"/></g><g><g><path fill="none" stroke="none"/><text fill="#000000" stroke="none" font-family="Arial" font-size="13px" font-style="normal" font-weight="normal" text-decoration="undefined" x="204.92724609375" y="413.5" text-anchor="middle" dominant-baseline="central" transform="matrix(1 0 0 1 -22 10)">[press 3]</text></g></g></g></svg>