<svg version="1.1" xmlns="http://www.w3.org/2000/svg" xmlns:xlink="http://www.w3.org/1999/xlink" width="398" height="813"><defs/><g><g><path fill="#C0C0C0" stroke="none" paint-order="stroke fill markers" d=" M 51 27 C 51 21.477152000000004 55.47715199999999 17 61 17 C 66.52284800000001 17 71 21.477152000000004 71 27 C 71 32.522847999999996 66.52284800000001 37 61 37 C 55.47715199999999 37 51 32.522847999999996 51 27 Z" fill-opacity="0.2"/></g><g><path fill="#000000" stroke="none" paint-order="stroke fill markers" d=" M 44 20 C 44 14.477152000000004 48.47715199999999 10 54 10 C 59.52284800000001 10 64 14.477152000000004 64 20 C 64 25.522847999999996 59.52284800000001 30 54 30 C 48.47715199999999 30 44 25.522847999999996 44 20 Z"/></g><g><path fill="#C0C0C0" stroke="none" paint-order="stroke fill markers" d=" M 31 305 L 89.34109497070312 305 Q 99.34109497070312 305 99.34109497070312 315 L 99.34109497070312 336 Q 99.34109497070312 346 89.34109497070312 346 L 31 346 Q 21 346 21 336 L 21 315 Q 21 305 31 305 Z" fill-opacity="0.2"/></g><g><path fill="#ffffff" stroke="none" paint-order="stroke fill markers" d=" M 24 298 L 82.34109497070312 298 Q 92.34109497070312 298 92.34109497070312 308 L 92.34109497070312 329 Q 92.34109497070312 339 82.34109497070312 339 L 24 339 Q 14 339 14 329 L 14 308 Q 14 298 24 298 Z"/></g><g><path fill="none" stroke="#000000" paint-order="fill stroke markers" d=" M 24 298 L 82.34109497070312 298 Q 92.34109497070312 298 92.34109497070312 308 L 92.34109497070312 329 Q 92.34109497070312 339 82.34109497070312 339 L 24 339 Q 14 339 14 329 L 14 308 Q 14 298 24 298 Z" stroke-miterlimit="10" stroke-dasharray=""/></g><g><g><path fill="none" stroke="none"/><text fill="#000000" stroke="none" font-family="Arial" font-size="13px" font-style="normal" font-weight="bold" text-decoration="undefined" x="299.67054748535156" y="373.5" text-anchor="middle" dominant-baseline="central" transform="matrix(1 0 0 1 -246 -62)">start game</text></g></g><g><path fill="#C0C0C0" stroke="none" paint-order="stroke fill markers" d=" M 28 89 L 92.99705505371094 89 Q 102.99705505371094 89 102.99705505371094 99 L 102.99705505371094 120 Q 102.99705505371094 130 92.99705505371094 130 L 28 130 Q 18 130 18 120 L 18 99 Q 18 89 28 89 Z" fill-opacity="0.2"/></g><g><path fill="#ffffff" stroke="none" paint-order="stroke fill markers" d=" M 21 82 L 85.99705505371094 82 Q 95.99705505371094 82 95.99705505371094 92 L 95.99705505371094 113 Q 95.99705505371094 123 85.99705505371094 123 L 21 123 Q 11 123 11 113 L 11 92 Q 11 82 21 82 Z"/></g><g><path fill="none" stroke="#000000" paint-order="fill stroke markers" d=" M 21 82 L 85.99705505371094 82 Q 95.99705505371094 82 95.99705505371094 92 L 95.99705505371094 113 Q 95.99705505371094 123 85.99705505371094 123 L 21 123 Q 11 123 11 113 L 11 92 Q 11 82 21 82 Z" stroke-miterlimit="10" stroke-dasharray=""/></g><g><g><path fill="none" stroke="none"/><text fill="#000000" stroke="none" font-family="Arial" font-size="13px" font-style="normal" font-weight="bold" text-decoration="undefined" x="299.99852752685547" y="157.5" text-anchor="middle" dominant-baseline="central" transform="matrix(1 0 0 1 -246 -62)">wait for key</text></g></g><g><path fill="#C0C0C0" stroke="none" paint-order="stroke fill markers" d=" M 49 218.5 L 60.5 209 L 72 218.5 L 60.5 228 L 49 218.5" fill-opacity="0.2"/></g><g><path fill="#ffffff" stroke="none" paint-order="stroke fill markers" d=" M 42 211.5 L 53.5 202 L 65 211.5 L 53.5 221 L 42 211.5"/></g><g><path fill="none" stroke="#000000" paint-order="fill stroke markers" d=" M 42 211.5 L 53.5 202 L 65 211.5 L 53.5 221 L 42 211.5 L 42 211.5" stroke-miterlimit="10" stroke-dasharray=""/></g><g><path fill="none" stroke="#000000" paint-order="fill stroke markers" d=" M 49 123 L 49 202" stroke-miterlimit="10" stroke-dasharray=""/></g><g><path fill="none" stroke="#000000" paint-order="fill stroke markers" d=" M 44.790482243984 191.83732514237585 L 49 202 L 53.209517756016 191.83732514237585" stroke-miterlimit="10" stroke-dasharray=""/></g><g><path fill="none" stroke="#000000" paint-order="fill stroke markers" d=" M 50 221 L 50 298" stroke-miterlimit="10" stroke-dasharray=""/></g><g><path fill="none" stroke="#000000" paint-order="fill stroke markers" d=" M 45.790482243984 287.83732514237585 L 50 298 L 54.209517756016 287.83732514237585" stroke-miterlimit="10" stroke-dasharray=""/></g><g><rect fill="#ffffff" stroke="none" x="272" y="313" width="42.630859375" height="13" transform="matrix(1 0 0 1 -246 -62)"/></g><g><g><path fill="none" stroke="none"/><text fill="#000000" stroke="none" font-family="Arial" font-size="13px" font-style="normal" font-weight="normal" text-decoration="undefined" x="293.3154296875" y="319.5" text-anchor="middle" dominant-baseline="central" transform="matrix(1 0 0 1 -246 -62)">press 1</text></g></g><g><path fill="#C0C0C0" stroke="none" paint-order="stroke fill markers" d=" M 369 222 C 369 214.8202976 374.8202976 209 382 209 C 389.1797024 209 395 214.8202976 395 222 C 395 229.1797024 389.1797024 235 382 235 C 374.8202976 235 369 229.1797024 369 222 Z" fill-opacity="0.2"/></g><g><path fill="none" stroke="#000000" paint-order="fill stroke markers" d=" M 362 215 C 362 207.8202976 367.8202976 202 375 202 C 382.1797024 202 388 207.8202976 388 215 C 388 222.1797024 382.1797024 228 375 228 C 367.8202976 228 362 222.1797024 362 215 Z" stroke-miterlimit="10" stroke-dasharray=""/></g><g><path fill="#000000" stroke="none" paint-order="stroke fill markers" d=" M 367 215 C 367 210.58172159999998 370.58172160000004 207 375 207 C 379.41827839999996 207 383 210.58172159999998 383 215 C 383 219.41827840000002 379.41827839999996 223 375 223 C 370.58172160000004 223 367 219.41827840000002 367 215 Z"/></g><g><path fill="#C0C0C0" stroke="none" paint-order="stroke fill markers" d=" M 203 305 L 261.9910583496094 305 Q 271.9910583496094 305 271.9910583496094 315 L 271.9910583496094 336 Q 271.9910583496094 346 261.9910583496094 346 L 203 346 Q 193 346 193 336 L 193 315 Q 193 305 203 305 Z" fill-opacity="0.2"/></g><g><path fill="#ffffff" stroke="none" paint-order="stroke fill markers" d=" M 196 298 L 254.99105834960938 298 Q 264.9910583496094 298 264.9910583496094 308 L 264.9910583496094 329 Q 264.9910583496094 339 254.99105834960938 339 L 196 339 Q 186 339 186 329 L 186 308 Q 186 298 196 298 Z"/></g><g><path fill="none" stroke="#000000" paint-order="fill stroke markers" d=" M 196 298 L 254.99105834960938 298 Q 264.9910583496094 298 264.9910583496094 308 L 264.9910583496094 329 Q 264.9910583496094 339 254.99105834960938 339 L 196 339 Q 186 339 186 329 L 186 308 Q 186 298 196 298 Z" stroke-miterlimit="10" stroke-dasharray=""/></g><g><g><path fill="none" stroke="none"/><text fill="#000000" stroke="none" font-family="Arial" font-size="13px" font-style="normal" font-weight="bold" text-decoration="undefined" x="471.9955291748047" y="373.5" text-anchor="middle" dominant-baseline="central" transform="matrix(1 0 0 1 -246 -62)">show rules</text></g></g><g><path fill="none" stroke="#000000" paint-order="fill stroke markers" d=" M 265 326 L 375 326 L 375 228" stroke-miterlimit="10" stroke-dasharray=""/></g><g><path fill="none" stroke="#000000" paint-order="fill stroke markers" d=" M 379.209517756016 238.16267485762415 L 375 228 L 370.790482243984 238.16267485762415" stroke-miterlimit="10" stroke-dasharray=""/></g><g><path fill="none" stroke="#000000" paint-order="fill stroke markers" d=" M 65 221 L 226 221 L 226 298" stroke-miterlimit="10" stroke-dasharray=""/></g><g><path fill="none" stroke="#000000" paint-order="fill stroke markers" d=" M 221.790482243984 287.83732514237585 L 226 298 L 230.209517756016 287.83732514237585" stroke-miterlimit="10" stroke-dasharray=""/></g><g><rect fill="#ffffff" stroke="none" x="391" y="287" width="42.630859375" height="13" transform="matrix(1 0 0 1 -246 -62)"/></g><g><g><path fill="none" stroke="none"/><text fill="#000000" stroke="none" font-family="Arial" font-size="13px" font-style="normal" font-weight="normal" text-decoration="undefined" x="412.3154296875" y="293.5" text-anchor="middle" dominant-baseline="central" transform="matrix(1 0 0 1 -246 -62)">press 2</text></g></g><g><path fill="none" stroke="#000000" paint-order="fill stroke markers" d=" M 65 202 L 362 202" stroke-miterlimit="10" stroke-dasharray=""/></g><g><path fill="none" stroke="#000000" paint-order="fill stroke markers" d=" M 351.8373251423759 206.209517756016 L 362 202 L 351.8373251423758 197.790482243984" stroke-miterlimit="10" stroke-dasharray=""/></g><g><rect fill="#ffffff" stroke="none" x="392" y="241" width="42.630859375" height="13" transform="matrix(1 0 0 1 -246 -62)"/></g><g><g><path fill="none" stroke="none"/><text fill="#000000" stroke="none" font-family="Arial" font-size="13px" font-style="normal" font-weight="normal" text-decoration="undefined" x="413.3154296875" y="247.5" text-anchor="middle" dominant-baseline="central" transform="matrix(1 0 0 1 -246 -62)">press 3</text></g></g><g><path fill="none" stroke="#000000" paint-order="fill stroke markers" d=" M 50 30 L 50 82" stroke-miterlimit="10" stroke-dasharray=""/></g><g><path fill="none" stroke="#000000" paint-order="fill stroke markers" d=" M 45.790482243984 71.83732514237585 L 50 82 L 54.209517756016 71.83732514237585" stroke-miterlimit="10" stroke-dasharray=""/></g><g><path fill="#C0C0C0" stroke="none" paint-order="stroke fill markers" d=" M 27 449 L 92.24411010742188 449 Q 102.24411010742188 449 102.24411010742188 459 L 102.24411010742188 480 Q 102.24411010742188 490 92.24411010742188 490 L 27 490 Q 17 490 17 480 L 17 459 Q 17 449 27 449 Z" fill-opacity="0.2"/></g><g><path fill="#ffffff" stroke="none" paint-order="stroke fill markers" d=" M 20 442 L 85.24411010742188 442 Q 95.24411010742188 442 95.24411010742188 452 L 95.24411010742188 473 Q 95.24411010742188 483 85.24411010742188 483 L 20 483 Q 10 483 10 473 L 10 452 Q 10 442 20 442 Z"/></g><g><path fill="none" stroke="#000000" paint-order="fill stroke markers" d=" M 20 442 L 85.24411010742188 442 Q 95.24411010742188 442 95.24411010742188 452 L 95.24411010742188 473 Q 95.24411010742188 483 85.24411010742188 483 L 20 483 Q 10 483 10 473 L 10 452 Q 10 442 20 442 Z" stroke-miterlimit="10" stroke-dasharray=""/></g><g><g><path fill="none" stroke="none"/><text fill="#000000" stroke="none" font-family="Arial" font-size="13px" font-style="normal" font-weight="bold" text-decoration="undefined" x="299.12205505371094" y="517.5" text-anchor="middle" dominant-baseline="central" transform="matrix(1 0 0 1 -246 -62)">play stage 1</text></g></g><g><path fill="none" stroke="#000000" paint-order="fill stroke markers" d=" M 50 339 L 50 442" stroke-miterlimit="10" stroke-dasharray=""/></g><g><path fill="none" stroke="#000000" paint-order="fill stroke markers" d=" M 45.790482243984 431.83732514237585 L 50 442 L 54.209517756016 431.83732514237585" stroke-miterlimit="10" stroke-dasharray=""/></g><g><path fill="#C0C0C0" stroke="none" paint-order="stroke fill markers" d=" M 369 470 C 369 462.8202976 374.8202976 457 382 457 C 389.1797024 457 395 462.8202976 395 470 C 395 477.1797024 389.1797024 483 382 483 C 374.8202976 483 369 477.1797024 369 470 Z" fill-opacity="0.2"/></g><g><path fill="none" stroke="#000000" paint-order="fill stroke markers" d=" M 362 463 C 362 455.8202976 367.8202976 450 375 450 C 382.1797024 450 388 455.8202976 388 463 C 388 470.1797024 382.1797024 476 375 476 C 367.8202976 476 362 470.1797024 362 463 Z" stroke-miterlimit="10" stroke-dasharray=""/></g><g><path fill="#000000" stroke="none" paint-order="stroke fill markers" d=" M 367 463 C 367 458.58172160000004 370.58172160000004 455 375 455 C 379.41827839999996 455 383 458.58172160000004 383 463 C 383 467.41827839999996 379.41827839999996 471 375 471 C 370.58172160000004 471 367 467.41827839999996 367 463 Z"/></g><g><path fill="none" stroke="#000000" paint-order="fill stroke markers" d=" M 94 442 L 94 434 L 94 434 A 8 8 0 0 1 102 426 L 354 426 L 354 426 A 8 8 0 0 1 362 434 L 362 450" stroke-miterlimit="10" stroke-dasharray=""/></g><g><path fill="none" stroke="#000000" paint-order="fill stroke markers" d=" M 357.790482243984 439.83732514237585 L 362 450 L 366.209517756016 439.83732514237585" stroke-miterlimit="10" stroke-dasharray=""/></g><g><rect fill="#ffffff" stroke="none" x="419" y="467" width="111.21511840820312" height="13" transform="matrix(1 0 0 1 -246 -62)"/></g><g><g><path fill="none" stroke="none"/><text fill="#000000" stroke="none" font-family="Arial" font-size="13px" font-style="normal" font-weight="normal" text-decoration="undefined" x="474.60755920410156" y="473.5" text-anchor="middle" dominant-baseline="central" transform="matrix(1 0 0 1 -246 -62)">murdered by killer</text></g></g><g><path fill="none" stroke="#000000" paint-order="fill stroke markers" d=" M 94 483 L 94 490 L 94 490 A 8 8 0 0 0 102 498 L 354 498 L 354 498 A 8 8 0 0 0 362 490 L 362 476" stroke-miterlimit="10" stroke-dasharray=""/></g><g><path fill="none" stroke="#000000" paint-order="fill stroke markers" d=" M 366.209517756016 486.1626748576241 L 362 476 L 357.790482243984 486.1626748576241" stroke-miterlimit="10" stroke-dasharray=""/></g><g><rect fill="#ffffff" stroke="none" x="406" y="571" width="137.76113891601562" height="13" transform="matrix(1 0 0 1 -246 -62)"/></g><g><g><path fill="none" stroke="none"/><text fill="#000000" stroke="none" font-family="Arial" font-size="13px" font-style="normal" font-weight="normal" text-decoration="undefined" x="474.8805694580078" y="577.5" text-anchor="middle" dominant-baseline="central" transform="matrix(1 0 0 1 -246 -62)">exploded by land mine</text></g></g><g><path fill="#C0C0C0" stroke="none" paint-order="stroke fill markers" d=" M 29 617 L 94.24411010742188 617 Q 104.24411010742188 617 104.24411010742188 627 L 104.24411010742188 648 Q 104.24411010742188 658 94.24411010742188 658 L 29 658 Q 19 658 19 648 L 19 627 Q 19 617 29 617 Z" fill-opacity="0.2"/></g><g><path fill="#ffffff" stroke="none" paint-order="stroke fill markers" d=" M 22 610 L 87.24411010742188 610 Q 97.24411010742188 610 97.24411010742188 620 L 97.24411010742188 641 Q 97.24411010742188 651 87.24411010742188 651 L 22 651 Q 12 651 12 641 L 12 620 Q 12 610 22 610 Z"/></g><g><path fill="none" stroke="#000000" paint-order="fill stroke markers" d=" M 22 610 L 87.24411010742188 610 Q 97.24411010742188 610 97.24411010742188 620 L 97.24411010742188 641 Q 97.24411010742188 651 87.24411010742188 651 L 22 651 Q 12 651 12 641 L 12 620 Q 12 610 22 610 Z" stroke-miterlimit="10" stroke-dasharray=""/></g><g><g><path fill="none" stroke="none"/><text fill="#000000" stroke="none" font-family="Arial" font-size="13px" font-style="normal" font-weight="bold" text-decoration="undefined" x="301.12205505371094" y="685.5" text-anchor="middle" dominant-baseline="central" transform="matrix(1 0 0 1 -246 -62)">play stage 2</text></g></g><g><path fill="none" stroke="#000000" paint-order="fill stroke markers" d=" M 52 483 L 52 610" stroke-miterlimit="10" stroke-dasharray=""/></g><g><path fill="none" stroke="#000000" paint-order="fill stroke markers" d=" M 47.790482243984 599.8373251423759 L 52 610 L 56.209517756016 599.8373251423759" stroke-miterlimit="10" stroke-dasharray=""/></g><g><rect fill="#ffffff" stroke="none" x="280" y="600" width="29.679031372070312" height="13" transform="matrix(1 0 0 1 -246 -62)"/></g><g><g><path fill="none" stroke="none"/><text fill="#000000" stroke="none" font-family="Arial" font-size="13px" font-style="normal" font-weight="normal" text-decoration="undefined" x="294.83951568603516" y="606.5" text-anchor="middle" dominant-baseline="central" transform="matrix(1 0 0 1 -246 -62)">clear</text></g></g><g><path fill="#C0C0C0" stroke="none" paint-order="stroke fill markers" d=" M 369 638 C 369 630.8202976 374.8202976 625 382 625 C 389.1797024 625 395 630.8202976 395 638 C 395 645.1797024 389.1797024 651 382 651 C 374.8202976 651 369 645.1797024 369 638 Z" fill-opacity="0.2"/></g><g><path fill="none" stroke="#000000" paint-order="fill stroke markers" d=" M 362 631 C 362 623.8202976 367.8202976 618 375 618 C 382.1797024 618 388 623.8202976 388 631 C 388 638.1797024 382.1797024 644 375 644 C 367.8202976 644 362 638.1797024 362 631 Z" stroke-miterlimit="10" stroke-dasharray=""/></g><g><path fill="#000000" stroke="none" paint-order="stroke fill markers" d=" M 367 631 C 367 626.5817216 370.58172160000004 623 375 623 C 379.41827839999996 623 383 626.5817216 383 631 C 383 635.4182784 379.41827839999996 639 375 639 C 370.58172160000004 639 367 635.4182784 367 631 Z"/></g><g><path fill="none" stroke="#000000" paint-order="fill stroke markers" d=" M 90 610 L 90 602 L 90 602 A 8 8 0 0 1 98 594 L 354 594 L 354 594 A 8 8 0 0 1 362 602 L 362 618" stroke-miterlimit="10" stroke-dasharray=""/></g><g><path fill="none" stroke="#000000" paint-order="fill stroke markers" d=" M 357.790482243984 607.8373251423759 L 362 618 L 366.209517756016 607.8373251423759" stroke-miterlimit="10" stroke-dasharray=""/></g><g><rect fill="#ffffff" stroke="none" x="379" y="635" width="186.4722137451172" height="13" transform="matrix(1 0 0 1 -246 -62)"/></g><g><g><path fill="none" stroke="none"/><text fill="#000000" stroke="none" font-family="Arial" font-size="13px" font-style="normal" font-weight="normal" text-decoration="undefined" x="472.2361068725586" y="641.5" text-anchor="middle" dominant-baseline="central" transform="matrix(1 0 0 1 -246 -62)">murdered by speeded-up killer</text></g></g><g><path fill="none" stroke="#000000" paint-order="fill stroke markers" d=" M 90 651 L 90 658 L 90 658 A 8 8 0 0 0 98 666 L 354 666 L 354 666 A 8 8 0 0 0 362 658 L 362 644" stroke-miterlimit="10" stroke-dasharray=""/></g><g><path fill="none" stroke="#000000" paint-order="fill stroke markers" d=" M 366.209517756016 654.1626748576241 L 362 644 L 357.790482243984 654.1626748576241" stroke-miterlimit="10" stroke-dasharray=""/></g><g><rect fill="#ffffff" stroke="none" x="404" y="707" width="137.76113891601562" height="13" transform="matrix(1 0 0 1 -246 -62)"/></g><g><g><path fill="none" stroke="none"/><text fill="#000000" stroke="none" font-family="Arial" font-size="13px" font-style="normal" font-weight="normal" text-decoration="undefined" x="472.8805694580078" y="713.5" text-anchor="middle" dominant-baseline="central" transform="matrix(1 0 0 1 -246 -62)">exploded by land mine</text></g></g><g><path fill="#C0C0C0" stroke="none" paint-order="stroke fill markers" d=" M 31 769 L 87.84605407714844 769 Q 97.84605407714844 769 97.84605407714844 779 L 97.84605407714844 800 Q 97.84605407714844 810 87.84605407714844 810 L 31 810 Q 21 810 21 800 L 21 779 Q 21 769 31 769 Z" fill-opacity="0.2"/></g><g><path fill="#ffffff" stroke="none" paint-order="stroke fill markers" d=" M 24 762 L 80.84605407714844 762 Q 90.84605407714844 762 90.84605407714844 772 L 90.84605407714844 793 Q 90.84605407714844 803 80.84605407714844 803 L 24 803 Q 14 803 14 793 L 14 772 Q 14 762 24 762 Z"/></g><g><path fill="none" stroke="#000000" paint-order="fill stroke markers" d=" M 24 762 L 80.84605407714844 762 Q 90.84605407714844 762 90.84605407714844 772 L 90.84605407714844 793 Q 90.84605407714844 803 80.84605407714844 803 L 24 803 Q 14 803 14 793 L 14 772 Q 14 762 24 762 Z" stroke-miterlimit="10" stroke-dasharray=""/></g><g><g><path fill="none" stroke="none"/><text fill="#000000" stroke="none" font-family="Arial" font-size="13px" font-style="normal" font-weight="bold" text-decoration="undefined" x="298.9230270385742" y="837.5" text-anchor="middle" dominant-baseline="central" transform="matrix(1 0 0 1 -246 -62)">game over</text></g></g><g><path fill="none" stroke="#000000" paint-order="fill stroke markers" d=" M 50 651 L 50 762" stroke-miterlimit="10" stroke-dasharray=""/></g><g><path fill="none" stroke="#000000" paint-order="fill stroke markers" d=" M 45.790482243984 751.8373251423759 L 50 762 L 54.209517756016 751.8373251423759" stroke-miterlimit="10" stroke-dasharray=""/></g><g><rect fill="#ffffff" stroke="none" x="263" y="760" width="63.362060546875" height="13" transform="matrix(1 0 0 1 -246 -62)"/></g><g><g><path fill="none" stroke="none"/><text fill="#000000" stroke="none" font-family="Arial" font-size="13px" font-style="normal" font-weight="normal" text-decoration="undefined" x="294.6810302734375" y="766.5" text-anchor="middle" dominant-baseline="central" transform="matrix(1 0 0 1 -246 -62)">game over</text></g></g></g></svg>