<svg version="1.1" xmlns="http://www.w3.org/2000/svg" xmlns:xlink="http://www.w3.org/1999/xlink" width="868" height="516"><defs/><g><g><path fill="none" stroke="#000000" paint-order="fill stroke markers" d=" M 10 10 L 858 10 L 858 506 L 10 506 L 10 10" stroke-miterlimit="10" stroke-dasharray=""/></g><g><path fill="#ffffff" stroke="none" paint-order="stroke fill markers" d=" M 10 10 L 10 33 L 224.71337890625 33 L 236.21337890625 21.5 L 236.21337890625 10 L 10 10"/></g><g><path fill="none" stroke="#000000" paint-order="fill stroke markers" d=" M 10 10 L 10 33 L 224.71337890625 33 L 236.21337890625 21.5 L 236.21337890625 10 L 10 10 L 10 10" stroke-miterlimit="10" stroke-dasharray=""/></g><g><g><path fill="none" stroke="none"/><text fill="#000000" stroke="none" font-family="Arial" font-size="13px" font-style="normal" font-weight="normal" text-decoration="undefined" x="133.2216796875" y="27.5" text-anchor="middle" dominant-baseline="central" transform="matrix(1 0 0 1 -6 -6)">SequenceDiagramForMainKey2</text></g></g><g><g><path fill="none" stroke="none"/><text fill="#000000" stroke="none" font-family="Arial" font-size="13px" font-style="normal" font-weight="bold" text-decoration="undefined" x="27.864990234375" y="27.5" text-anchor="middle" dominant-baseline="central" transform="matrix(1 0 0 1 -6 -6)">sd</text></g></g><g><rect fill="#C0C0C0" stroke="none" x="39" y="47" width="47.93702697753906" height="40" transform="matrix(1 0 0 1 -6 -6)" fill-opacity="0.2"/></g><g><rect fill="#ffffff" stroke="none" x="32" y="40" width="47.93702697753906" height="40" transform="matrix(1 0 0 1 -6 -6)"/></g><g><path fill="none" stroke="#000000" paint-order="fill stroke markers" d=" M 26 34 L 73.93702697753906 34 L 73.93702697753906 74 L 26 74 L 26 34 Z Z" stroke-miterlimit="10" stroke-dasharray=""/></g><g><g><path fill="none" stroke="none"/><text fill="#000000" stroke="none" font-family="Arial" font-size="13px" font-style="normal" font-weight="bold" text-decoration="undefined" x="56.46851348876953" y="53.5" text-anchor="middle" dominant-baseline="central" transform="matrix(1 0 0 1 -6 -6)">user</text></g></g><g><path fill="none" stroke="#000000" paint-order="fill stroke markers" d=" M 50.5 75 L 50.5 380" stroke-miterlimit="10" stroke-dasharray="3"/></g><g><rect fill="#C0C0C0" stroke="none" x="175" y="47" width="56.69903564453125" height="40" transform="matrix(1 0 0 1 -6 -6)" fill-opacity="0.2"/></g><g><rect fill="#ffffff" stroke="none" x="168" y="40" width="56.69903564453125" height="40" transform="matrix(1 0 0 1 -6 -6)"/></g><g><path fill="none" stroke="#000000" paint-order="fill stroke markers" d=" M 162 34 L 218.69903564453125 34 L 218.69903564453125 74 L 162 74 L 162 34 Z Z" stroke-miterlimit="10" stroke-dasharray=""/></g><g><g><path fill="none" stroke="none"/><text fill="#000000" stroke="none" font-family="Arial" font-size="13px" font-style="normal" font-weight="bold" text-decoration="undefined" x="196.84951782226562" y="53.5" text-anchor="middle" dominant-baseline="central" transform="matrix(1 0 0 1 -6 -6)">menu</text></g></g><g><path fill="none" stroke="#000000" paint-order="fill stroke markers" d=" M 190.5 75 L 190.5 124" stroke-miterlimit="10" stroke-dasharray="3"/></g><g><rect fill="#C0C0C0" stroke="none" x="303" y="47" width="45.597015380859375" height="40" transform="matrix(1 0 0 1 -6 -6)" fill-opacity="0.2"/></g><g><rect fill="#ffffff" stroke="none" x="296" y="40" width="45.597015380859375" height="40" transform="matrix(1 0 0 1 -6 -6)"/></g><g><path fill="none" stroke="#000000" paint-order="fill stroke markers" d=" M 290 34 L 335.5970153808594 34 L 335.5970153808594 74 L 290 74 L 290 34 Z Z" stroke-miterlimit="10" stroke-dasharray=""/></g><g><g><path fill="none" stroke="none"/><text fill="#000000" stroke="none" font-family="Arial" font-size="13px" font-style="normal" font-weight="bold" text-decoration="undefined" x="319.2985076904297" y="53.5" text-anchor="middle" dominant-baseline="central" transform="matrix(1 0 0 1 -6 -6)">rule</text></g></g><g><path fill="none" stroke="#000000" paint-order="fill stroke markers" d=" M 313.5 75 L 313.5 124" stroke-miterlimit="10" stroke-dasharray="3"/></g><g><rect fill="#C0C0C0" stroke="none" x="751" y="47" width="69.95906066894531" height="40" transform="matrix(1 0 0 1 -6 -6)" fill-opacity="0.2"/></g><g><rect fill="#ffffff" stroke="none" x="744" y="40" width="69.95906066894531" height="40" transform="matrix(1 0 0 1 -6 -6)"/></g><g><path fill="none" stroke="#000000" paint-order="fill stroke markers" d=" M 738 34 L 807.9590606689453 34 L 807.9590606689453 74 L 738 74 L 738 34 Z Z" stroke-miterlimit="10" stroke-dasharray=""/></g><g><g><path fill="none" stroke="none"/><text fill="#000000" stroke="none" font-family="Arial" font-size="13px" font-style="normal" font-weight="bold" text-decoration="undefined" x="779.4795303344727" y="53.5" text-anchor="middle" dominant-baseline="central" transform="matrix(1 0 0 1 -6 -6)">escaper</text></g></g><g><path fill="none" stroke="#000000" paint-order="fill stroke markers" d=" M 773.5 75 L 773.5 498" stroke-miterlimit="10" stroke-dasharray="3"/></g><g><rect fill="#C0C0C0" stroke="none" x="415" y="47" width="87.080078125" height="40" transform="matrix(1 0 0 1 -6 -6)" fill-opacity="0.2"/></g><g><rect fill="#ffffff" stroke="none" x="408" y="40" width="87.080078125" height="40" transform="matrix(1 0 0 1 -6 -6)"/></g><g><path fill="none" stroke="#000000" paint-order="fill stroke markers" d=" M 402 34 L 489.080078125 34 L 489.080078125 74 L 402 74 L 402 34 Z Z" stroke-miterlimit="10" stroke-dasharray=""/></g><g><g><path fill="none" stroke="none"/><text fill="#000000" stroke="none" font-family="Arial" font-size="13px" font-style="normal" font-weight="bold" text-decoration="undefined" x="452.0400390625" y="53.5" text-anchor="middle" dominant-baseline="central" transform="matrix(1 0 0 1 -6 -6)">landMine1</text></g></g><g><path fill="none" stroke="#000000" paint-order="fill stroke markers" d=" M 446.5 75 L 446.5 498" stroke-miterlimit="10" stroke-dasharray="3"/></g><g><rect fill="#C0C0C0" stroke="none" x="647" y="47" width="75.18505859375" height="40" transform="matrix(1 0 0 1 -6 -6)" fill-opacity="0.2"/></g><g><rect fill="#ffffff" stroke="none" x="640" y="40" width="75.18505859375" height="40" transform="matrix(1 0 0 1 -6 -6)"/></g><g><path fill="none" stroke="#000000" paint-order="fill stroke markers" d=" M 634 34 L 709.18505859375 34 L 709.18505859375 74 L 634 74 L 634 34 Z Z" stroke-miterlimit="10" stroke-dasharray=""/></g><g><g><path fill="none" stroke="none"/><text fill="#000000" stroke="none" font-family="Arial" font-size="13px" font-style="normal" font-weight="bold" text-decoration="undefined" x="678.092529296875" y="53.5" text-anchor="middle" dominant-baseline="central" transform="matrix(1 0 0 1 -6 -6)">Detector</text></g></g><g><path fill="none" stroke="#000000" paint-order="fill stroke markers" d=" M 672.5 75 L 672.5 404" stroke-miterlimit="10" stroke-dasharray="3"/></g><g><rect fill="#C0C0C0" stroke="none" x="527" y="47" width="87.080078125" height="40" transform="matrix(1 0 0 1 -6 -6)" fill-opacity="0.2"/></g><g><rect fill="#ffffff" stroke="none" x="520" y="40" width="87.080078125" height="40" transform="matrix(1 0 0 1 -6 -6)"/></g><g><path fill="none" stroke="#000000" paint-order="fill stroke markers" d=" M 514 34 L 601.080078125 34 L 601.080078125 74 L 514 74 L 514 34 Z Z" stroke-miterlimit="10" stroke-dasharray=""/></g><g><g><path fill="none" stroke="none"/><text fill="#000000" stroke="none" font-family="Arial" font-size="13px" font-style="normal" font-weight="bold" text-decoration="undefined" x="564.0400390625" y="53.5" text-anchor="middle" dominant-baseline="central" transform="matrix(1 0 0 1 -6 -6)">landMine2</text></g></g><g><path fill="none" stroke="#000000" paint-order="fill stroke markers" d=" M 558.5 75 L 558.5 124" stroke-miterlimit="10" stroke-dasharray="3"/></g><g><rect fill="#ffffff" stroke="none" x="24" y="112" width="816" height="56" transform="matrix(1 0 0 1 -6 -6)"/></g><g><path fill="none" stroke="#000000" paint-order="fill stroke markers" d=" M 18 106 L 834 106 L 834 162 L 18 162 L 18 106 Z Z" stroke-miterlimit="10" stroke-dasharray=""/></g><g><path fill="none" stroke="#000000" paint-order="fill stroke markers" d=" M 18 106 L 18 129 L 43.1708984375 129 L 54.6708984375 117.5 L 54.6708984375 106 L 18 106 L 18 106" stroke-miterlimit="10" stroke-dasharray=""/></g><g><g><path fill="none" stroke="none"/><text fill="#000000" stroke="none" font-family="Arial" font-size="13px" font-style="normal" font-weight="normal" text-decoration="undefined" x="450.33544921875" y="123.5" text-anchor="middle" dominant-baseline="central" transform="matrix(1 0 0 1 -6 -6)"></text></g></g><g><g><path fill="none" stroke="none"/><text fill="#000000" stroke="none" font-family="Arial" font-size="13px" font-style="normal" font-weight="bold" text-decoration="undefined" x="36.58544921875" y="123.5" text-anchor="middle" dominant-baseline="central" transform="matrix(1 0 0 1 -6 -6)">ref</text></g></g><g><path fill="none" stroke="#000000" paint-order="fill stroke markers" d=" M 673 196 L 766 196" stroke-miterlimit="10" stroke-dasharray=""/></g><g><path fill="#000000" stroke="none" paint-order="stroke fill markers" d=" M 755.8373251423759 200.209517756016 L 766 196 L 755.8373251423758 191.790482243984"/></g><g><path fill="none" stroke="#000000" paint-order="fill stroke markers" d=" M 755.8373251423759 200.209517756016 L 766 196 L 755.8373251423758 191.790482243984 L 755.8373251423759 200.209517756016" stroke-miterlimit="10" stroke-dasharray=""/></g><g><rect fill="#ffffff" stroke="none" x="655" y="185" width="138.85308837890625" height="13" transform="matrix(1 0 0 1 -6 -6)"/></g><g><g><path fill="none" stroke="none"/><text fill="#000000" stroke="none" font-family="Arial" font-size="13px" font-style="normal" font-weight="normal" text-decoration="undefined" x="724.4265441894531" y="191.5" text-anchor="middle" dominant-baseline="central" transform="matrix(1 0 0 1 -6 -6)">1 : get escaper position</text></g></g><g><rect fill="#ffffff" stroke="none" x="772" y="202" width="14" height="86" transform="matrix(1 0 0 1 -6 -6)"/></g><g><path fill="none" stroke="#000000" paint-order="fill stroke markers" d=" M 766 196 L 780 196 L 780 282 L 766 282 L 766 196 Z Z" stroke-miterlimit="10" stroke-dasharray=""/></g><g><path fill="none" stroke="#000000" paint-order="fill stroke markers" d=" M 766 266 L 673 266" stroke-miterlimit="10" stroke-dasharray="3"/></g><g><path fill="none" stroke="#000000" paint-order="fill stroke markers" d=" M 683.1626748576241 261.790482243984 L 673 266 L 683.1626748576241 270.209517756016" stroke-miterlimit="10" stroke-dasharray=""/></g><g><rect fill="#ffffff" stroke="none" x="670" y="280" width="107.17207336425781" height="13" transform="matrix(1 0 0 1 -6 -6)"/></g><g><g><path fill="none" stroke="none"/><text fill="#000000" stroke="none" font-family="Arial" font-size="13px" font-style="normal" font-weight="normal" text-decoration="undefined" x="723.5860366821289" y="286.5" text-anchor="middle" dominant-baseline="central" transform="matrix(1 0 0 1 -6 -6)">2 : return position</text></g></g><g><path fill="none" stroke="#000000" paint-order="fill stroke markers" d=" M 672 338 L 57 338" stroke-miterlimit="10" stroke-dasharray=""/></g><g><path fill="none" stroke="#000000" paint-order="fill stroke markers" d=" M 67.16267485762415 333.790482243984 L 57 338 L 67.16267485762415 342.209517756016" stroke-miterlimit="10" stroke-dasharray=""/></g><g><rect fill="#ffffff" stroke="none" x="316" y="348" width="107.2890625" height="13" transform="matrix(1 0 0 1 -6 -6)"/></g><g><g><path fill="none" stroke="none"/><text fill="#000000" stroke="none" font-family="Arial" font-size="13px" font-style="normal" font-weight="normal" text-decoration="undefined" x="369.64453125" y="354.5" text-anchor="middle" dominant-baseline="central" transform="matrix(1 0 0 1 -6 -6)">3 : show warnings</text></g></g><g><rect fill="#ffffff" stroke="none" x="49" y="344" width="14" height="28" transform="matrix(1 0 0 1 -6 -6)"/></g><g><path fill="none" stroke="#000000" paint-order="fill stroke markers" d=" M 43 338 L 57 338 L 57 366 L 43 366 L 43 338 Z Z" stroke-miterlimit="10" stroke-dasharray=""/></g><g><path fill="none" stroke="#000000" paint-order="fill stroke markers" d=" M 447 450 L 766 450" stroke-miterlimit="10" stroke-dasharray=""/></g><g><path fill="none" stroke="#000000" paint-order="fill stroke markers" d=" M 755.8373251423759 454.209517756016 L 766 450 L 755.8373251423758 445.790482243984" stroke-miterlimit="10" stroke-dasharray=""/></g><g><rect fill="#ffffff" stroke="none" x="471" y="458" width="145.1321258544922" height="13" transform="matrix(1 0 0 1 -6 -6)"/></g><g><g><path fill="none" stroke="none"/><text fill="#000000" stroke="none" font-family="Arial" font-size="13px" font-style="normal" font-weight="normal" text-decoration="undefined" x="543.5660629272461" y="464.5" text-anchor="middle" dominant-baseline="central" transform="matrix(1 0 0 1 -6 -6)">4 : explode with escaper</text></g></g><g><rect fill="#ffffff" stroke="none" x="772" y="456" width="14" height="28" transform="matrix(1 0 0 1 -6 -6)"/></g><g><path fill="none" stroke="#000000" paint-order="fill stroke markers" d=" M 766 450 L 780 450 L 780 478 L 766 478 L 766 450 Z Z" stroke-miterlimit="10" stroke-dasharray=""/></g><g><path fill="none" stroke="#000000" paint-order="fill stroke markers" d=" M 410 402 L 834 402 L 834 492 L 410 492 L 410 402" stroke-miterlimit="10" stroke-dasharray=""/></g><g><path fill="#ffffff" stroke="none" paint-order="stroke fill markers" d=" M 410 402 L 410 425 L 518.498046875 425 L 529.998046875 413.5 L 529.998046875 402 L 410 402"/></g><g><path fill="none" stroke="#000000" paint-order="fill stroke markers" d=" M 410 402 L 410 425 L 518.498046875 425 L 529.998046875 413.5 L 529.998046875 402 L 410 402 L 410 402" stroke-miterlimit="10" stroke-dasharray=""/></g><g><g><path fill="none" stroke="none"/><text fill="#000000" stroke="none" font-family="Arial" font-size="13px" font-style="normal" font-weight="normal" text-decoration="undefined" x="480.114013671875" y="419.5" text-anchor="middle" dominant-baseline="central" transform="matrix(1 0 0 1 -6 -6)">mazeExplode</text></g></g><g><g><path fill="none" stroke="none"/><text fill="#000000" stroke="none" font-family="Arial" font-size="13px" font-style="normal" font-weight="bold" text-decoration="undefined" x="427.864990234375" y="419.5" text-anchor="middle" dominant-baseline="central" transform="matrix(1 0 0 1 -6 -6)">alt</text></g></g><g><path fill="none" stroke="#000000" paint-order="fill stroke markers" d=" M 18 298 L 682 298 L 682 388 L 18 388 L 18 298" stroke-miterlimit="10" stroke-dasharray=""/></g><g><path fill="#ffffff" stroke="none" paint-order="stroke fill markers" d=" M 18 298 L 18 321 L 142.62744140625 321 L 154.12744140625 309.5 L 154.12744140625 298 L 18 298"/></g><g><path fill="none" stroke="#000000" paint-order="fill stroke markers" d=" M 18 298 L 18 321 L 142.62744140625 321 L 154.12744140625 309.5 L 154.12744140625 298 L 18 298 L 18 298" stroke-miterlimit="10" stroke-dasharray=""/></g><g><g><path fill="none" stroke="none"/><text fill="#000000" stroke="none" font-family="Arial" font-size="13px" font-style="normal" font-weight="normal" text-decoration="undefined" x="96.1787109375" y="315.5" text-anchor="middle" dominant-baseline="central" transform="matrix(1 0 0 1 -6 -6)">detectorWarning</text></g></g><g><g><path fill="none" stroke="none"/><text fill="#000000" stroke="none" font-family="Arial" font-size="13px" font-style="normal" font-weight="bold" text-decoration="undefined" x="35.864990234375" y="315.5" text-anchor="middle" dominant-baseline="central" transform="matrix(1 0 0 1 -6 -6)">alt</text></g></g></g></svg>