<svg version="1.1" xmlns="http://www.w3.org/2000/svg" xmlns:xlink="http://www.w3.org/1999/xlink" width="1396" height="1004"><defs/><g><g><path fill="none" stroke="#000000" paint-order="fill stroke markers" d=" M 10 10 L 1386 10 L 1386 994 L 10 994 L 10 10" stroke-miterlimit="10" stroke-dasharray=""/></g><g><path fill="#ffffff" stroke="none" paint-order="stroke fill markers" d=" M 10 10 L 10 33 L 224.71337890625 33 L 236.21337890625 21.5 L 236.21337890625 10 L 10 10"/></g><g><path fill="none" stroke="#000000" paint-order="fill stroke markers" d=" M 10 10 L 10 33 L 224.71337890625 33 L 236.21337890625 21.5 L 236.21337890625 10 L 10 10 L 10 10" stroke-miterlimit="10" stroke-dasharray=""/></g><g><g><path fill="none" stroke="none"/><text fill="#000000" stroke="none" font-family="Arial" font-size="13px" font-style="normal" font-weight="normal" text-decoration="undefined" x="125.2216796875" y="11.5" text-anchor="middle" dominant-baseline="central" transform="matrix(1 0 0 1 2 10)">SequenceDiagramForMainKey1</text></g></g><g><g><path fill="none" stroke="none"/><text fill="#000000" stroke="none" font-family="Arial" font-size="13px" font-style="normal" font-weight="bold" text-decoration="undefined" x="19.864990234375" y="11.5" text-anchor="middle" dominant-baseline="central" transform="matrix(1 0 0 1 2 10)">sd</text></g></g><g><rect fill="#C0C0C0" stroke="none" x="39" y="47" width="72.736328125" height="40" transform="matrix(1 0 0 1 2 10)" fill-opacity="0.2"/></g><g><rect fill="#ffffff" stroke="none" x="32" y="40" width="72.736328125" height="40" transform="matrix(1 0 0 1 2 10)"/></g><g><path fill="none" stroke="#000000" paint-order="fill stroke markers" d=" M 34 50 L 106.736328125 50 L 106.736328125 90 L 34 90 L 34 50 Z Z" stroke-miterlimit="10" stroke-dasharray=""/></g><g><g><path fill="none" stroke="none"/><text fill="#000000" stroke="none" font-family="Arial" font-size="13px" font-style="normal" font-weight="bold" text-decoration="undefined" x="68.8681640625" y="53.5" text-anchor="middle" dominant-baseline="central" transform="matrix(1 0 0 1 2 10)">user</text></g></g><g><path fill="none" stroke="#000000" paint-order="fill stroke markers" d=" M 70.5 91 L 70.5 946" stroke-miterlimit="10" stroke-dasharray="3"/></g><g><rect fill="#C0C0C0" stroke="none" x="175" y="47" width="72.736328125" height="40" transform="matrix(1 0 0 1 2 10)" fill-opacity="0.2"/></g><g><rect fill="#ffffff" stroke="none" x="168" y="40" width="72.736328125" height="40" transform="matrix(1 0 0 1 2 10)"/></g><g><path fill="none" stroke="#000000" paint-order="fill stroke markers" d=" M 170 50 L 242.736328125 50 L 242.736328125 90 L 170 90 L 170 50 Z Z" stroke-miterlimit="10" stroke-dasharray=""/></g><g><g><path fill="none" stroke="none"/><text fill="#000000" stroke="none" font-family="Arial" font-size="13px" font-style="normal" font-weight="bold" text-decoration="undefined" x="204.8681640625" y="53.5" text-anchor="middle" dominant-baseline="central" transform="matrix(1 0 0 1 2 10)">menu</text></g></g><g><path fill="none" stroke="#000000" paint-order="fill stroke markers" d=" M 206.5 91 L 206.5 946" stroke-miterlimit="10" stroke-dasharray="3"/></g><g><rect fill="#C0C0C0" stroke="none" x="303" y="47" width="72.736328125" height="40" transform="matrix(1 0 0 1 2 10)" fill-opacity="0.2"/></g><g><rect fill="#ffffff" stroke="none" x="296" y="40" width="72.736328125" height="40" transform="matrix(1 0 0 1 2 10)"/></g><g><path fill="none" stroke="#000000" paint-order="fill stroke markers" d=" M 298 50 L 370.736328125 50 L 370.736328125 90 L 298 90 L 298 50 Z Z" stroke-miterlimit="10" stroke-dasharray=""/></g><g><g><path fill="none" stroke="none"/><text fill="#000000" stroke="none" font-family="Arial" font-size="13px" font-style="normal" font-weight="bold" text-decoration="undefined" x="332.8681640625" y="53.5" text-anchor="middle" dominant-baseline="central" transform="matrix(1 0 0 1 2 10)">rule</text></g></g><g><path fill="none" stroke="#000000" paint-order="fill stroke markers" d=" M 334.5 91 L 334.5 946" stroke-miterlimit="10" stroke-dasharray="3"/></g><g><rect fill="#C0C0C0" stroke="none" x="1287" y="47" width="72.736328125" height="40" transform="matrix(1 0 0 1 2 10)" fill-opacity="0.2"/></g><g><rect fill="#ffffff" stroke="none" x="1280" y="40" width="72.736328125" height="40" transform="matrix(1 0 0 1 2 10)"/></g><g><path fill="none" stroke="#000000" paint-order="fill stroke markers" d=" M 1282 50 L 1354.736328125 50 L 1354.736328125 90 L 1282 90 L 1282 50 Z Z" stroke-miterlimit="10" stroke-dasharray=""/></g><g><g><path fill="none" stroke="none"/><text fill="#000000" stroke="none" font-family="Arial" font-size="13px" font-style="normal" font-weight="bold" text-decoration="undefined" x="1316.8681640625" y="53.5" text-anchor="middle" dominant-baseline="central" transform="matrix(1 0 0 1 2 10)">system</text></g></g><g><path fill="none" stroke="#000000" paint-order="fill stroke markers" d=" M 1318.5 91 L 1318.5 946" stroke-miterlimit="10" stroke-dasharray="3"/></g><g><rect fill="#C0C0C0" stroke="none" x="951" y="47" width="99.47900390625" height="40" transform="matrix(1 0 0 1 2 10)" fill-opacity="0.2"/></g><g><rect fill="#ffffff" stroke="none" x="944" y="40" width="99.47900390625" height="40" transform="matrix(1 0 0 1 2 10)"/></g><g><path fill="none" stroke="#000000" paint-order="fill stroke markers" d=" M 946 50 L 1045.47900390625 50 L 1045.47900390625 90 L 946 90 L 946 50 Z Z" stroke-miterlimit="10" stroke-dasharray=""/></g><g><g><path fill="none" stroke="none"/><text fill="#000000" stroke="none" font-family="Arial" font-size="13px" font-style="normal" font-weight="bold" text-decoration="undefined" x="994.239501953125" y="53.5" text-anchor="middle" dominant-baseline="central" transform="matrix(1 0 0 1 2 10)">maze1</text></g></g><g><path fill="none" stroke="#000000" paint-order="fill stroke markers" d=" M 996.5 91 L 996.5 946" stroke-miterlimit="10" stroke-dasharray="3"/></g><g><rect fill="#C0C0C0" stroke="none" x="1183" y="47" width="72.736328125" height="40" transform="matrix(1 0 0 1 2 10)" fill-opacity="0.2"/></g><g><rect fill="#ffffff" stroke="none" x="1176" y="40" width="72.736328125" height="40" transform="matrix(1 0 0 1 2 10)"/></g><g><path fill="none" stroke="#000000" paint-order="fill stroke markers" d=" M 1178 50 L 1250.736328125 50 L 1250.736328125 90 L 1178 90 L 1178 50 Z Z" stroke-miterlimit="10" stroke-dasharray=""/></g><g><g><path fill="none" stroke="none"/><text fill="#000000" stroke="none" font-family="Arial" font-size="13px" font-style="normal" font-weight="bold" text-decoration="undefined" x="1212.8681640625" y="53.5" text-anchor="middle" dominant-baseline="central" transform="matrix(1 0 0 1 2 10)">stage</text></g></g><g><path fill="none" stroke="#000000" paint-order="fill stroke markers" d=" M 1214.5 91 L 1214.5 946" stroke-miterlimit="10" stroke-dasharray="3"/></g><g><rect fill="#C0C0C0" stroke="none" x="751" y="47" width="72.736328125" height="40" transform="matrix(1 0 0 1 2 10)" fill-opacity="0.2"/></g><g><rect fill="#ffffff" stroke="none" x="744" y="40" width="72.736328125" height="40" transform="matrix(1 0 0 1 2 10)"/></g><g><path fill="none" stroke="#000000" paint-order="fill stroke markers" d=" M 746 50 L 818.736328125 50 L 818.736328125 90 L 746 90 L 746 50 Z Z" stroke-miterlimit="10" stroke-dasharray=""/></g><g><g><path fill="none" stroke="none"/><text fill="#000000" stroke="none" font-family="Arial" font-size="13px" font-style="normal" font-weight="bold" text-decoration="undefined" x="780.8681640625" y="53.5" text-anchor="middle" dominant-baseline="central" transform="matrix(1 0 0 1 2 10)">escaper</text></g></g><g><path fill="none" stroke="#000000" paint-order="fill stroke markers" d=" M 782.5 91 L 782.5 946" stroke-miterlimit="10" stroke-dasharray="3"/></g><g><rect fill="#C0C0C0" stroke="none" x="855" y="47" width="72.736328125" height="40" transform="matrix(1 0 0 1 2 10)" fill-opacity="0.2"/></g><g><rect fill="#ffffff" stroke="none" x="848" y="40" width="72.736328125" height="40" transform="matrix(1 0 0 1 2 10)"/></g><g><path fill="none" stroke="#000000" paint-order="fill stroke markers" d=" M 850 50 L 922.736328125 50 L 922.736328125 90 L 850 90 L 850 50 Z Z" stroke-miterlimit="10" stroke-dasharray=""/></g><g><g><path fill="none" stroke="none"/><text fill="#000000" stroke="none" font-family="Arial" font-size="13px" font-style="normal" font-weight="bold" text-decoration="undefined" x="884.8681640625" y="53.5" text-anchor="middle" dominant-baseline="central" transform="matrix(1 0 0 1 2 10)">killer</text></g></g><g><path fill="none" stroke="#000000" paint-order="fill stroke markers" d=" M 886.5 91 L 886.5 946" stroke-miterlimit="10" stroke-dasharray="3"/></g><g><rect fill="#C0C0C0" stroke="none" x="415" y="47" width="87.89453125" height="40" transform="matrix(1 0 0 1 2 10)" fill-opacity="0.2"/></g><g><rect fill="#ffffff" stroke="none" x="408" y="40" width="87.89453125" height="40" transform="matrix(1 0 0 1 2 10)"/></g><g><path fill="none" stroke="#000000" paint-order="fill stroke markers" d=" M 410 50 L 497.89453125 50 L 497.89453125 90 L 410 90 L 410 50 Z Z" stroke-miterlimit="10" stroke-dasharray=""/></g><g><g><path fill="none" stroke="none"/><text fill="#000000" stroke="none" font-family="Arial" font-size="13px" font-style="normal" font-weight="bold" text-decoration="undefined" x="452.447265625" y="53.5" text-anchor="middle" dominant-baseline="central" transform="matrix(1 0 0 1 2 10)">landMine1</text></g></g><g><path fill="none" stroke="#000000" paint-order="fill stroke markers" d=" M 454.5 91 L 454.5 946" stroke-miterlimit="10" stroke-dasharray="3"/></g><g><rect fill="#C0C0C0" stroke="none" x="1071" y="47" width="99.47900390625" height="40" transform="matrix(1 0 0 1 2 10)" fill-opacity="0.2"/></g><g><rect fill="#ffffff" stroke="none" x="1064" y="40" width="99.47900390625" height="40" transform="matrix(1 0 0 1 2 10)"/></g><g><path fill="none" stroke="#000000" paint-order="fill stroke markers" d=" M 1066 50 L 1165.47900390625 50 L 1165.47900390625 90 L 1066 90 L 1066 50 Z Z" stroke-miterlimit="10" stroke-dasharray=""/></g><g><g><path fill="none" stroke="none"/><text fill="#000000" stroke="none" font-family="Arial" font-size="13px" font-style="normal" font-weight="bold" text-decoration="undefined" x="1114.239501953125" y="53.5" text-anchor="middle" dominant-baseline="central" transform="matrix(1 0 0 1 2 10)">maze2</text></g></g><g><path fill="none" stroke="#000000" paint-order="fill stroke markers" d=" M 1116.5 91 L 1116.5 946" stroke-miterlimit="10" stroke-dasharray="3"/></g><g><rect fill="#C0C0C0" stroke="none" x="647" y="47" width="75.18505859375" height="40" transform="matrix(1 0 0 1 2 10)" fill-opacity="0.2"/></g><g><rect fill="#ffffff" stroke="none" x="640" y="40" width="75.18505859375" height="40" transform="matrix(1 0 0 1 2 10)"/></g><g><path fill="none" stroke="#000000" paint-order="fill stroke markers" d=" M 642 50 L 717.18505859375 50 L 717.18505859375 90 L 642 90 L 642 50 Z Z" stroke-miterlimit="10" stroke-dasharray=""/></g><g><g><path fill="none" stroke="none"/><text fill="#000000" stroke="none" font-family="Arial" font-size="13px" font-style="normal" font-weight="bold" text-decoration="undefined" x="678.092529296875" y="53.5" text-anchor="middle" dominant-baseline="central" transform="matrix(1 0 0 1 2 10)">Detector</text></g></g><g><path fill="none" stroke="#000000" paint-order="fill stroke markers" d=" M 680.5 91 L 680.5 946" stroke-miterlimit="10" stroke-dasharray="3"/></g><g><rect fill="#C0C0C0" stroke="none" x="527" y="47" width="87.080078125" height="40" transform="matrix(1 0 0 1 2 10)" fill-opacity="0.2"/></g><g><rect fill="#ffffff" stroke="none" x="520" y="40" width="87.080078125" height="40" transform="matrix(1 0 0 1 2 10)"/></g><g><path fill="none" stroke="#000000" paint-order="fill stroke markers" d=" M 522 50 L 609.080078125 50 L 609.080078125 90 L 522 90 L 522 50 Z Z" stroke-miterlimit="10" stroke-dasharray=""/></g><g><g><path fill="none" stroke="none"/><text fill="#000000" stroke="none" font-family="Arial" font-size="13px" font-style="normal" font-weight="bold" text-decoration="undefined" x="564.0400390625" y="53.5" text-anchor="middle" dominant-baseline="central" transform="matrix(1 0 0 1 2 10)">landMine2</text></g></g><g><path fill="none" stroke="#000000" paint-order="fill stroke markers" d=" M 566.5 91 L 566.5 946" stroke-miterlimit="10" stroke-dasharray="3"/></g><g><path fill="none" stroke="#000000" paint-order="fill stroke markers" d=" M 207 130 L 237 130 L 237 150 L 213 150" stroke-miterlimit="10" stroke-dasharray=""/></g><g><path fill="#000000" stroke="none" paint-order="stroke fill markers" d=" M 223.16267485762415 145.790482243984 L 213 150 L 223.16267485762415 154.209517756016"/></g><g><path fill="none" stroke="#000000" paint-order="fill stroke markers" d=" M 223.16267485762415 145.790482243984 L 213 150 L 223.16267485762415 154.209517756016 L 223.16267485762415 145.790482243984" stroke-miterlimit="10" stroke-dasharray=""/></g><g><rect fill="#ffffff" stroke="none" x="216" y="112" width="104.70208740234375" height="13" transform="matrix(1 0 0 1 2 10)"/></g><g><g><path fill="none" stroke="none"/><text fill="#000000" stroke="none" font-family="Arial" font-size="13px" font-style="normal" font-weight="normal" text-decoration="undefined" x="268.3510437011719" y="118.5" text-anchor="middle" dominant-baseline="central" transform="matrix(1 0 0 1 2 10)">1 : WaitingForKey</text></g></g><g><rect fill="#ffffff" stroke="none" x="197" y="140" width="14" height="104" transform="matrix(1 0 0 1 2 10)"/></g><g><path fill="none" stroke="#000000" paint-order="fill stroke markers" d=" M 199 150 L 213 150 L 213 254 L 199 254 L 199 150 Z Z" stroke-miterlimit="10" stroke-dasharray=""/></g><g><path fill="none" stroke="#000000" paint-order="fill stroke markers" d=" M 335 202 L 1311 202" stroke-miterlimit="10" stroke-dasharray=""/></g><g><path fill="none" stroke="#000000" paint-order="fill stroke markers" d=" M 1300.837325142376 206.209517756016 L 1311 202 L 1300.837325142376 197.790482243984" stroke-miterlimit="10" stroke-dasharray=""/></g><g><rect fill="#ffffff" stroke="none" x="748" y="176" width="146.05511474609375" height="13" transform="matrix(1 0 0 1 2 10)"/></g><g><g><path fill="none" stroke="none"/><text fill="#000000" stroke="none" font-family="Arial" font-size="13px" font-style="normal" font-weight="normal" text-decoration="undefined" x="821.0275573730469" y="182.5" text-anchor="middle" dominant-baseline="central" transform="matrix(1 0 0 1 2 10)">2 : request loading stage</text></g></g><g><rect fill="#ffffff" stroke="none" x="1309" y="192" width="14" height="28" transform="matrix(1 0 0 1 2 10)"/></g><g><path fill="none" stroke="#000000" paint-order="fill stroke markers" d=" M 1311 202 L 1325 202 L 1325 230 L 1311 230 L 1311 202 Z Z" stroke-miterlimit="10" stroke-dasharray=""/></g><g><path fill="none" stroke="#000000" paint-order="fill stroke markers" d=" M 71 207 L 206 207" stroke-miterlimit="10" stroke-dasharray=""/></g><g><path fill="none" stroke="#000000" paint-order="fill stroke markers" d=" M 195.83732514237585 211.209517756016 L 206 207 L 195.83732514237585 202.790482243984" stroke-miterlimit="10" stroke-dasharray=""/></g><g><rect fill="#ffffff" stroke="none" x="97" y="181" width="78.04443359375" height="13" transform="matrix(1 0 0 1 2 10)"/></g><g><g><path fill="none" stroke="none"/><text fill="#000000" stroke="none" font-family="Arial" font-size="13px" font-style="normal" font-weight="normal" text-decoration="undefined" x="136.022216796875" y="187.5" text-anchor="middle" dominant-baseline="central" transform="matrix(1 0 0 1 2 10)">3 : press 2</text></g></g><g><rect fill="#ffffff" stroke="none" x="204" y="197" width="14" height="28" transform="matrix(1 0 0 1 2 10)"/></g><g><path fill="none" stroke="#000000" paint-order="fill stroke markers" d=" M 206 207 L 220 207 L 220 235 L 206 235 L 206 207 Z Z" stroke-miterlimit="10" stroke-dasharray=""/></g><g><path fill="none" stroke="#000000" paint-order="fill stroke markers" d=" M 220 222 L 327 222" stroke-miterlimit="10" stroke-dasharray=""/></g><g><path fill="none" stroke="#000000" paint-order="fill stroke markers" d=" M 316.83732514237585 226.209517756016 L 327 222 L 316.83732514237585 217.790482243984" stroke-miterlimit="10" stroke-dasharray=""/></g><g><rect fill="#ffffff" stroke="none" x="231" y="196" width="81.70506286621094" height="13" transform="matrix(1 0 0 1 2 10)"/></g><g><g><path fill="none" stroke="none"/><text fill="#000000" stroke="none" font-family="Arial" font-size="13px" font-style="normal" font-weight="normal" text-decoration="undefined" x="271.85253143310547" y="202.5" text-anchor="middle" dominant-baseline="central" transform="matrix(1 0 0 1 2 10)">4 : show rules</text></g></g><g><rect fill="#ffffff" stroke="none" x="325" y="212" width="14" height="28" transform="matrix(1 0 0 1 2 10)"/></g><g><path fill="none" stroke="#000000" paint-order="fill stroke markers" d=" M 327 222 L 341 222 L 341 250 L 327 250 L 327 222 Z Z" stroke-miterlimit="10" stroke-dasharray=""/></g><g><path fill="none" stroke="#000000" paint-order="fill stroke markers" d=" M 71 283 L 199 283" stroke-miterlimit="10" stroke-dasharray=""/></g><g><path fill="none" stroke="#000000" paint-order="fill stroke markers" d=" M 188.83732514237585 287.209517756016 L 199 283 L 188.83732514237585 278.790482243984" stroke-miterlimit="10" stroke-dasharray=""/></g><g><rect fill="#ffffff" stroke="none" x="94" y="257" width="78.04443359375" height="13" transform="matrix(1 0 0 1 2 10)"/></g><g><g><path fill="none" stroke="none"/><text fill="#000000" stroke="none" font-family="Arial" font-size="13px" font-style="normal" font-weight="normal" text-decoration="undefined" x="133.022216796875" y="263.5" text-anchor="middle" dominant-baseline="central" transform="matrix(1 0 0 1 2 10)">5 : press 1</text></g></g><g><rect fill="#ffffff" stroke="none" x="197" y="273" width="14" height="28" transform="matrix(1 0 0 1 2 10)"/></g><g><path fill="none" stroke="#000000" paint-order="fill stroke markers" d=" M 199 283 L 213 283 L 213 311 L 199 311 L 199 283 Z Z" stroke-miterlimit="10" stroke-dasharray=""/></g><g><path fill="none" stroke="#000000" paint-order="fill stroke markers" d=" M 207 314 L 1311 314" stroke-miterlimit="10" stroke-dasharray=""/></g><g><path fill="none" stroke="#000000" paint-order="fill stroke markers" d=" M 1300.837325142376 318.209517756016 L 1311 314 L 1300.837325142376 309.790482243984" stroke-miterlimit="10" stroke-dasharray=""/></g><g><rect fill="#ffffff" stroke="none" x="684" y="288" width="146.05511474609375" height="13" transform="matrix(1 0 0 1 2 10)"/></g><g><g><path fill="none" stroke="none"/><text fill="#000000" stroke="none" font-family="Arial" font-size="13px" font-style="normal" font-weight="normal" text-decoration="undefined" x="757.0275573730469" y="294.5" text-anchor="middle" dominant-baseline="central" transform="matrix(1 0 0 1 2 10)">6 : request loading stage</text></g></g><g><rect fill="#ffffff" stroke="none" x="1309" y="304" width="14" height="28" transform="matrix(1 0 0 1 2 10)"/></g><g><path fill="none" stroke="#000000" paint-order="fill stroke markers" d=" M 1311 314 L 1325 314 L 1325 342 L 1311 342 L 1311 314 Z Z" stroke-miterlimit="10" stroke-dasharray=""/></g><g><path fill="none" stroke="#000000" paint-order="fill stroke markers" d=" M 1318 393 L 1221 393" stroke-miterlimit="10" stroke-dasharray=""/></g><g><path fill="none" stroke="#000000" paint-order="fill stroke markers" d=" M 1231.162674857624 388.790482243984 L 1221 393 L 1231.162674857624 397.209517756016" stroke-miterlimit="10" stroke-dasharray=""/></g><g><rect fill="#ffffff" stroke="none" x="1222" y="387" width="88.89892578125" height="13" transform="matrix(1 0 0 1 2 10)"/></g><g><g><path fill="none" stroke="none"/><text fill="#000000" stroke="none" font-family="Arial" font-size="13px" font-style="normal" font-weight="normal" text-decoration="undefined" x="1266.449462890625" y="393.5" text-anchor="middle" dominant-baseline="central" transform="matrix(1 0 0 1 2 10)">7 : load stage 1</text></g></g><g><rect fill="#ffffff" stroke="none" x="1205" y="383" width="14" height="50" transform="matrix(1 0 0 1 2 10)"/></g><g><path fill="none" stroke="#000000" paint-order="fill stroke markers" d=" M 1207 393 L 1221 393 L 1221 443 L 1207 443 L 1207 393 Z Z" stroke-miterlimit="10" stroke-dasharray=""/></g><g><path fill="none" stroke="#000000" paint-order="fill stroke markers" d=" M 1214 444 L 1003 444" stroke-miterlimit="10" stroke-dasharray=""/></g><g><path fill="none" stroke="#000000" paint-order="fill stroke markers" d=" M 1013.1626748576241 439.790482243984 L 1003 444 L 1013.1626748576241 448.209517756016" stroke-miterlimit="10" stroke-dasharray=""/></g><g><rect fill="#ffffff" stroke="none" x="1057" y="438" width="96.09716796875" height="13" transform="matrix(1 0 0 1 2 10)"/></g><g><g><path fill="none" stroke="none"/><text fill="#000000" stroke="none" font-family="Arial" font-size="13px" font-style="normal" font-weight="normal" text-decoration="undefined" x="1105.048583984375" y="444.5" text-anchor="middle" dominant-baseline="central" transform="matrix(1 0 0 1 2 10)">8 : make maze 1</text></g></g><g><rect fill="#ffffff" stroke="none" x="987" y="434" width="14" height="28" transform="matrix(1 0 0 1 2 10)"/></g><g><path fill="none" stroke="#000000" paint-order="fill stroke markers" d=" M 989 444 L 1003 444 L 1003 472 L 989 472 L 989 444 Z Z" stroke-miterlimit="10" stroke-dasharray=""/></g><g><path fill="none" stroke="#000000" paint-order="fill stroke markers" d=" M 1318 499 L 1221 499" stroke-miterlimit="10" stroke-dasharray=""/></g><g><path fill="none" stroke="#000000" paint-order="fill stroke markers" d=" M 1231.162674857624 494.790482243984 L 1221 499 L 1231.162674857624 503.209517756016" stroke-miterlimit="10" stroke-dasharray=""/></g><g><rect fill="#ffffff" stroke="none" x="1218" y="493" width="96.1162109375" height="13" transform="matrix(1 0 0 1 2 10)"/></g><g><g><path fill="none" stroke="none"/><text fill="#000000" stroke="none" font-family="Arial" font-size="13px" font-style="normal" font-weight="normal" text-decoration="undefined" x="1266.05810546875" y="499.5" text-anchor="middle" dominant-baseline="central" transform="matrix(1 0 0 1 2 10)">9 : load maze 1</text></g></g><g><rect fill="#ffffff" stroke="none" x="1205" y="489" width="14" height="28" transform="matrix(1 0 0 1 2 10)"/></g><g><path fill="none" stroke="#000000" paint-order="fill stroke markers" d=" M 1207 499 L 1221 499 L 1221 527 L 1207 527 L 1207 499 Z Z" stroke-miterlimit="10" stroke-dasharray=""/></g><g><path fill="none" stroke="#000000" paint-order="fill stroke markers" d=" M 1207 522 L 1003 522" stroke-miterlimit="10" stroke-dasharray=""/></g><g><path fill="#000000" stroke="none" paint-order="stroke fill markers" d=" M 1013.1626748576241 517.790482243984 L 1003 522 L 1013.1626748576241 526.209517756016"/></g><g><path fill="none" stroke="#000000" paint-order="fill stroke markers" d=" M 1013.1626748576241 517.790482243984 L 1003 522 L 1013.1626748576241 526.209517756016 L 1013.1626748576241 517.790482243984" stroke-miterlimit="10" stroke-dasharray=""/></g><g><rect fill="#ffffff" stroke="none" x="1054" y="516" width="96.23908996582031" height="13" transform="matrix(1 0 0 1 2 10)"/></g><g><g><path fill="none" stroke="none"/><text fill="#000000" stroke="none" font-family="Arial" font-size="13px" font-style="normal" font-weight="normal" text-decoration="undefined" x="1102.1195449829102" y="522.5" text-anchor="middle" dominant-baseline="central" transform="matrix(1 0 0 1 2 10)">10 : load maze 1</text></g></g><g><rect fill="#ffffff" stroke="none" x="987" y="512" width="14" height="91" transform="matrix(1 0 0 1 2 10)"/></g><g><path fill="none" stroke="#000000" paint-order="fill stroke markers" d=" M 989 522 L 1003 522 L 1003 613 L 989 613 L 989 522 Z Z" stroke-miterlimit="10" stroke-dasharray=""/></g><g><path fill="none" stroke="#000000" paint-order="fill stroke markers" d=" M 1003 554 L 1033 554 L 1033 574 L 1010 574" stroke-miterlimit="10" stroke-dasharray=""/></g><g><path fill="#000000" stroke="none" paint-order="stroke fill markers" d=" M 1020.1626748576241 569.790482243984 L 1010 574 L 1020.1626748576241 578.209517756016"/></g><g><path fill="none" stroke="#000000" paint-order="fill stroke markers" d=" M 1020.1626748576241 569.790482243984 L 1010 574 L 1020.1626748576241 578.209517756016 L 1020.1626748576241 569.790482243984" stroke-miterlimit="10" stroke-dasharray=""/></g><g><rect fill="#ffffff" stroke="none" x="990" y="547" width="101.88623046875" height="13" transform="matrix(1 0 0 1 2 10)"/></g><g><g><path fill="none" stroke="none"/><text fill="#000000" stroke="none" font-family="Arial" font-size="13px" font-style="normal" font-weight="normal" text-decoration="undefined" x="1040.943115234375" y="553.5" text-anchor="middle" dominant-baseline="central" transform="matrix(1 0 0 1 2 10)">11 : show maze 1</text></g></g><g><rect fill="#ffffff" stroke="none" x="994" y="564" width="14" height="28" transform="matrix(1 0 0 1 2 10)"/></g><g><path fill="none" stroke="#000000" paint-order="fill stroke markers" d=" M 996 574 L 1010 574 L 1010 602 L 996 602 L 996 574 Z Z" stroke-miterlimit="10" stroke-dasharray=""/></g><g><path fill="none" stroke="#000000" paint-order="fill stroke markers" d=" M 1214 626 L 77 626" stroke-miterlimit="10" stroke-dasharray=""/></g><g><path fill="none" stroke="#000000" paint-order="fill stroke markers" d=" M 87.16267485762415 621.790482243984 L 77 626 L 87.16267485762415 630.209517756016" stroke-miterlimit="10" stroke-dasharray=""/></g><g><rect fill="#ffffff" stroke="none" x="592" y="620" width="101.89892578125" height="13" transform="matrix(1 0 0 1 2 10)"/></g><g><g><path fill="none" stroke="none"/><text fill="#000000" stroke="none" font-family="Arial" font-size="13px" font-style="normal" font-weight="normal" text-decoration="undefined" x="642.949462890625" y="626.5" text-anchor="middle" dominant-baseline="central" transform="matrix(1 0 0 1 2 10)">12 : show stage 1</text></g></g><g><rect fill="#ffffff" stroke="none" x="61" y="616" width="14" height="28" transform="matrix(1 0 0 1 2 10)"/></g><g><path fill="none" stroke="#000000" paint-order="fill stroke markers" d=" M 63 626 L 77 626 L 77 654 L 63 654 L 63 626 Z Z" stroke-miterlimit="10" stroke-dasharray=""/></g><g><path fill="none" stroke="#000000" paint-order="fill stroke markers" d=" M 71 706 L 775 706" stroke-miterlimit="10" stroke-dasharray=""/></g><g><path fill="none" stroke="#000000" paint-order="fill stroke markers" d=" M 764.8373251423759 710.209517756016 L 775 706 L 764.8373251423758 701.790482243984" stroke-miterlimit="10" stroke-dasharray=""/></g><g><rect fill="#ffffff" stroke="none" x="350" y="680" width="143.71510314941406" height="13" transform="matrix(1 0 0 1 2 10)"/></g><g><g><path fill="none" stroke="none"/><text fill="#000000" stroke="none" font-family="Arial" font-size="13px" font-style="normal" font-weight="normal" text-decoration="undefined" x="421.85755157470703" y="686.5" text-anchor="middle" dominant-baseline="central" transform="matrix(1 0 0 1 2 10)">13 : manipulate escaper</text></g></g><g><rect fill="#ffffff" stroke="none" x="773" y="696" width="14" height="28" transform="matrix(1 0 0 1 2 10)"/></g><g><path fill="none" stroke="#000000" paint-order="fill stroke markers" d=" M 775 706 L 789 706 L 789 734 L 775 734 L 775 706 Z Z" stroke-miterlimit="10" stroke-dasharray=""/></g><g><path fill="none" stroke="#000000" paint-order="fill stroke markers" d=" M 886 770 L 789 770" stroke-miterlimit="10" stroke-dasharray=""/></g><g><path fill="none" stroke="#000000" paint-order="fill stroke markers" d=" M 799.1626748576241 765.790482243984 L 789 770 L 799.1626748576241 774.209517756016" stroke-miterlimit="10" stroke-dasharray=""/></g><g><rect fill="#ffffff" stroke="none" x="788" y="764" width="92.31307983398438" height="13" transform="matrix(1 0 0 1 2 10)"/></g><g><g><path fill="none" stroke="none"/><text fill="#000000" stroke="none" font-family="Arial" font-size="13px" font-style="normal" font-weight="normal" text-decoration="undefined" x="834.1565399169922" y="770.5" text-anchor="middle" dominant-baseline="central" transform="matrix(1 0 0 1 2 10)">14 : kill escaper</text></g></g><g><rect fill="#ffffff" stroke="none" x="773" y="760" width="14" height="28" transform="matrix(1 0 0 1 2 10)"/></g><g><path fill="none" stroke="#000000" paint-order="fill stroke markers" d=" M 775 770 L 789 770 L 789 798 L 775 798 L 775 770 Z Z" stroke-miterlimit="10" stroke-dasharray=""/></g><g><rect fill="#FFFFFF00" stroke="none" x="16" y="104" width="1344" height="624" transform="matrix(1 0 0 1 2 10)"/></g><g><path fill="none" stroke="#000000" paint-order="fill stroke markers" d=" M 18 114 L 1362 114 L 1362 738 L 18 738 L 18 114 Z Z" stroke-miterlimit="10" stroke-dasharray=""/></g><g><path fill="none" stroke="#000000" paint-order="fill stroke markers" d=" M 18 114 L 18 137 L 43.1708984375 137 L 54.6708984375 125.5 L 54.6708984375 114 L 18 114 L 18 114" stroke-miterlimit="10" stroke-dasharray=""/></g><g><g><path fill="none" stroke="none"/><text fill="#000000" stroke="none" font-family="Arial" font-size="13px" font-style="normal" font-weight="normal" text-decoration="undefined" x="706.33544921875" y="115.5" text-anchor="middle" dominant-baseline="central" transform="matrix(1 0 0 1 2 10)"></text></g></g><g><g><path fill="none" stroke="none"/><text fill="#000000" stroke="none" font-family="Arial" font-size="13px" font-style="normal" font-weight="bold" text-decoration="undefined" x="28.58544921875" y="115.5" text-anchor="middle" dominant-baseline="central" transform="matrix(1 0 0 1 2 10)">ref</text></g></g><g><path fill="none" stroke="#000000" paint-order="fill stroke markers" d=" M 34 162 L 1258 162 L 1258 369 L 34 369 L 34 162" stroke-miterlimit="10" stroke-dasharray=""/></g><g><path fill="#ffffff" stroke="none" paint-order="stroke fill markers" d=" M 34 162 L 34 185 L 133.84619140625 185 L 145.34619140625 173.5 L 145.34619140625 162 L 34 162"/></g><g><path fill="none" stroke="#000000" paint-order="fill stroke markers" d=" M 34 162 L 34 185 L 133.84619140625 185 L 145.34619140625 173.5 L 145.34619140625 162 L 34 162 L 34 162" stroke-miterlimit="10" stroke-dasharray=""/></g><g><g><path fill="none" stroke="none"/><text fill="#000000" stroke="none" font-family="Arial" font-size="13px" font-style="normal" font-weight="normal" text-decoration="undefined" x="91.7880859375" y="163.5" text-anchor="middle" dominant-baseline="central" transform="matrix(1 0 0 1 2 10)">aboutButton</text></g></g><g><g><path fill="none" stroke="none"/><text fill="#000000" stroke="none" font-family="Arial" font-size="13px" font-style="normal" font-weight="bold" text-decoration="undefined" x="43.864990234375" y="163.5" text-anchor="middle" dominant-baseline="central" transform="matrix(1 0 0 1 2 10)">alt</text></g></g><g><path fill="none" stroke="#000000" paint-order="fill stroke markers" d=" M 34 266 L 1257 266" stroke-miterlimit="10" stroke-dasharray="10,3"/></g><g><path fill="none" stroke="#000000" paint-order="fill stroke markers" d=" M 610 746 L 962 746 L 962 826 L 610 826 L 610 746" stroke-miterlimit="10" stroke-dasharray=""/></g><g><path fill="#ffffff" stroke="none" paint-order="stroke fill markers" d=" M 610 746 L 610 769 L 681.6435546875 769 L 693.1435546875 757.5 L 693.1435546875 746 L 610 746"/></g><g><path fill="none" stroke="#000000" paint-order="fill stroke markers" d=" M 610 746 L 610 769 L 681.6435546875 769 L 693.1435546875 757.5 L 693.1435546875 746 L 610 746 L 610 746" stroke-miterlimit="10" stroke-dasharray=""/></g><g><g><path fill="none" stroke="none"/><text fill="#000000" stroke="none" font-family="Arial" font-size="13px" font-style="normal" font-weight="normal" text-decoration="undefined" x="653.686767578125" y="747.5" text-anchor="middle" dominant-baseline="central" transform="matrix(1 0 0 1 2 10)">contact</text></g></g><g><g><path fill="none" stroke="none"/><text fill="#000000" stroke="none" font-family="Arial" font-size="13px" font-style="normal" font-weight="bold" text-decoration="undefined" x="619.864990234375" y="747.5" text-anchor="middle" dominant-baseline="central" transform="matrix(1 0 0 1 2 10)">alt</text></g></g></g></svg>