<svg version="1.1" xmlns="http://www.w3.org/2000/svg" xmlns:xlink="http://www.w3.org/1999/xlink" width="1524" height="684"><defs/><g><g><path fill="none" stroke="#000000" paint-order="fill stroke markers" d=" M 10 10 L 1514 10 L 1514 674 L 10 674 L 10 10" stroke-miterlimit="10" stroke-dasharray=""/></g><g><path fill="#ffffff" stroke="none" paint-order="stroke fill markers" d=" M 10 10 L 10 33 L 142.32080078125 33 L 153.82080078125 21.5 L 153.82080078125 10 L 10 10"/></g><g><path fill="none" stroke="#000000" paint-order="fill stroke markers" d=" M 10 10 L 10 33 L 142.32080078125 33 L 153.82080078125 21.5 L 153.82080078125 10 L 10 10 L 10 10" stroke-miterlimit="10" stroke-dasharray=""/></g><g><g><path fill="none" stroke="none"/><text fill="#000000" stroke="none" font-family="Arial" font-size="13px" font-style="normal" font-weight="normal" text-decoration="undefined" x="140.025390625" y="179.5" text-anchor="middle" dominant-baseline="central" transform="matrix(1 0 0 1 -54 -158)">UseCaseDiagram</text></g></g><g><g><path fill="none" stroke="none"/><text fill="#000000" stroke="none" font-family="Arial" font-size="13px" font-style="normal" font-weight="bold" text-decoration="undefined" x="75.864990234375" y="179.5" text-anchor="middle" dominant-baseline="central" transform="matrix(1 0 0 1 -54 -158)">uc</text></g></g><g><rect fill="#C0C0C0" stroke="none" x="223" y="231" width="288" height="264" transform="matrix(1 0 0 1 -54 -158)" fill-opacity="0.2"/></g><g><rect fill="#ffffff" stroke="none" x="216" y="224" width="288" height="264" transform="matrix(1 0 0 1 -54 -158)"/></g><g><path fill="none" stroke="#000000" paint-order="fill stroke markers" d=" M 162 66 L 450 66 L 450 330 L 162 330 L 162 66 Z Z" stroke-miterlimit="10" stroke-dasharray=""/></g><g><g><path fill="none" stroke="none"/><text fill="#000000" stroke="none" font-family="Arial" font-size="13px" font-style="normal" font-weight="bold" text-decoration="undefined" x="360.5" y="237.5" text-anchor="middle" dominant-baseline="central" transform="matrix(1 0 0 1 -54 -158)">escaper system</text></g></g><g><rect fill="#C0C0C0" stroke="none" x="1015" y="231" width="464" height="240" transform="matrix(1 0 0 1 -54 -158)" fill-opacity="0.2"/></g><g><rect fill="#ffffff" stroke="none" x="1008" y="224" width="464" height="240" transform="matrix(1 0 0 1 -54 -158)"/></g><g><path fill="none" stroke="#000000" paint-order="fill stroke markers" d=" M 954 66 L 1418 66 L 1418 306 L 954 306 L 954 66 Z Z" stroke-miterlimit="10" stroke-dasharray=""/></g><g><g><path fill="none" stroke="none"/><text fill="#000000" stroke="none" font-family="Arial" font-size="13px" font-style="normal" font-weight="bold" text-decoration="undefined" x="1240.5" y="237.5" text-anchor="middle" dominant-baseline="central" transform="matrix(1 0 0 1 -54 -158)">killer system</text></g></g><g><rect fill="#C0C0C0" stroke="none" x="1015" y="487" width="464" height="312" transform="matrix(1 0 0 1 -54 -158)" fill-opacity="0.2"/></g><g><rect fill="#ffffff" stroke="none" x="1008" y="480" width="464" height="312" transform="matrix(1 0 0 1 -54 -158)"/></g><g><path fill="none" stroke="#000000" paint-order="fill stroke markers" d=" M 954 322 L 1418 322 L 1418 634 L 954 634 L 954 322 Z Z" stroke-miterlimit="10" stroke-dasharray=""/></g><g><g><path fill="none" stroke="none"/><text fill="#000000" stroke="none" font-family="Arial" font-size="13px" font-style="normal" font-weight="bold" text-decoration="undefined" x="1240.5" y="493.5" text-anchor="middle" dominant-baseline="central" transform="matrix(1 0 0 1 -54 -158)">land mine system</text></g></g><g><rect fill="#C0C0C0" stroke="none" x="223" y="607" width="696" height="80" transform="matrix(1 0 0 1 -54 -158)" fill-opacity="0.2"/></g><g><rect fill="#ffffff" stroke="none" x="216" y="600" width="696" height="80" transform="matrix(1 0 0 1 -54 -158)"/></g><g><path fill="none" stroke="#000000" paint-order="fill stroke markers" d=" M 162 442 L 858 442 L 858 522 L 162 522 L 162 442 Z Z" stroke-miterlimit="10" stroke-dasharray=""/></g><g><g><path fill="none" stroke="none"/><text fill="#000000" stroke="none" font-family="Arial" font-size="13px" font-style="normal" font-weight="bold" text-decoration="undefined" x="564.5" y="613.5" text-anchor="middle" dominant-baseline="central" transform="matrix(1 0 0 1 -54 -158)">maze system</text></g></g><g><rect fill="#C0C0C0" stroke="none" x="223" y="511" width="696" height="80" transform="matrix(1 0 0 1 -54 -158)" fill-opacity="0.2"/></g><g><rect fill="#ffffff" stroke="none" x="216" y="504" width="696" height="80" transform="matrix(1 0 0 1 -54 -158)"/></g><g><path fill="none" stroke="#000000" paint-order="fill stroke markers" d=" M 162 346 L 858 346 L 858 426 L 162 426 L 162 346 Z Z" stroke-miterlimit="10" stroke-dasharray=""/></g><g><g><path fill="none" stroke="none"/><text fill="#000000" stroke="none" font-family="Arial" font-size="13px" font-style="normal" font-weight="bold" text-decoration="undefined" x="564.5" y="517.5" text-anchor="middle" dominant-baseline="central" transform="matrix(1 0 0 1 -54 -158)">land mine detect system</text></g></g><g><rect fill="#C0C0C0" stroke="none" x="223" y="703" width="696" height="96" transform="matrix(1 0 0 1 -54 -158)" fill-opacity="0.2"/></g><g><rect fill="#ffffff" stroke="none" x="216" y="696" width="696" height="96" transform="matrix(1 0 0 1 -54 -158)"/></g><g><path fill="none" stroke="#000000" paint-order="fill stroke markers" d=" M 162 538 L 858 538 L 858 634 L 162 634 L 162 538 Z Z" stroke-miterlimit="10" stroke-dasharray=""/></g><g><g><path fill="none" stroke="none"/><text fill="#000000" stroke="none" font-family="Arial" font-size="13px" font-style="normal" font-weight="bold" text-decoration="undefined" x="564.5" y="709.5" text-anchor="middle" dominant-baseline="central" transform="matrix(1 0 0 1 -54 -158)">stage system</text></g></g><g><rect fill="#C0C0C0" stroke="none" x="527" y="231" width="472" height="264" transform="matrix(1 0 0 1 -54 -158)" fill-opacity="0.2"/></g><g><rect fill="#ffffff" stroke="none" x="520" y="224" width="472" height="264" transform="matrix(1 0 0 1 -54 -158)"/></g><g><path fill="none" stroke="#000000" paint-order="fill stroke markers" d=" M 466 66 L 938 66 L 938 330 L 466 330 L 466 66 Z Z" stroke-miterlimit="10" stroke-dasharray=""/></g><g><g><path fill="none" stroke="none"/><text fill="#000000" stroke="none" font-family="Arial" font-size="13px" font-style="normal" font-weight="bold" text-decoration="undefined" x="756.5" y="237.5" text-anchor="middle" dominant-baseline="central" transform="matrix(1 0 0 1 -54 -158)">menu system</text></g></g><g><path fill="#ffffff" stroke="none" paint-order="stroke fill markers" d=" M 66.748623046875 171.85000000000002 C 66.748623046875 166.96227952000004 70.706425414875 163 75.588623046875 163 C 80.47082067887501 163 84.428623046875 166.96227952000004 84.428623046875 171.85000000000002 C 84.428623046875 176.73772048 80.47082067887501 180.7 75.588623046875 180.7 C 70.706425414875 180.7 66.748623046875 176.73772048 66.748623046875 171.85000000000002 Z"/></g><g><path fill="none" stroke="#000000" paint-order="fill stroke markers" d=" M 66.748623046875 171.85000000000002 C 66.748623046875 166.96227952000004 70.706425414875 163 75.588623046875 163 C 80.47082067887501 163 84.428623046875 166.96227952000004 84.428623046875 171.85000000000002 C 84.428623046875 176.73772048 80.47082067887501 180.7 75.588623046875 180.7 C 70.706425414875 180.7 66.748623046875 176.73772048 66.748623046875 171.85000000000002 Z" stroke-miterlimit="10" stroke-dasharray=""/></g><g><path fill="none" stroke="#000000" paint-order="fill stroke markers" d=" M 75.588623046875 180.7 L 75.588623046875 198.3" stroke-miterlimit="10" stroke-dasharray=""/></g><g><path fill="none" stroke="#000000" paint-order="fill stroke markers" d=" M 66.228623046875 187.3 L 84.94862304687501 187.3" stroke-miterlimit="10" stroke-dasharray=""/></g><g><path fill="none" stroke="#000000" paint-order="fill stroke markers" d=" M 75.588623046875 198.3 L 62.588623046875 216" stroke-miterlimit="10" stroke-dasharray=""/></g><g><path fill="none" stroke="#000000" paint-order="fill stroke markers" d=" M 75.588623046875 198.3 L 88.588623046875 216" stroke-miterlimit="10" stroke-dasharray=""/></g><g><g><path fill="none" stroke="none"/><text fill="#000000" stroke="none" font-family="Arial" font-size="13px" font-style="normal" font-weight="bold" text-decoration="undefined" x="130.088623046875" y="388.5" text-anchor="middle" dominant-baseline="central" transform="matrix(1 0 0 1 -54 -158)">user</text></g></g><g><path fill="#C0C0C0" stroke="none" paint-order="stroke fill markers" d=" M 177 186.5 C 177 176.835016 237.66540959999998 169 312.5 169 C 387.3345904 169 448 176.835016 448 186.5 C 448 196.164984 387.3345904 204 312.5 204 C 237.66540959999998 204 177 196.164984 177 186.5 Z" fill-opacity="0.2"/></g><g><path fill="#ffffff" stroke="none" paint-order="stroke fill markers" d=" M 170 179.5 C 170 169.835016 230.66540959999998 162 305.5 162 C 380.3345904 162 441 169.835016 441 179.5 C 441 189.164984 380.3345904 197 305.5 197 C 230.66540959999998 197 170 189.164984 170 179.5 Z"/></g><g><path fill="none" stroke="#000000" paint-order="fill stroke markers" d=" M 170 179.5 C 170 169.835016 230.66540959999998 162 305.5 162 C 380.3345904 162 441 169.835016 441 179.5 C 441 189.164984 380.3345904 197 305.5 197 C 230.66540959999998 197 170 189.164984 170 179.5 Z" stroke-miterlimit="10" stroke-dasharray=""/></g><g><g><path fill="none" stroke="none"/><text fill="#000000" stroke="none" font-family="Arial" font-size="13px" font-style="normal" font-weight="bold" text-decoration="undefined" x="359.5" y="338.5" text-anchor="middle" dominant-baseline="central" transform="matrix(1 0 0 1 -54 -158)">control movement with keys</text></g></g><g><path fill="#C0C0C0" stroke="none" paint-order="stroke fill markers" d=" M 217 298.5 C 217 288.835016 260.4283744 281 314 281 C 367.5716256 281 411 288.835016 411 298.5 C 411 308.164984 367.5716256 316 314 316 C 260.4283744 316 217 308.164984 217 298.5 Z" fill-opacity="0.2"/></g><g><path fill="#ffffff" stroke="none" paint-order="stroke fill markers" d=" M 210 291.5 C 210 281.835016 253.4283744 274 307 274 C 360.5716256 274 404 281.835016 404 291.5 C 404 301.164984 360.5716256 309 307 309 C 253.4283744 309 210 301.164984 210 291.5 Z"/></g><g><path fill="none" stroke="#000000" paint-order="fill stroke markers" d=" M 210 291.5 C 210 281.835016 253.4283744 274 307 274 C 360.5716256 274 404 281.835016 404 291.5 C 404 301.164984 360.5716256 309 307 309 C 253.4283744 309 210 301.164984 210 291.5 Z" stroke-miterlimit="10" stroke-dasharray=""/></g><g><g><path fill="none" stroke="none"/><text fill="#000000" stroke="none" font-family="Arial" font-size="13px" font-style="normal" font-weight="bold" text-decoration="undefined" x="361" y="450.5" text-anchor="middle" dominant-baseline="central" transform="matrix(1 0 0 1 -54 -158)">eliminate land mine</text></g></g><g><path fill="#C0C0C0" stroke="none" paint-order="stroke fill markers" d=" M 545 122.5 C 545 112.835016 570.9674816 105 603 105 C 635.0325184 105 661 112.835016 661 122.5 C 661 132.164984 635.0325184 140 603 140 C 570.9674816 140 545 132.164984 545 122.5 Z" fill-opacity="0.2"/></g><g><path fill="#ffffff" stroke="none" paint-order="stroke fill markers" d=" M 538 115.5 C 538 105.835016 563.9674816 98 596 98 C 628.0325184 98 654 105.835016 654 115.5 C 654 125.164984 628.0325184 133 596 133 C 563.9674816 133 538 125.164984 538 115.5 Z"/></g><g><path fill="none" stroke="#000000" paint-order="fill stroke markers" d=" M 538 115.5 C 538 105.835016 563.9674816 98 596 98 C 628.0325184 98 654 105.835016 654 115.5 C 654 125.164984 628.0325184 133 596 133 C 563.9674816 133 538 125.164984 538 115.5 Z" stroke-miterlimit="10" stroke-dasharray=""/></g><g><g><path fill="none" stroke="none"/><text fill="#000000" stroke="none" font-family="Arial" font-size="13px" font-style="normal" font-weight="bold" text-decoration="undefined" x="650" y="274.5" text-anchor="middle" dominant-baseline="central" transform="matrix(1 0 0 1 -54 -158)">check rules</text></g></g><g><path fill="#C0C0C0" stroke="none" paint-order="stroke fill markers" d=" M 697 122.5 C 697 112.835016 751.3973968 105 818.5 105 C 885.6026032 105 940 112.835016 940 122.5 C 940 132.164984 885.6026032 140 818.5 140 C 751.3973968 140 697 132.164984 697 122.5 Z" fill-opacity="0.2"/></g><g><path fill="#ffffff" stroke="none" paint-order="stroke fill markers" d=" M 690 115.5 C 690 105.835016 744.3973968 98 811.5 98 C 878.6026032 98 933 105.835016 933 115.5 C 933 125.164984 878.6026032 133 811.5 133 C 744.3973968 133 690 125.164984 690 115.5 Z"/></g><g><path fill="none" stroke="#000000" paint-order="fill stroke markers" d=" M 690 115.5 C 690 105.835016 744.3973968 98 811.5 98 C 878.6026032 98 933 105.835016 933 115.5 C 933 125.164984 878.6026032 133 811.5 133 C 744.3973968 133 690 125.164984 690 115.5 Z" stroke-miterlimit="10" stroke-dasharray=""/></g><g><g><path fill="none" stroke="none"/><text fill="#000000" stroke="none" font-family="Arial" font-size="13px" font-style="normal" font-weight="bold" text-decoration="undefined" x="865.5" y="274.5" text-anchor="middle" dominant-baseline="central" transform="matrix(1 0 0 1 -54 -158)">see next or previous page</text></g></g><g><path fill="none" stroke="#000000" paint-order="fill stroke markers" d=" M 654 114 L 690 114" stroke-miterlimit="10" stroke-dasharray="3"/></g><g><path fill="none" stroke="#000000" paint-order="fill stroke markers" d=" M 679.8373251423759 118.209517756016 L 690 114 L 679.8373251423758 109.790482243984" stroke-miterlimit="10" stroke-dasharray=""/></g><g><rect fill="#ffffff" stroke="none" x="696" y="288" width="57.434051513671875" height="13" transform="matrix(1 0 0 1 -54 -158)"/></g><g><g><path fill="none" stroke="none"/><text fill="#000000" stroke="none" font-family="Arial" font-size="13px" font-style="normal" font-weight="normal" text-decoration="undefined" x="724.7170257568359" y="294.5" text-anchor="middle" dominant-baseline="central" transform="matrix(1 0 0 1 -54 -158)">«include»</text></g></g><g><path fill="#C0C0C0" stroke="none" paint-order="stroke fill markers" d=" M 521 210.5 C 521 200.835016 557.0410736 193 601.5 193 C 645.9589264 193 682 200.835016 682 210.5 C 682 220.164984 645.9589264 228 601.5 228 C 557.0410736 228 521 220.164984 521 210.5 Z" fill-opacity="0.2"/></g><g><path fill="#ffffff" stroke="none" paint-order="stroke fill markers" d=" M 514 203.5 C 514 193.835016 550.0410736 186 594.5 186 C 638.9589264 186 675 193.835016 675 203.5 C 675 213.164984 638.9589264 221 594.5 221 C 550.0410736 221 514 213.164984 514 203.5 Z"/></g><g><path fill="none" stroke="#000000" paint-order="fill stroke markers" d=" M 514 203.5 C 514 193.835016 550.0410736 186 594.5 186 C 638.9589264 186 675 193.835016 675 203.5 C 675 213.164984 638.9589264 221 594.5 221 C 550.0410736 221 514 213.164984 514 203.5 Z" stroke-miterlimit="10" stroke-dasharray=""/></g><g><g><path fill="none" stroke="none"/><text fill="#000000" stroke="none" font-family="Arial" font-size="13px" font-style="normal" font-weight="bold" text-decoration="undefined" x="648.5" y="362.5" text-anchor="middle" dominant-baseline="central" transform="matrix(1 0 0 1 -54 -158)">press key</text></g></g><g><path fill="none" stroke="#000000" paint-order="fill stroke markers" d=" M 595 133 L 595 186" stroke-miterlimit="10" stroke-dasharray=""/></g><g><path fill="#FFFFFF" stroke="none" paint-order="stroke fill markers" d=" M 586.580964487968 165.6746502847517 L 595 186 L 603.419035512032 165.6746502847517"/></g><g><path fill="none" stroke="#000000" paint-order="fill stroke markers" d=" M 586.580964487968 165.6746502847517 L 595 186 L 603.419035512032 165.6746502847517 L 586.580964487968 165.6746502847517" stroke-miterlimit="10" stroke-dasharray=""/></g><g><path fill="#C0C0C0" stroke="none" paint-order="stroke fill markers" d=" M 473 308.5 C 473 298.835016 497.62433599999997 291 528 291 C 558.375664 291 583 298.835016 583 308.5 C 583 318.164984 558.375664 326 528 326 C 497.62433599999997 326 473 318.164984 473 308.5 Z" fill-opacity="0.2"/></g><g><path fill="#ffffff" stroke="none" paint-order="stroke fill markers" d=" M 466 301.5 C 466 291.835016 490.62433599999997 284 521 284 C 551.375664 284 576 291.835016 576 301.5 C 576 311.164984 551.375664 319 521 319 C 490.62433599999997 319 466 311.164984 466 301.5 Z"/></g><g><path fill="none" stroke="#000000" paint-order="fill stroke markers" d=" M 466 301.5 C 466 291.835016 490.62433599999997 284 521 284 C 551.375664 284 576 291.835016 576 301.5 C 576 311.164984 551.375664 319 521 319 C 490.62433599999997 319 466 311.164984 466 301.5 Z" stroke-miterlimit="10" stroke-dasharray=""/></g><g><g><path fill="none" stroke="none"/><text fill="#000000" stroke="none" font-family="Arial" font-size="13px" font-style="normal" font-weight="bold" text-decoration="undefined" x="575" y="460.5" text-anchor="middle" dominant-baseline="central" transform="matrix(1 0 0 1 -54 -158)">start game</text></g></g><g><path fill="none" stroke="#000000" paint-order="fill stroke markers" d=" M 576 306 L 592 306 L 592 221" stroke-miterlimit="10" stroke-dasharray=""/></g><g><path fill="#FFFFFF" stroke="none" paint-order="stroke fill markers" d=" M 600.419035512032 241.3253497152483 L 592 221 L 583.580964487968 241.3253497152483"/></g><g><path fill="none" stroke="#000000" paint-order="fill stroke markers" d=" M 600.419035512032 241.3253497152483 L 592 221 L 583.580964487968 241.3253497152483 L 600.419035512032 241.3253497152483" stroke-miterlimit="10" stroke-dasharray=""/></g><g><path fill="#C0C0C0" stroke="none" paint-order="stroke fill markers" d=" M 617 309 C 617 297.954304 640.2811904 289 669 289 C 697.7188096 289 721 297.954304 721 309 C 721 320.045696 697.7188096 329 669 329 C 640.2811904 329 617 320.045696 617 309 Z" fill-opacity="0.2"/></g><g><path fill="#ffffff" stroke="none" paint-order="stroke fill markers" d=" M 610 302 C 610 290.954304 633.2811904 282 662 282 C 690.7188096 282 714 290.954304 714 302 C 714 313.045696 690.7188096 322 662 322 C 633.2811904 322 610 313.045696 610 302 Z"/></g><g><path fill="none" stroke="#000000" paint-order="fill stroke markers" d=" M 610 302 C 610 290.954304 633.2811904 282 662 282 C 690.7188096 282 714 290.954304 714 302 C 714 313.045696 690.7188096 322 662 322 C 633.2811904 322 610 313.045696 610 302 Z" stroke-miterlimit="10" stroke-dasharray=""/></g><g><g><path fill="none" stroke="none"/><text fill="#000000" stroke="none" font-family="Arial" font-size="13px" font-style="normal" font-weight="bold" text-decoration="undefined" x="716" y="461" text-anchor="middle" dominant-baseline="central" transform="matrix(1 0 0 1 -54 -158)">exit menu</text></g></g><g><path fill="none" stroke="#000000" paint-order="fill stroke markers" d=" M 610 306 L 592 306 L 592 221" stroke-miterlimit="10" stroke-dasharray=""/></g><g><path fill="#FFFFFF" stroke="none" paint-order="stroke fill markers" d=" M 600.419035512032 241.3253497152483 L 592 221 L 583.580964487968 241.3253497152483"/></g><g><path fill="none" stroke="#000000" paint-order="fill stroke markers" d=" M 600.419035512032 241.3253497152483 L 592 221 L 583.580964487968 241.3253497152483 L 600.419035512032 241.3253497152483" stroke-miterlimit="10" stroke-dasharray=""/></g><g><path fill="#C0C0C0" stroke="none" paint-order="stroke fill markers" d=" M 1217 122.5 C 1217 112.835016 1243.1913392 105 1275.5 105 C 1307.8086608 105 1334 112.835016 1334 122.5 C 1334 132.164984 1307.8086608 140 1275.5 140 C 1243.1913392 140 1217 132.164984 1217 122.5 Z" fill-opacity="0.2"/></g><g><path fill="#ffffff" stroke="none" paint-order="stroke fill markers" d=" M 1210 115.5 C 1210 105.835016 1236.1913392 98 1268.5 98 C 1300.8086608 98 1327 105.835016 1327 115.5 C 1327 125.164984 1300.8086608 133 1268.5 133 C 1236.1913392 133 1210 125.164984 1210 115.5 Z"/></g><g><path fill="none" stroke="#000000" paint-order="fill stroke markers" d=" M 1210 115.5 C 1210 105.835016 1236.1913392 98 1268.5 98 C 1300.8086608 98 1327 105.835016 1327 115.5 C 1327 125.164984 1300.8086608 133 1268.5 133 C 1236.1913392 133 1210 125.164984 1210 115.5 Z" stroke-miterlimit="10" stroke-dasharray=""/></g><g><g><path fill="none" stroke="none"/><text fill="#000000" stroke="none" font-family="Arial" font-size="13px" font-style="normal" font-weight="bold" text-decoration="undefined" x="1322.5" y="274.5" text-anchor="middle" dominant-baseline="central" transform="matrix(1 0 0 1 -54 -158)">kill Escaper</text></g></g><g><path fill="#ffffff" stroke="none" paint-order="stroke fill markers" d=" M 18 66 L 135 66 L 145 76 L 145 155 L 18 155 L 18 66"/></g><g><path fill="none" stroke="#000000" paint-order="fill stroke markers" d=" M 18 66 L 135 66 L 145 76 L 145 155 L 18 155 L 18 66 L 18 66" stroke-miterlimit="10" stroke-dasharray=""/></g><g><path fill="none" stroke="#000000" paint-order="fill stroke markers" d=" M 135 66 L 135 76 L 145 76 L 135 66" stroke-miterlimit="10" stroke-dasharray=""/></g><g><g><path fill="none" stroke="none"/><text fill="#000000" stroke="none" font-family="Arial" font-size="13px" font-style="normal" font-weight="normal" text-decoration="undefined" x="77" y="229" text-anchor="start" dominant-baseline="text-before-edge" transform="matrix(1 0 0 1 -54 -158)">The user is the</text><text fill="#000000" stroke="none" font-family="Arial" font-size="13px" font-style="normal" font-weight="normal" text-decoration="undefined" x="77" y="242" text-anchor="start" dominant-baseline="text-before-edge" transform="matrix(1 0 0 1 -54 -158)">physical person</text><text fill="#000000" stroke="none" font-family="Arial" font-size="13px" font-style="normal" font-weight="normal" text-decoration="undefined" x="77" y="255" text-anchor="start" dominant-baseline="text-before-edge" transform="matrix(1 0 0 1 -54 -158)">meanwhile an</text><text fill="#000000" stroke="none" font-family="Arial" font-size="13px" font-style="normal" font-weight="normal" text-decoration="undefined" x="77" y="268" text-anchor="start" dominant-baseline="text-before-edge" transform="matrix(1 0 0 1 -54 -158)">Escaper is the</text><text fill="#000000" stroke="none" font-family="Arial" font-size="13px" font-style="normal" font-weight="normal" text-decoration="undefined" x="77" y="281" text-anchor="start" dominant-baseline="text-before-edge" transform="matrix(1 0 0 1 -54 -158)">systemical object. </text></g></g><g><path fill="none" stroke="#000000" paint-order="fill stroke markers" d=" M 75 156 L 75 162" stroke-miterlimit="10" stroke-dasharray="3"/></g><g><path fill="#C0C0C0" stroke="none" paint-order="stroke fill markers" d=" M 1209 194.5 C 1209 184.835016 1241.6832096 177 1282 177 C 1322.3167904 177 1355 184.835016 1355 194.5 C 1355 204.164984 1322.3167904 212 1282 212 C 1241.6832096 212 1209 204.164984 1209 194.5 Z" fill-opacity="0.2"/></g><g><path fill="#ffffff" stroke="none" paint-order="stroke fill markers" d=" M 1202 187.5 C 1202 177.835016 1234.6832096 170 1275 170 C 1315.3167904 170 1348 177.835016 1348 187.5 C 1348 197.164984 1315.3167904 205 1275 205 C 1234.6832096 205 1202 197.164984 1202 187.5 Z"/></g><g><path fill="none" stroke="#000000" paint-order="fill stroke markers" d=" M 1202 187.5 C 1202 177.835016 1234.6832096 170 1275 170 C 1315.3167904 170 1348 177.835016 1348 187.5 C 1348 197.164984 1315.3167904 205 1275 205 C 1234.6832096 205 1202 197.164984 1202 187.5 Z" stroke-miterlimit="10" stroke-dasharray=""/></g><g><g><path fill="none" stroke="none"/><text fill="#000000" stroke="none" font-family="Arial" font-size="13px" font-style="normal" font-weight="bold" text-decoration="undefined" x="1329" y="346.5" text-anchor="middle" dominant-baseline="central" transform="matrix(1 0 0 1 -54 -158)">follow Escaper</text></g></g><g><path fill="#C0C0C0" stroke="none" paint-order="stroke fill markers" d=" M 1233 258.5 C 1233 248.835016 1255.8334752 241 1284 241 C 1312.1665248 241 1335 248.835016 1335 258.5 C 1335 268.164984 1312.1665248 276 1284 276 C 1255.8334752 276 1233 268.164984 1233 258.5 Z" fill-opacity="0.2"/></g><g><path fill="#ffffff" stroke="none" paint-order="stroke fill markers" d=" M 1226 251.5 C 1226 241.835016 1248.8334752 234 1277 234 C 1305.1665248 234 1328 241.835016 1328 251.5 C 1328 261.164984 1305.1665248 269 1277 269 C 1248.8334752 269 1226 261.164984 1226 251.5 Z"/></g><g><path fill="none" stroke="#000000" paint-order="fill stroke markers" d=" M 1226 251.5 C 1226 241.835016 1248.8334752 234 1277 234 C 1305.1665248 234 1328 241.835016 1328 251.5 C 1328 261.164984 1305.1665248 269 1277 269 C 1248.8334752 269 1226 261.164984 1226 251.5 Z" stroke-miterlimit="10" stroke-dasharray=""/></g><g><g><path fill="none" stroke="none"/><text fill="#000000" stroke="none" font-family="Arial" font-size="13px" font-style="normal" font-weight="bold" text-decoration="undefined" x="1331" y="410.5" text-anchor="middle" dominant-baseline="central" transform="matrix(1 0 0 1 -54 -158)">set speed</text></g></g><g><path fill="#ffffff" stroke="none" paint-order="stroke fill markers" d=" M 1468.8320352172852 163.85000000000002 C 1468.8320352172852 158.96227952000004 1472.789837585285 155 1477.6720352172852 155 C 1482.5542328492852 155 1486.512035217285 158.96227952000004 1486.512035217285 163.85000000000002 C 1486.512035217285 168.73772048 1482.5542328492852 172.7 1477.6720352172852 172.7 C 1472.789837585285 172.7 1468.8320352172852 168.73772048 1468.8320352172852 163.85000000000002 Z"/></g><g><path fill="none" stroke="#000000" paint-order="fill stroke markers" d=" M 1468.8320352172852 163.85000000000002 C 1468.8320352172852 158.96227952000004 1472.789837585285 155 1477.6720352172852 155 C 1482.5542328492852 155 1486.512035217285 158.96227952000004 1486.512035217285 163.85000000000002 C 1486.512035217285 168.73772048 1482.5542328492852 172.7 1477.6720352172852 172.7 C 1472.789837585285 172.7 1468.8320352172852 168.73772048 1468.8320352172852 163.85000000000002 Z" stroke-miterlimit="10" stroke-dasharray=""/></g><g><path fill="none" stroke="#000000" paint-order="fill stroke markers" d=" M 1477.6720352172852 172.7 L 1477.6720352172852 190.3" stroke-miterlimit="10" stroke-dasharray=""/></g><g><path fill="none" stroke="#000000" paint-order="fill stroke markers" d=" M 1468.3120352172853 179.3 L 1487.032035217285 179.3" stroke-miterlimit="10" stroke-dasharray=""/></g><g><path fill="none" stroke="#000000" paint-order="fill stroke markers" d=" M 1477.6720352172852 190.3 L 1464.6720352172852 208" stroke-miterlimit="10" stroke-dasharray=""/></g><g><path fill="none" stroke="#000000" paint-order="fill stroke markers" d=" M 1477.6720352172852 190.3 L 1490.6720352172852 208" stroke-miterlimit="10" stroke-dasharray=""/></g><g><g><path fill="none" stroke="none"/><text fill="#000000" stroke="none" font-family="Arial" font-size="13px" font-style="normal" font-weight="bold" text-decoration="undefined" x="1532.1720352172852" y="380.5" text-anchor="middle" dominant-baseline="central" transform="matrix(1 0 0 1 -54 -158)">system</text></g></g><g><path fill="none" stroke="#000000" paint-order="fill stroke markers" d=" M 1327 114 L 1477 114 L 1477 154" stroke-miterlimit="10" stroke-dasharray=""/></g><g><path fill="none" stroke="#000000" paint-order="fill stroke markers" d=" M 1348 186 L 1450 186" stroke-miterlimit="10" stroke-dasharray=""/></g><g><path fill="none" stroke="#000000" paint-order="fill stroke markers" d=" M 1328 254 L 1477 254 L 1477 234" stroke-miterlimit="10" stroke-dasharray=""/></g><g><path fill="#C0C0C0" stroke="none" paint-order="stroke fill markers" d=" M 969 194.5 C 969 184.835016 1018.0248144 177 1078.5 177 C 1138.9751856 177 1188 184.835016 1188 194.5 C 1188 204.164984 1138.9751856 212 1078.5 212 C 1018.0248144 212 969 204.164984 969 194.5 Z" fill-opacity="0.2"/></g><g><path fill="#ffffff" stroke="none" paint-order="stroke fill markers" d=" M 962 187.5 C 962 177.835016 1011.0248144 170 1071.5 170 C 1131.9751856 170 1181 177.835016 1181 187.5 C 1181 197.164984 1131.9751856 205 1071.5 205 C 1011.0248144 205 962 197.164984 962 187.5 Z"/></g><g><path fill="none" stroke="#000000" paint-order="fill stroke markers" d=" M 962 187.5 C 962 177.835016 1011.0248144 170 1071.5 170 C 1131.9751856 170 1181 177.835016 1181 187.5 C 1181 197.164984 1131.9751856 205 1071.5 205 C 1011.0248144 205 962 197.164984 962 187.5 Z" stroke-miterlimit="10" stroke-dasharray=""/></g><g><g><path fill="none" stroke="none"/><text fill="#000000" stroke="none" font-family="Arial" font-size="13px" font-style="normal" font-weight="bold" text-decoration="undefined" x="1125.5" y="346.5" text-anchor="middle" dominant-baseline="central" transform="matrix(1 0 0 1 -54 -158)">get position of Escaper</text></g></g><g><path fill="none" stroke="#000000" paint-order="fill stroke markers" d=" M 1202 187 L 1181 187" stroke-miterlimit="10" stroke-dasharray="3"/></g><g><path fill="none" stroke="#000000" paint-order="fill stroke markers" d=" M 1191.162674857624 182.790482243984 L 1181 187 L 1191.162674857624 191.209517756016" stroke-miterlimit="10" stroke-dasharray=""/></g><g><rect fill="#ffffff" stroke="none" x="1216" y="360" width="57.434051513671875" height="13" transform="matrix(1 0 0 1 -54 -158)"/></g><g><g><path fill="none" stroke="none"/><text fill="#000000" stroke="none" font-family="Arial" font-size="13px" font-style="normal" font-weight="normal" text-decoration="undefined" x="1244.717025756836" y="366.5" text-anchor="middle" dominant-baseline="central" transform="matrix(1 0 0 1 -54 -158)">«include»</text></g></g><g><path fill="#C0C0C0" stroke="none" paint-order="stroke fill markers" d=" M 1001 122.5 C 1001 112.835016 1037.0410736 105 1081.5 105 C 1125.9589264 105 1162 112.835016 1162 122.5 C 1162 132.164984 1125.9589264 140 1081.5 140 C 1037.0410736 140 1001 132.164984 1001 122.5 Z" fill-opacity="0.2"/></g><g><path fill="#ffffff" stroke="none" paint-order="stroke fill markers" d=" M 994 115.5 C 994 105.835016 1030.0410736 98 1074.5 98 C 1118.9589264 98 1155 105.835016 1155 115.5 C 1155 125.164984 1118.9589264 133 1074.5 133 C 1030.0410736 133 994 125.164984 994 115.5 Z"/></g><g><path fill="none" stroke="#000000" paint-order="fill stroke markers" d=" M 994 115.5 C 994 105.835016 1030.0410736 98 1074.5 98 C 1118.9589264 98 1155 105.835016 1155 115.5 C 1155 125.164984 1118.9589264 133 1074.5 133 C 1030.0410736 133 994 125.164984 994 115.5 Z" stroke-miterlimit="10" stroke-dasharray=""/></g><g><g><path fill="none" stroke="none"/><text fill="#000000" stroke="none" font-family="Arial" font-size="13px" font-style="normal" font-weight="bold" text-decoration="undefined" x="1128.5" y="274.5" text-anchor="middle" dominant-baseline="central" transform="matrix(1 0 0 1 -54 -158)">swing the sword</text></g></g><g><path fill="none" stroke="#000000" paint-order="fill stroke markers" d=" M 1210 115 L 1155 115" stroke-miterlimit="10" stroke-dasharray="3"/></g><g><path fill="none" stroke="#000000" paint-order="fill stroke markers" d=" M 1165.162674857624 110.790482243984 L 1155 115 L 1165.162674857624 119.209517756016" stroke-miterlimit="10" stroke-dasharray=""/></g><g><rect fill="#ffffff" stroke="none" x="1207" y="297" width="57.434051513671875" height="13" transform="matrix(1 0 0 1 -54 -158)"/></g><g><g><path fill="none" stroke="none"/><text fill="#000000" stroke="none" font-family="Arial" font-size="13px" font-style="normal" font-weight="normal" text-decoration="undefined" x="1235.717025756836" y="303.5" text-anchor="middle" dominant-baseline="central" transform="matrix(1 0 0 1 -54 -158)">«include»</text></g></g><g><path fill="#ffffff" stroke="none" paint-order="stroke fill markers" d=" M 1460.8320352172852 427.85 C 1460.8320352172852 422.96227952000004 1464.789837585285 419 1469.6720352172852 419 C 1474.5542328492852 419 1478.512035217285 422.96227952000004 1478.512035217285 427.85 C 1478.512035217285 432.73772048 1474.5542328492852 436.70000000000005 1469.6720352172852 436.70000000000005 C 1464.789837585285 436.70000000000005 1460.8320352172852 432.73772048 1460.8320352172852 427.85 Z"/></g><g><path fill="none" stroke="#000000" paint-order="fill stroke markers" d=" M 1460.8320352172852 427.85 C 1460.8320352172852 422.96227952000004 1464.789837585285 419 1469.6720352172852 419 C 1474.5542328492852 419 1478.512035217285 422.96227952000004 1478.512035217285 427.85 C 1478.512035217285 432.73772048 1474.5542328492852 436.70000000000005 1469.6720352172852 436.70000000000005 C 1464.789837585285 436.70000000000005 1460.8320352172852 432.73772048 1460.8320352172852 427.85 Z" stroke-miterlimit="10" stroke-dasharray=""/></g><g><path fill="none" stroke="#000000" paint-order="fill stroke markers" d=" M 1469.6720352172852 436.70000000000005 L 1469.6720352172852 454.29999999999995" stroke-miterlimit="10" stroke-dasharray=""/></g><g><path fill="none" stroke="#000000" paint-order="fill stroke markers" d=" M 1460.3120352172853 443.29999999999995 L 1479.032035217285 443.29999999999995" stroke-miterlimit="10" stroke-dasharray=""/></g><g><path fill="none" stroke="#000000" paint-order="fill stroke markers" d=" M 1469.6720352172852 454.29999999999995 L 1456.6720352172852 472" stroke-miterlimit="10" stroke-dasharray=""/></g><g><path fill="none" stroke="#000000" paint-order="fill stroke markers" d=" M 1469.6720352172852 454.29999999999995 L 1482.6720352172852 472" stroke-miterlimit="10" stroke-dasharray=""/></g><g><g><path fill="none" stroke="none"/><text fill="#000000" stroke="none" font-family="Arial" font-size="13px" font-style="normal" font-weight="bold" text-decoration="undefined" x="1524.1720352172852" y="644.5" text-anchor="middle" dominant-baseline="central" transform="matrix(1 0 0 1 -54 -158)">system</text></g></g><g><path fill="#C0C0C0" stroke="none" paint-order="stroke fill markers" d=" M 1257 394.5 C 1257 384.835016 1289.9070672 377 1330.5 377 C 1371.0929328 377 1404 384.835016 1404 394.5 C 1404 404.164984 1371.0929328 412 1330.5 412 C 1289.9070672 412 1257 404.164984 1257 394.5 Z" fill-opacity="0.2"/></g><g><path fill="#ffffff" stroke="none" paint-order="stroke fill markers" d=" M 1250 387.5 C 1250 377.835016 1282.9070672 370 1323.5 370 C 1364.0929328 370 1397 377.835016 1397 387.5 C 1397 397.164984 1364.0929328 405 1323.5 405 C 1282.9070672 405 1250 397.164984 1250 387.5 Z"/></g><g><path fill="none" stroke="#000000" paint-order="fill stroke markers" d=" M 1250 387.5 C 1250 377.835016 1282.9070672 370 1323.5 370 C 1364.0929328 370 1397 377.835016 1397 387.5 C 1397 397.164984 1364.0929328 405 1323.5 405 C 1282.9070672 405 1250 397.164984 1250 387.5 Z" stroke-miterlimit="10" stroke-dasharray=""/></g><g><g><path fill="none" stroke="none"/><text fill="#000000" stroke="none" font-family="Arial" font-size="13px" font-style="normal" font-weight="bold" text-decoration="undefined" x="1377.5" y="546.5" text-anchor="middle" dominant-baseline="central" transform="matrix(1 0 0 1 -54 -158)">detect Escaper</text></g></g><g><path fill="none" stroke="#000000" paint-order="fill stroke markers" d=" M 1397 386 L 1442 386 L 1442 418" stroke-miterlimit="10" stroke-dasharray=""/></g><g><path fill="#C0C0C0" stroke="none" paint-order="stroke fill markers" d=" M 985 394.5 C 985 384.835016 1031.3385232 377 1088.5 377 C 1145.6614768 377 1192 384.835016 1192 394.5 C 1192 404.164984 1145.6614768 412 1088.5 412 C 1031.3385232 412 985 404.164984 985 394.5 Z" fill-opacity="0.2"/></g><g><path fill="#ffffff" stroke="none" paint-order="stroke fill markers" d=" M 978 387.5 C 978 377.835016 1024.3385232 370 1081.5 370 C 1138.6614768 370 1185 377.835016 1185 387.5 C 1185 397.164984 1138.6614768 405 1081.5 405 C 1024.3385232 405 978 397.164984 978 387.5 Z"/></g><g><path fill="none" stroke="#000000" paint-order="fill stroke markers" d=" M 978 387.5 C 978 377.835016 1024.3385232 370 1081.5 370 C 1138.6614768 370 1185 377.835016 1185 387.5 C 1185 397.164984 1138.6614768 405 1081.5 405 C 1024.3385232 405 978 397.164984 978 387.5 Z" stroke-miterlimit="10" stroke-dasharray=""/></g><g><g><path fill="none" stroke="none"/><text fill="#000000" stroke="none" font-family="Arial" font-size="13px" font-style="normal" font-weight="bold" text-decoration="undefined" x="1135.5" y="546.5" text-anchor="middle" dominant-baseline="central" transform="matrix(1 0 0 1 -54 -158)">explode with Escaper</text></g></g><g><path fill="none" stroke="#000000" paint-order="fill stroke markers" d=" M 1185 387 L 1250 387" stroke-miterlimit="10" stroke-dasharray=""/></g><g><path fill="#FFFFFF" stroke="none" paint-order="stroke fill markers" d=" M 1229.6746502847518 395.419035512032 L 1250 387 L 1229.6746502847516 378.580964487968"/></g><g><path fill="none" stroke="#000000" paint-order="fill stroke markers" d=" M 1229.6746502847518 395.419035512032 L 1250 387 L 1229.6746502847516 378.580964487968 L 1229.6746502847518 395.419035512032" stroke-miterlimit="10" stroke-dasharray=""/></g><g><path fill="#C0C0C0" stroke="none" paint-order="stroke fill markers" d=" M 993 490.5 C 993 480.835016 1036.652232 473 1090.5 473 C 1144.347768 473 1188 480.835016 1188 490.5 C 1188 500.164984 1144.347768 508 1090.5 508 C 1036.652232 508 993 500.164984 993 490.5 Z" fill-opacity="0.2"/></g><g><path fill="#ffffff" stroke="none" paint-order="stroke fill markers" d=" M 986 483.5 C 986 473.835016 1029.652232 466 1083.5 466 C 1137.347768 466 1181 473.835016 1181 483.5 C 1181 493.164984 1137.347768 501 1083.5 501 C 1029.652232 501 986 493.164984 986 483.5 Z"/></g><g><path fill="none" stroke="#000000" paint-order="fill stroke markers" d=" M 986 483.5 C 986 473.835016 1029.652232 466 1083.5 466 C 1137.347768 466 1181 473.835016 1181 483.5 C 1181 493.164984 1137.347768 501 1083.5 501 C 1029.652232 501 986 493.164984 986 483.5 Z" stroke-miterlimit="10" stroke-dasharray=""/></g><g><g><path fill="none" stroke="none"/><text fill="#000000" stroke="none" font-family="Arial" font-size="13px" font-style="normal" font-weight="bold" text-decoration="undefined" x="1137.5" y="642.5" text-anchor="middle" dominant-baseline="central" transform="matrix(1 0 0 1 -54 -158)">set random position</text></g></g><g><path fill="#C0C0C0" stroke="none" paint-order="stroke fill markers" d=" M 993 570.5 C 993 560.835016 1043.5918176 553 1106 553 C 1168.4081824 553 1219 560.835016 1219 570.5 C 1219 580.164984 1168.4081824 588 1106 588 C 1043.5918176 588 993 580.164984 993 570.5 Z" fill-opacity="0.2"/></g><g><path fill="#ffffff" stroke="none" paint-order="stroke fill markers" d=" M 986 563.5 C 986 553.835016 1036.5918176 546 1099 546 C 1161.4081824 546 1212 553.835016 1212 563.5 C 1212 573.164984 1161.4081824 581 1099 581 C 1036.5918176 581 986 573.164984 986 563.5 Z"/></g><g><path fill="none" stroke="#000000" paint-order="fill stroke markers" d=" M 986 563.5 C 986 553.835016 1036.5918176 546 1099 546 C 1161.4081824 546 1212 553.835016 1212 563.5 C 1212 573.164984 1161.4081824 581 1099 581 C 1036.5918176 581 986 573.164984 986 563.5 Z" stroke-miterlimit="10" stroke-dasharray=""/></g><g><g><path fill="none" stroke="none"/><text fill="#000000" stroke="none" font-family="Arial" font-size="13px" font-style="normal" font-weight="bold" text-decoration="undefined" x="1153" y="722.5" text-anchor="middle" dominant-baseline="central" transform="matrix(1 0 0 1 -54 -158)">Ordering arrangements</text></g></g><g><path fill="#ffffff" stroke="none" paint-order="stroke fill markers" d=" M 100.83203521728515 451.85 C 100.83203521728515 446.96227952000004 104.78983758528514 443 109.67203521728516 443 C 114.55423284928517 443 118.51203521728516 446.96227952000004 118.51203521728516 451.85 C 118.51203521728516 456.73772048 114.55423284928517 460.70000000000005 109.67203521728516 460.70000000000005 C 104.78983758528514 460.70000000000005 100.83203521728515 456.73772048 100.83203521728515 451.85 Z"/></g><g><path fill="none" stroke="#000000" paint-order="fill stroke markers" d=" M 100.83203521728515 451.85 C 100.83203521728515 446.96227952000004 104.78983758528514 443 109.67203521728516 443 C 114.55423284928517 443 118.51203521728516 446.96227952000004 118.51203521728516 451.85 C 118.51203521728516 456.73772048 114.55423284928517 460.70000000000005 109.67203521728516 460.70000000000005 C 104.78983758528514 460.70000000000005 100.83203521728515 456.73772048 100.83203521728515 451.85 Z" stroke-miterlimit="10" stroke-dasharray=""/></g><g><path fill="none" stroke="#000000" paint-order="fill stroke markers" d=" M 109.67203521728516 460.70000000000005 L 109.67203521728516 478.29999999999995" stroke-miterlimit="10" stroke-dasharray=""/></g><g><path fill="none" stroke="#000000" paint-order="fill stroke markers" d=" M 100.31203521728514 467.29999999999995 L 119.03203521728517 467.29999999999995" stroke-miterlimit="10" stroke-dasharray=""/></g><g><path fill="none" stroke="#000000" paint-order="fill stroke markers" d=" M 109.67203521728516 478.29999999999995 L 96.67203521728516 496" stroke-miterlimit="10" stroke-dasharray=""/></g><g><path fill="none" stroke="#000000" paint-order="fill stroke markers" d=" M 109.67203521728516 478.29999999999995 L 122.67203521728516 496" stroke-miterlimit="10" stroke-dasharray=""/></g><g><g><path fill="none" stroke="none"/><text fill="#000000" stroke="none" font-family="Arial" font-size="13px" font-style="normal" font-weight="bold" text-decoration="undefined" x="164.17203521728516" y="668.5" text-anchor="middle" dominant-baseline="central" transform="matrix(1 0 0 1 -54 -158)">system</text></g></g><g><path fill="#C0C0C0" stroke="none" paint-order="stroke fill markers" d=" M 665 402.5 C 665 392.835016 706.413656 385 757.5 385 C 808.586344 385 850 392.835016 850 402.5 C 850 412.164984 808.586344 420 757.5 420 C 706.413656 420 665 412.164984 665 402.5 Z" fill-opacity="0.2"/></g><g><path fill="#ffffff" stroke="none" paint-order="stroke fill markers" d=" M 658 395.5 C 658 385.835016 699.413656 378 750.5 378 C 801.586344 378 843 385.835016 843 395.5 C 843 405.164984 801.586344 413 750.5 413 C 699.413656 413 658 405.164984 658 395.5 Z"/></g><g><path fill="none" stroke="#000000" paint-order="fill stroke markers" d=" M 658 395.5 C 658 385.835016 699.413656 378 750.5 378 C 801.586344 378 843 385.835016 843 395.5 C 843 405.164984 801.586344 413 750.5 413 C 699.413656 413 658 405.164984 658 395.5 Z" stroke-miterlimit="10" stroke-dasharray=""/></g><g><g><path fill="none" stroke="none"/><text fill="#000000" stroke="none" font-family="Arial" font-size="13px" font-style="normal" font-weight="bold" text-decoration="undefined" x="804.5" y="554.5" text-anchor="middle" dominant-baseline="central" transform="matrix(1 0 0 1 -54 -158)">show warning sign</text></g></g><g><path fill="#C0C0C0" stroke="none" paint-order="stroke fill markers" d=" M 169 402.5 C 169 392.835016 211.75680160000002 385 264.5 385 C 317.2431984 385 360 392.835016 360 402.5 C 360 412.164984 317.2431984 420 264.5 420 C 211.75680160000002 420 169 412.164984 169 402.5 Z" fill-opacity="0.2"/></g><g><path fill="#ffffff" stroke="none" paint-order="stroke fill markers" d=" M 162 395.5 C 162 385.835016 204.75680160000002 378 257.5 378 C 310.2431984 378 353 385.835016 353 395.5 C 353 405.164984 310.2431984 413 257.5 413 C 204.75680160000002 413 162 405.164984 162 395.5 Z"/></g><g><path fill="none" stroke="#000000" paint-order="fill stroke markers" d=" M 162 395.5 C 162 385.835016 204.75680160000002 378 257.5 378 C 310.2431984 378 353 385.835016 353 395.5 C 353 405.164984 310.2431984 413 257.5 413 C 204.75680160000002 413 162 405.164984 162 395.5 Z" stroke-miterlimit="10" stroke-dasharray=""/></g><g><g><path fill="none" stroke="none"/><text fill="#000000" stroke="none" font-family="Arial" font-size="13px" font-style="normal" font-weight="bold" text-decoration="undefined" x="311.5" y="554.5" text-anchor="middle" dominant-baseline="central" transform="matrix(1 0 0 1 -54 -158)">delete warning sign</text></g></g><g><path fill="#C0C0C0" stroke="none" paint-order="stroke fill markers" d=" M 409 402.5 C 409 392.835016 458.02481439999997 385 518.5 385 C 578.9751856 385 628 392.835016 628 402.5 C 628 412.164984 578.9751856 420 518.5 420 C 458.02481439999997 420 409 412.164984 409 402.5 Z" fill-opacity="0.2"/></g><g><path fill="#ffffff" stroke="none" paint-order="stroke fill markers" d=" M 402 395.5 C 402 385.835016 451.02481439999997 378 511.5 378 C 571.9751856 378 621 385.835016 621 395.5 C 621 405.164984 571.9751856 413 511.5 413 C 451.02481439999997 413 402 405.164984 402 395.5 Z"/></g><g><path fill="none" stroke="#000000" paint-order="fill stroke markers" d=" M 402 395.5 C 402 385.835016 451.02481439999997 378 511.5 378 C 571.9751856 378 621 385.835016 621 395.5 C 621 405.164984 571.9751856 413 511.5 413 C 451.02481439999997 413 402 405.164984 402 395.5 Z" stroke-miterlimit="10" stroke-dasharray=""/></g><g><g><path fill="none" stroke="none"/><text fill="#000000" stroke="none" font-family="Arial" font-size="13px" font-style="normal" font-weight="bold" text-decoration="undefined" x="565.5" y="554.5" text-anchor="middle" dominant-baseline="central" transform="matrix(1 0 0 1 -54 -158)">get position of Escaper</text></g></g><g><path fill="none" stroke="#000000" paint-order="fill stroke markers" d=" M 658 395 L 621 395" stroke-miterlimit="10" stroke-dasharray="3"/></g><g><path fill="none" stroke="#000000" paint-order="fill stroke markers" d=" M 631.1626748576241 390.790482243984 L 621 395 L 631.1626748576241 399.209517756016" stroke-miterlimit="10" stroke-dasharray=""/></g><g><rect fill="#ffffff" stroke="none" x="664" y="527" width="57.434051513671875" height="13" transform="matrix(1 0 0 1 -54 -158)"/></g><g><g><path fill="none" stroke="none"/><text fill="#000000" stroke="none" font-family="Arial" font-size="13px" font-style="normal" font-weight="normal" text-decoration="undefined" x="692.7170257568359" y="533.5" text-anchor="middle" dominant-baseline="central" transform="matrix(1 0 0 1 -54 -158)">«include»</text></g></g><g><path fill="none" stroke="#000000" paint-order="fill stroke markers" d=" M 353 394 L 402 394" stroke-miterlimit="10" stroke-dasharray="3"/></g><g><path fill="none" stroke="#000000" paint-order="fill stroke markers" d=" M 391.83732514237585 398.209517756016 L 402 394 L 391.83732514237585 389.790482243984" stroke-miterlimit="10" stroke-dasharray=""/></g><g><rect fill="#ffffff" stroke="none" x="394" y="527" width="57.434051513671875" height="13" transform="matrix(1 0 0 1 -54 -158)"/></g><g><g><path fill="none" stroke="none"/><text fill="#000000" stroke="none" font-family="Arial" font-size="13px" font-style="normal" font-weight="normal" text-decoration="undefined" x="422.71702575683594" y="533.5" text-anchor="middle" dominant-baseline="central" transform="matrix(1 0 0 1 -54 -158)">«include»</text></g></g><g><path fill="#C0C0C0" stroke="none" paint-order="stroke fill markers" d=" M 1241 490.5 C 1241 480.835016 1277.936504 473 1323.5 473 C 1369.063496 473 1406 480.835016 1406 490.5 C 1406 500.164984 1369.063496 508 1323.5 508 C 1277.936504 508 1241 500.164984 1241 490.5 Z" fill-opacity="0.2"/></g><g><path fill="#ffffff" stroke="none" paint-order="stroke fill markers" d=" M 1234 483.5 C 1234 473.835016 1270.936504 466 1316.5 466 C 1362.063496 466 1399 473.835016 1399 483.5 C 1399 493.164984 1362.063496 501 1316.5 501 C 1270.936504 501 1234 493.164984 1234 483.5 Z"/></g><g><path fill="none" stroke="#000000" paint-order="fill stroke markers" d=" M 1234 483.5 C 1234 473.835016 1270.936504 466 1316.5 466 C 1362.063496 466 1399 473.835016 1399 483.5 C 1399 493.164984 1362.063496 501 1316.5 501 C 1270.936504 501 1234 493.164984 1234 483.5 Z" stroke-miterlimit="10" stroke-dasharray=""/></g><g><g><path fill="none" stroke="none"/><text fill="#000000" stroke="none" font-family="Arial" font-size="13px" font-style="normal" font-weight="bold" text-decoration="undefined" x="1370.5" y="642.5" text-anchor="middle" dominant-baseline="central" transform="matrix(1 0 0 1 -54 -158)">create land mine</text></g></g><g><path fill="none" stroke="#000000" paint-order="fill stroke markers" d=" M 1082 501 L 1082 546" stroke-miterlimit="10" stroke-dasharray="3"/></g><g><path fill="none" stroke="#000000" paint-order="fill stroke markers" d=" M 1077.7904822439841 535.8373251423759 L 1082 546 L 1086.2095177560159 535.8373251423759" stroke-miterlimit="10" stroke-dasharray=""/></g><g><rect fill="#ffffff" stroke="none" x="1090" y="672" width="57.434051513671875" height="13" transform="matrix(1 0 0 1 -54 -158)"/></g><g><g><path fill="none" stroke="none"/><text fill="#000000" stroke="none" font-family="Arial" font-size="13px" font-style="normal" font-weight="normal" text-decoration="undefined" x="1118.717025756836" y="678.5" text-anchor="middle" dominant-baseline="central" transform="matrix(1 0 0 1 -54 -158)">«include»</text></g></g><g><path fill="none" stroke="#000000" paint-order="fill stroke markers" d=" M 1181 482 L 1234 482" stroke-miterlimit="10" stroke-dasharray=""/></g><g><path fill="#FFFFFF" stroke="none" paint-order="stroke fill markers" d=" M 1213.6746502847518 490.419035512032 L 1234 482 L 1213.6746502847516 473.580964487968"/></g><g><path fill="none" stroke="#000000" paint-order="fill stroke markers" d=" M 1213.6746502847518 490.419035512032 L 1234 482 L 1213.6746502847516 473.580964487968 L 1213.6746502847518 490.419035512032" stroke-miterlimit="10" stroke-dasharray=""/></g><g><path fill="#C0C0C0" stroke="none" paint-order="stroke fill markers" d=" M 305 490.5 C 305 480.835016 332.5344848 473 366.5 473 C 400.4655152 473 428 480.835016 428 490.5 C 428 500.164984 400.4655152 508 366.5 508 C 332.5344848 508 305 500.164984 305 490.5 Z" fill-opacity="0.2"/></g><g><path fill="#ffffff" stroke="none" paint-order="stroke fill markers" d=" M 298 483.5 C 298 473.835016 325.5344848 466 359.5 466 C 393.4655152 466 421 473.835016 421 483.5 C 421 493.164984 393.4655152 501 359.5 501 C 325.5344848 501 298 493.164984 298 483.5 Z"/></g><g><path fill="none" stroke="#000000" paint-order="fill stroke markers" d=" M 298 483.5 C 298 473.835016 325.5344848 466 359.5 466 C 393.4655152 466 421 473.835016 421 483.5 C 421 493.164984 393.4655152 501 359.5 501 C 325.5344848 501 298 493.164984 298 483.5 Z" stroke-miterlimit="10" stroke-dasharray=""/></g><g><g><path fill="none" stroke="none"/><text fill="#000000" stroke="none" font-family="Arial" font-size="13px" font-style="normal" font-weight="bold" text-decoration="undefined" x="413.5" y="642.5" text-anchor="middle" dominant-baseline="central" transform="matrix(1 0 0 1 -54 -158)">create maze</text></g></g><g><path fill="#C0C0C0" stroke="none" paint-order="stroke fill markers" d=" M 737 570.5 C 737 560.835016 764.5344848 553 798.5 553 C 832.4655152 553 860 560.835016 860 570.5 C 860 580.164984 832.4655152 588 798.5 588 C 764.5344848 588 737 580.164984 737 570.5 Z" fill-opacity="0.2"/></g><g><path fill="#ffffff" stroke="none" paint-order="stroke fill markers" d=" M 730 563.5 C 730 553.835016 757.5344848 546 791.5 546 C 825.4655152 546 853 553.835016 853 563.5 C 853 573.164984 825.4655152 581 791.5 581 C 757.5344848 581 730 573.164984 730 563.5 Z"/></g><g><path fill="none" stroke="#000000" paint-order="fill stroke markers" d=" M 730 563.5 C 730 553.835016 757.5344848 546 791.5 546 C 825.4655152 546 853 553.835016 853 563.5 C 853 573.164984 825.4655152 581 791.5 581 C 757.5344848 581 730 573.164984 730 563.5 Z" stroke-miterlimit="10" stroke-dasharray=""/></g><g><g><path fill="none" stroke="none"/><text fill="#000000" stroke="none" font-family="Arial" font-size="13px" font-style="normal" font-weight="bold" text-decoration="undefined" x="845.5" y="722.5" text-anchor="middle" dominant-baseline="central" transform="matrix(1 0 0 1 -54 -158)">delete maze</text></g></g><g><path fill="#C0C0C0" stroke="none" paint-order="stroke fill markers" d=" M 577 490.5 C 577 480.835016 607.6684912 473 645.5 473 C 683.3315088 473 714 480.835016 714 490.5 C 714 500.164984 683.3315088 508 645.5 508 C 607.6684912 508 577 500.164984 577 490.5 Z" fill-opacity="0.2"/></g><g><path fill="#ffffff" stroke="none" paint-order="stroke fill markers" d=" M 570 483.5 C 570 473.835016 600.6684912 466 638.5 466 C 676.3315088 466 707 473.835016 707 483.5 C 707 493.164984 676.3315088 501 638.5 501 C 600.6684912 501 570 493.164984 570 483.5 Z"/></g><g><path fill="none" stroke="#000000" paint-order="fill stroke markers" d=" M 570 483.5 C 570 473.835016 600.6684912 466 638.5 466 C 676.3315088 466 707 473.835016 707 483.5 C 707 493.164984 676.3315088 501 638.5 501 C 600.6684912 501 570 493.164984 570 483.5 Z" stroke-miterlimit="10" stroke-dasharray=""/></g><g><g><path fill="none" stroke="none"/><text fill="#000000" stroke="none" font-family="Arial" font-size="13px" font-style="normal" font-weight="bold" text-decoration="undefined" x="692.5" y="642.5" text-anchor="middle" dominant-baseline="central" transform="matrix(1 0 0 1 -54 -158)">identify stage</text></g></g><g><path fill="none" stroke="#000000" paint-order="fill stroke markers" d=" M 421 482 L 570 482" stroke-miterlimit="10" stroke-dasharray="3"/></g><g><path fill="none" stroke="#000000" paint-order="fill stroke markers" d=" M 559.8373251423759 486.209517756016 L 570 482 L 559.8373251423758 477.790482243984" stroke-miterlimit="10" stroke-dasharray=""/></g><g><rect fill="#ffffff" stroke="none" x="521" y="639" width="57.434051513671875" height="13" transform="matrix(1 0 0 1 -54 -158)"/></g><g><g><path fill="none" stroke="none"/><text fill="#000000" stroke="none" font-family="Arial" font-size="13px" font-style="normal" font-weight="normal" text-decoration="undefined" x="549.7170257568359" y="645.5" text-anchor="middle" dominant-baseline="central" transform="matrix(1 0 0 1 -54 -158)">«include»</text></g></g><g><path fill="#ffffff" stroke="none" paint-order="stroke fill markers" d=" M 892.8320352172851 499.85 C 892.8320352172851 494.96227952000004 896.7898375852851 491 901.6720352172852 491 C 906.5542328492852 491 910.5120352172852 494.96227952000004 910.5120352172852 499.85 C 910.5120352172852 504.73772048 906.5542328492852 508.70000000000005 901.6720352172852 508.70000000000005 C 896.7898375852851 508.70000000000005 892.8320352172851 504.73772048 892.8320352172851 499.85 Z"/></g><g><path fill="none" stroke="#000000" paint-order="fill stroke markers" d=" M 892.8320352172851 499.85 C 892.8320352172851 494.96227952000004 896.7898375852851 491 901.6720352172852 491 C 906.5542328492852 491 910.5120352172852 494.96227952000004 910.5120352172852 499.85 C 910.5120352172852 504.73772048 906.5542328492852 508.70000000000005 901.6720352172852 508.70000000000005 C 896.7898375852851 508.70000000000005 892.8320352172851 504.73772048 892.8320352172851 499.85 Z" stroke-miterlimit="10" stroke-dasharray=""/></g><g><path fill="none" stroke="#000000" paint-order="fill stroke markers" d=" M 901.6720352172852 508.70000000000005 L 901.6720352172852 526.3" stroke-miterlimit="10" stroke-dasharray=""/></g><g><path fill="none" stroke="#000000" paint-order="fill stroke markers" d=" M 892.3120352172851 515.3 L 911.0320352172852 515.3" stroke-miterlimit="10" stroke-dasharray=""/></g><g><path fill="none" stroke="#000000" paint-order="fill stroke markers" d=" M 901.6720352172852 526.3 L 888.6720352172852 544" stroke-miterlimit="10" stroke-dasharray=""/></g><g><path fill="none" stroke="#000000" paint-order="fill stroke markers" d=" M 901.6720352172852 526.3 L 914.6720352172852 544" stroke-miterlimit="10" stroke-dasharray=""/></g><g><g><path fill="none" stroke="none"/><text fill="#000000" stroke="none" font-family="Arial" font-size="13px" font-style="normal" font-weight="bold" text-decoration="undefined" x="956.1720352172852" y="716.5" text-anchor="middle" dominant-baseline="central" transform="matrix(1 0 0 1 -54 -158)">system</text></g></g><g><path fill="#C0C0C0" stroke="none" paint-order="stroke fill markers" d=" M 1257 570.5 C 1257 560.835016 1287.6684912 553 1325.5 553 C 1363.3315088 553 1394 560.835016 1394 570.5 C 1394 580.164984 1363.3315088 588 1325.5 588 C 1287.6684912 588 1257 580.164984 1257 570.5 Z" fill-opacity="0.2"/></g><g><path fill="#ffffff" stroke="none" paint-order="stroke fill markers" d=" M 1250 563.5 C 1250 553.835016 1280.6684912 546 1318.5 546 C 1356.3315088 546 1387 553.835016 1387 563.5 C 1387 573.164984 1356.3315088 581 1318.5 581 C 1280.6684912 581 1250 573.164984 1250 563.5 Z"/></g><g><path fill="none" stroke="#000000" paint-order="fill stroke markers" d=" M 1250 563.5 C 1250 553.835016 1280.6684912 546 1318.5 546 C 1356.3315088 546 1387 553.835016 1387 563.5 C 1387 573.164984 1356.3315088 581 1318.5 581 C 1280.6684912 581 1250 573.164984 1250 563.5 Z" stroke-miterlimit="10" stroke-dasharray=""/></g><g><g><path fill="none" stroke="none"/><text fill="#000000" stroke="none" font-family="Arial" font-size="13px" font-style="normal" font-weight="bold" text-decoration="undefined" x="1372.5" y="722.5" text-anchor="middle" dominant-baseline="central" transform="matrix(1 0 0 1 -54 -158)">identify stage</text></g></g><g><path fill="none" stroke="#000000" paint-order="fill stroke markers" d=" M 1139 502 L 1265 545" stroke-miterlimit="10" stroke-dasharray="3"/></g><g><path fill="none" stroke="#000000" paint-order="fill stroke markers" d=" M 1254.0223957901387 545.7015738105388 L 1265 545 L 1256.7415740230902 537.7337492209599" stroke-miterlimit="10" stroke-dasharray=""/></g><g><rect fill="#ffffff" stroke="none" x="1208" y="688" width="57.434051513671875" height="13" transform="matrix(1 0 0 1 -54 -158)"/></g><g><g><path fill="none" stroke="none"/><text fill="#000000" stroke="none" font-family="Arial" font-size="13px" font-style="normal" font-weight="normal" text-decoration="undefined" x="1236.717025756836" y="694.5" text-anchor="middle" dominant-baseline="central" transform="matrix(1 0 0 1 -54 -158)">«include»</text></g></g><g><path fill="none" stroke="#000000" paint-order="fill stroke markers" d=" M 1399 482 L 1442 482" stroke-miterlimit="10" stroke-dasharray=""/></g><g><path fill="#C0C0C0" stroke="none" paint-order="stroke fill markers" d=" M 1025 258.5 C 1025 248.835016 1055.6684912 241 1093.5 241 C 1131.3315088 241 1162 248.835016 1162 258.5 C 1162 268.164984 1131.3315088 276 1093.5 276 C 1055.6684912 276 1025 268.164984 1025 258.5 Z" fill-opacity="0.2"/></g><g><path fill="#ffffff" stroke="none" paint-order="stroke fill markers" d=" M 1018 251.5 C 1018 241.835016 1048.6684912 234 1086.5 234 C 1124.3315088 234 1155 241.835016 1155 251.5 C 1155 261.164984 1124.3315088 269 1086.5 269 C 1048.6684912 269 1018 261.164984 1018 251.5 Z"/></g><g><path fill="none" stroke="#000000" paint-order="fill stroke markers" d=" M 1018 251.5 C 1018 241.835016 1048.6684912 234 1086.5 234 C 1124.3315088 234 1155 241.835016 1155 251.5 C 1155 261.164984 1124.3315088 269 1086.5 269 C 1048.6684912 269 1018 261.164984 1018 251.5 Z" stroke-miterlimit="10" stroke-dasharray=""/></g><g><g><path fill="none" stroke="none"/><text fill="#000000" stroke="none" font-family="Arial" font-size="13px" font-style="normal" font-weight="bold" text-decoration="undefined" x="1140.5" y="410.5" text-anchor="middle" dominant-baseline="central" transform="matrix(1 0 0 1 -54 -158)">identify stage</text></g></g><g><path fill="#C0C0C0" stroke="none" paint-order="stroke fill markers" d=" M 209 594.5 C 209 584.835016 232.72890560000002 577 262 577 C 291.2710944 577 315 584.835016 315 594.5 C 315 604.164984 291.2710944 612 262 612 C 232.72890560000002 612 209 604.164984 209 594.5 Z" fill-opacity="0.2"/></g><g><path fill="#ffffff" stroke="none" paint-order="stroke fill markers" d=" M 202 587.5 C 202 577.835016 225.72890560000002 570 255 570 C 284.2710944 570 308 577.835016 308 587.5 C 308 597.164984 284.2710944 605 255 605 C 225.72890560000002 605 202 597.164984 202 587.5 Z"/></g><g><path fill="none" stroke="#000000" paint-order="fill stroke markers" d=" M 202 587.5 C 202 577.835016 225.72890560000002 570 255 570 C 284.2710944 570 308 577.835016 308 587.5 C 308 597.164984 284.2710944 605 255 605 C 225.72890560000002 605 202 597.164984 202 587.5 Z" stroke-miterlimit="10" stroke-dasharray=""/></g><g><g><path fill="none" stroke="none"/><text fill="#000000" stroke="none" font-family="Arial" font-size="13px" font-style="normal" font-weight="bold" text-decoration="undefined" x="309" y="746.5" text-anchor="middle" dominant-baseline="central" transform="matrix(1 0 0 1 -54 -158)">load stage</text></g></g><g><path fill="#C0C0C0" stroke="none" paint-order="stroke fill markers" d=" M 433 594.5 C 433 584.835016 456.7289056 577 486 577 C 515.2710944 577 539 584.835016 539 594.5 C 539 604.164984 515.2710944 612 486 612 C 456.7289056 612 433 604.164984 433 594.5 Z" fill-opacity="0.2"/></g><g><path fill="#ffffff" stroke="none" paint-order="stroke fill markers" d=" M 426 587.5 C 426 577.835016 449.7289056 570 479 570 C 508.27109440000004 570 532 577.835016 532 587.5 C 532 597.164984 508.27109440000004 605 479 605 C 449.7289056 605 426 597.164984 426 587.5 Z"/></g><g><path fill="none" stroke="#000000" paint-order="fill stroke markers" d=" M 426 587.5 C 426 577.835016 449.7289056 570 479 570 C 508.27109440000004 570 532 577.835016 532 587.5 C 532 597.164984 508.27109440000004 605 479 605 C 449.7289056 605 426 597.164984 426 587.5 Z" stroke-miterlimit="10" stroke-dasharray=""/></g><g><g><path fill="none" stroke="none"/><text fill="#000000" stroke="none" font-family="Arial" font-size="13px" font-style="normal" font-weight="bold" text-decoration="undefined" x="533" y="746.5" text-anchor="middle" dominant-baseline="central" transform="matrix(1 0 0 1 -54 -158)">load maze</text></g></g><g><path fill="#C0C0C0" stroke="none" paint-order="stroke fill markers" d=" M 569 570.5 C 569 560.835016 594.5197664 553 626 553 C 657.4802336 553 683 560.835016 683 570.5 C 683 580.164984 657.4802336 588 626 588 C 594.5197664 588 569 580.164984 569 570.5 Z" fill-opacity="0.2"/></g><g><path fill="#ffffff" stroke="none" paint-order="stroke fill markers" d=" M 562 563.5 C 562 553.835016 587.5197664 546 619 546 C 650.4802336 546 676 553.835016 676 563.5 C 676 573.164984 650.4802336 581 619 581 C 587.5197664 581 562 573.164984 562 563.5 Z"/></g><g><path fill="none" stroke="#000000" paint-order="fill stroke markers" d=" M 562 563.5 C 562 553.835016 587.5197664 546 619 546 C 650.4802336 546 676 553.835016 676 563.5 C 676 573.164984 650.4802336 581 619 581 C 587.5197664 581 562 573.164984 562 563.5 Z" stroke-miterlimit="10" stroke-dasharray=""/></g><g><g><path fill="none" stroke="none"/><text fill="#000000" stroke="none" font-family="Arial" font-size="13px" font-style="normal" font-weight="bold" text-decoration="undefined" x="673" y="722.5" text-anchor="middle" dominant-baseline="central" transform="matrix(1 0 0 1 -54 -158)">show stage</text></g></g><g><path fill="none" stroke="#000000" paint-order="fill stroke markers" d=" M 308 587 L 426 587" stroke-miterlimit="10" stroke-dasharray="3"/></g><g><path fill="none" stroke="#000000" paint-order="fill stroke markers" d=" M 415.83732514237585 591.209517756016 L 426 587 L 415.83732514237585 582.790482243984" stroke-miterlimit="10" stroke-dasharray=""/></g><g><rect fill="#ffffff" stroke="none" x="393" y="720" width="57.434051513671875" height="13" transform="matrix(1 0 0 1 -54 -158)"/></g><g><g><path fill="none" stroke="none"/><text fill="#000000" stroke="none" font-family="Arial" font-size="13px" font-style="normal" font-weight="normal" text-decoration="undefined" x="421.71702575683594" y="726.5" text-anchor="middle" dominant-baseline="central" transform="matrix(1 0 0 1 -54 -158)">«include»</text></g></g><g><path fill="#C0C0C0" stroke="none" paint-order="stroke fill markers" d=" M 593 610.5 C 593 600.835016 628.817216 593 673 593 C 717.182784 593 753 600.835016 753 610.5 C 753 620.164984 717.182784 628 673 628 C 628.817216 628 593 620.164984 593 610.5 Z" fill-opacity="0.2"/></g><g><path fill="#ffffff" stroke="none" paint-order="stroke fill markers" d=" M 586 603.5 C 586 593.835016 621.817216 586 666 586 C 710.182784 586 746 593.835016 746 603.5 C 746 613.164984 710.182784 621 666 621 C 621.817216 621 586 613.164984 586 603.5 Z"/></g><g><path fill="none" stroke="#000000" paint-order="fill stroke markers" d=" M 586 603.5 C 586 593.835016 621.817216 586 666 586 C 710.182784 586 746 593.835016 746 603.5 C 746 613.164984 710.182784 621 666 621 C 621.817216 621 586 613.164984 586 603.5 Z" stroke-miterlimit="10" stroke-dasharray=""/></g><g><g><path fill="none" stroke="none"/><text fill="#000000" stroke="none" font-family="Arial" font-size="13px" font-style="normal" font-weight="bold" text-decoration="undefined" x="720" y="762.5" text-anchor="middle" dominant-baseline="central" transform="matrix(1 0 0 1 -54 -158)">show game over</text></g></g><g><path fill="none" stroke="#000000" paint-order="fill stroke markers" d=" M 853 563 L 874 563" stroke-miterlimit="10" stroke-dasharray=""/></g><g><path fill="none" stroke="#000000" paint-order="fill stroke markers" d=" M 619 546 L 619 530 L 874 530" stroke-miterlimit="10" stroke-dasharray=""/></g><g><path fill="none" stroke="#000000" paint-order="fill stroke markers" d=" M 746 602 L 874 602 L 874 570" stroke-miterlimit="10" stroke-dasharray=""/></g><g><path fill="none" stroke="#000000" paint-order="fill stroke markers" d=" M 843 394 L 874 394 L 874 490" stroke-miterlimit="10" stroke-dasharray=""/></g><g><path fill="none" stroke="#000000" paint-order="fill stroke markers" d=" M 106 442 L 106 394 L 162 394" stroke-miterlimit="10" stroke-dasharray=""/></g><g><path fill="none" stroke="#000000" paint-order="fill stroke markers" d=" M 137 483 L 298 483" stroke-miterlimit="10" stroke-dasharray=""/></g><g><path fill="none" stroke="#000000" paint-order="fill stroke markers" d=" M 109 522 L 109 587 L 202 587" stroke-miterlimit="10" stroke-dasharray=""/></g><g><path fill="none" stroke="#000000" paint-order="fill stroke markers" d=" M 101 185 L 170 185" stroke-miterlimit="10" stroke-dasharray=""/></g><g><path fill="none" stroke="#000000" paint-order="fill stroke markers" d=" M 75 242 L 75 291 L 210 291" stroke-miterlimit="10" stroke-dasharray=""/></g><g><path fill="#ffffff" stroke="none" paint-order="stroke fill markers" d=" M 890.748623046875 371.85 C 890.748623046875 366.96227952000004 894.706425414875 363 899.588623046875 363 C 904.470820678875 363 908.428623046875 366.96227952000004 908.428623046875 371.85 C 908.428623046875 376.73772048 904.470820678875 380.70000000000005 899.588623046875 380.70000000000005 C 894.706425414875 380.70000000000005 890.748623046875 376.73772048 890.748623046875 371.85 Z"/></g><g><path fill="none" stroke="#000000" paint-order="fill stroke markers" d=" M 890.748623046875 371.85 C 890.748623046875 366.96227952000004 894.706425414875 363 899.588623046875 363 C 904.470820678875 363 908.428623046875 366.96227952000004 908.428623046875 371.85 C 908.428623046875 376.73772048 904.470820678875 380.70000000000005 899.588623046875 380.70000000000005 C 894.706425414875 380.70000000000005 890.748623046875 376.73772048 890.748623046875 371.85 Z" stroke-miterlimit="10" stroke-dasharray=""/></g><g><path fill="none" stroke="#000000" paint-order="fill stroke markers" d=" M 899.588623046875 380.70000000000005 L 899.588623046875 398.29999999999995" stroke-miterlimit="10" stroke-dasharray=""/></g><g><path fill="none" stroke="#000000" paint-order="fill stroke markers" d=" M 890.228623046875 387.29999999999995 L 908.948623046875 387.29999999999995" stroke-miterlimit="10" stroke-dasharray=""/></g><g><path fill="none" stroke="#000000" paint-order="fill stroke markers" d=" M 899.588623046875 398.29999999999995 L 886.588623046875 416" stroke-miterlimit="10" stroke-dasharray=""/></g><g><path fill="none" stroke="#000000" paint-order="fill stroke markers" d=" M 899.588623046875 398.29999999999995 L 912.588623046875 416" stroke-miterlimit="10" stroke-dasharray=""/></g><g><g><path fill="none" stroke="none"/><text fill="#000000" stroke="none" font-family="Arial" font-size="13px" font-style="normal" font-weight="bold" text-decoration="undefined" x="954.088623046875" y="588.5" text-anchor="middle" dominant-baseline="central" transform="matrix(1 0 0 1 -54 -158)">user</text></g></g><g><path fill="none" stroke="#000000" paint-order="fill stroke markers" d=" M 675 202 L 898 202 L 898 362" stroke-miterlimit="10" stroke-dasharray=""/></g><g><path fill="none" stroke="#000000" paint-order="fill stroke markers" d=" M 1226 251 L 1155 251" stroke-miterlimit="10" stroke-dasharray="3"/></g><g><path fill="none" stroke="#000000" paint-order="fill stroke markers" d=" M 1165.162674857624 246.790482243984 L 1155 251 L 1165.162674857624 255.209517756016" stroke-miterlimit="10" stroke-dasharray=""/></g><g><rect fill="#ffffff" stroke="none" x="1215" y="433" width="57.434051513671875" height="13" transform="matrix(1 0 0 1 -54 -158)"/></g><g><g><path fill="none" stroke="none"/><text fill="#000000" stroke="none" font-family="Arial" font-size="13px" font-style="normal" font-weight="normal" text-decoration="undefined" x="1243.717025756836" y="439.5" text-anchor="middle" dominant-baseline="central" transform="matrix(1 0 0 1 -54 -158)">«include»</text></g></g></g></svg>