<svg version="1.1" xmlns="http://www.w3.org/2000/svg" xmlns:xlink="http://www.w3.org/1999/xlink" width="1428" height="588"><defs/><g><g><path fill="none" stroke="#000000" paint-order="fill stroke markers" d=" M 10 10 L 1418 10 L 1418 578 L 10 578 L 10 10" stroke-miterlimit="10" stroke-dasharray=""/></g><g><path fill="#ffffff" stroke="none" paint-order="stroke fill markers" d=" M 10 10 L 10 33 L 137.2490234375 33 L 148.7490234375 21.5 L 148.7490234375 10 L 10 10"/></g><g><path fill="none" stroke="#000000" paint-order="fill stroke markers" d=" M 10 10 L 10 33 L 137.2490234375 33 L 148.7490234375 21.5 L 148.7490234375 10 L 10 10 L 10 10" stroke-miterlimit="10" stroke-dasharray=""/></g><g><g><path fill="none" stroke="none"/><text fill="#000000" stroke="none" font-family="Arial" font-size="13px" font-style="normal" font-weight="normal" text-decoration="undefined" x="121.43359375" y="251.5" text-anchor="middle" dominant-baseline="central" transform="matrix(1 0 0 1 -30 -230)">ClassDiagram</text></g></g><g><g><path fill="none" stroke="none"/><text fill="#000000" stroke="none" font-family="Arial" font-size="13px" font-style="normal" font-weight="bold" text-decoration="undefined" x="59.80908203125" y="251.5" text-anchor="middle" dominant-baseline="central" transform="matrix(1 0 0 1 -30 -230)">class</text></g></g><g><rect fill="#C0C0C0" stroke="none" x="711" y="279" width="341.7732238769531" height="131" transform="matrix(1 0 0 1 -30 -230)" fill-opacity="0.2"/></g><g><rect fill="#ffffff" stroke="none" x="704" y="272" width="341.7732238769531" height="131" transform="matrix(1 0 0 1 -30 -230)"/></g><g><path fill="none" stroke="#000000" paint-order="fill stroke markers" d=" M 674 42 L 1015.7732238769531 42 L 1015.7732238769531 173 L 674 173 L 674 42 Z Z" stroke-miterlimit="10" stroke-dasharray=""/></g><g><path fill="none" stroke="#000000" paint-order="fill stroke markers" d=" M 674 67 L 1015.7732238769531 67" stroke-miterlimit="10" stroke-dasharray=""/></g><g><path fill="none" stroke="#000000" paint-order="fill stroke markers" d=" M 674 105 L 1015.7732238769531 105" stroke-miterlimit="10" stroke-dasharray=""/></g><g><g><path fill="none" stroke="none"/><text fill="#000000" stroke="none" font-family="Arial" font-size="13px" font-style="normal" font-weight="bold" text-decoration="undefined" x="875.3866119384766" y="285.5" text-anchor="middle" dominant-baseline="central" transform="matrix(1 0 0 1 -30 -230)">Escaper</text></g></g><g><g><path fill="none" stroke="none"/><text fill="#000000" stroke="none" font-family="Arial" font-size="13px" font-style="normal" font-weight="normal" text-decoration="undefined" x="709" y="308.5" text-anchor="start" dominant-baseline="central" transform="matrix(1 0 0 1 -30 -230)">+death: boolean</text></g></g><g><g><path fill="none" stroke="none"/><text fill="#000000" stroke="none" font-family="Arial" font-size="13px" font-style="normal" font-weight="normal" text-decoration="undefined" x="709" y="323.5" text-anchor="start" dominant-baseline="central" transform="matrix(1 0 0 1 -30 -230)">-position: Position</text></g></g><g><g><path fill="none" stroke="none"/><text fill="#000000" stroke="none" font-family="Arial" font-size="13px" font-style="normal" font-weight="normal" text-decoration="undefined" x="709" y="346.5" text-anchor="start" dominant-baseline="central" transform="matrix(1 0 0 1 -30 -230)">+moveWithKeys(vertical: boolean, horziontal: boolean)</text></g></g><g><g><path fill="none" stroke="none"/><text fill="#000000" stroke="none" font-family="Arial" font-size="13px" font-style="normal" font-weight="normal" text-decoration="undefined" x="709" y="361.5" text-anchor="start" dominant-baseline="central" transform="matrix(1 0 0 1 -30 -230)">+eliminateMine(positionofMine: int)</text></g></g><g><g><path fill="none" stroke="none"/><text fill="#000000" stroke="none" font-family="Arial" font-size="13px" font-style="normal" font-weight="normal" text-decoration="undefined" x="709" y="376.5" text-anchor="start" dominant-baseline="central" transform="matrix(1 0 0 1 -30 -230)">+getPosition(): Position</text></g></g><g><g><path fill="none" stroke="none"/><text fill="#000000" stroke="none" font-family="Arial" font-size="13px" font-style="normal" font-weight="normal" text-decoration="undefined" x="709" y="391.5" text-anchor="start" dominant-baseline="central" transform="matrix(1 0 0 1 -30 -230)">+waitForKey()</text></g></g><g><rect fill="#C0C0C0" stroke="none" x="879" y="591" width="95.21507263183594" height="88" transform="matrix(1 0 0 1 -30 -230)" fill-opacity="0.2"/></g><g><rect fill="#ffffff" stroke="none" x="872" y="584" width="95.21507263183594" height="88" transform="matrix(1 0 0 1 -30 -230)"/></g><g><path fill="none" stroke="#000000" paint-order="fill stroke markers" d=" M 842 354 L 937.2150726318359 354 L 937.2150726318359 442 L 842 442 L 842 354 Z Z" stroke-miterlimit="10" stroke-dasharray=""/></g><g><path fill="none" stroke="#000000" paint-order="fill stroke markers" d=" M 842 379 L 937.2150726318359 379" stroke-miterlimit="10" stroke-dasharray=""/></g><g><path fill="none" stroke="#000000" paint-order="fill stroke markers" d=" M 842 389 L 937.2150726318359 389" stroke-miterlimit="10" stroke-dasharray=""/></g><g><g><path fill="none" stroke="none"/><text fill="#000000" stroke="none" font-family="Arial" font-size="13px" font-style="normal" font-weight="bold" text-decoration="undefined" x="920.107536315918" y="597.5" text-anchor="middle" dominant-baseline="central" transform="matrix(1 0 0 1 -30 -230)">MenuKey</text></g></g><g><g><path fill="none" stroke="none"/><text fill="#000000" stroke="none" font-family="Arial" font-size="13px" font-style="normal" font-weight="normal" text-decoration="undefined" x="877" y="630.5" text-anchor="start" dominant-baseline="central" transform="matrix(1 0 0 1 -30 -230)">+startGame()</text></g></g><g><g><path fill="none" stroke="none"/><text fill="#000000" stroke="none" font-family="Arial" font-size="13px" font-style="normal" font-weight="normal" text-decoration="undefined" x="877" y="645.5" text-anchor="start" dominant-baseline="central" transform="matrix(1 0 0 1 -30 -230)">+exitMenu()</text></g></g><g><g><path fill="none" stroke="none"/><text fill="#000000" stroke="none" font-family="Arial" font-size="13px" font-style="normal" font-weight="normal" text-decoration="undefined" x="877" y="660.5" text-anchor="start" dominant-baseline="central" transform="matrix(1 0 0 1 -30 -230)">+WaitForKey()</text></g></g><g><rect fill="#C0C0C0" stroke="none" x="351" y="279" width="242.9081268310547" height="88" transform="matrix(1 0 0 1 -30 -230)" fill-opacity="0.2"/></g><g><rect fill="#ffffff" stroke="none" x="344" y="272" width="242.9081268310547" height="88" transform="matrix(1 0 0 1 -30 -230)"/></g><g><path fill="none" stroke="#000000" paint-order="fill stroke markers" d=" M 314 42 L 556.9081268310547 42 L 556.9081268310547 130 L 314 130 L 314 42 Z Z" stroke-miterlimit="10" stroke-dasharray=""/></g><g><path fill="none" stroke="#000000" paint-order="fill stroke markers" d=" M 314 67 L 556.9081268310547 67" stroke-miterlimit="10" stroke-dasharray=""/></g><g><path fill="none" stroke="#000000" paint-order="fill stroke markers" d=" M 314 77 L 556.9081268310547 77" stroke-miterlimit="10" stroke-dasharray=""/></g><g><g><path fill="none" stroke="none"/><text fill="#000000" stroke="none" font-family="Arial" font-size="13px" font-style="normal" font-weight="bold" text-decoration="undefined" x="465.95406341552734" y="285.5" text-anchor="middle" dominant-baseline="central" transform="matrix(1 0 0 1 -30 -230)">Detector</text></g></g><g><g><path fill="none" stroke="none"/><text fill="#000000" stroke="none" font-family="Arial" font-size="13px" font-style="normal" font-weight="normal" text-decoration="undefined" x="349" y="318.5" text-anchor="start" dominant-baseline="central" transform="matrix(1 0 0 1 -30 -230)">+deleteWarningSign()</text></g></g><g><g><path fill="none" stroke="none"/><text fill="#000000" stroke="none" font-family="Arial" font-size="13px" font-style="normal" font-weight="normal" text-decoration="undefined" x="349" y="333.5" text-anchor="start" dominant-baseline="central" transform="matrix(1 0 0 1 -30 -230)">+ShowWarningSign(position: Position)</text></g></g><g><rect fill="#C0C0C0" stroke="none" x="1111" y="279" width="244.06517028808594" height="106" transform="matrix(1 0 0 1 -30 -230)" fill-opacity="0.2"/></g><g><rect fill="#ffffff" stroke="none" x="1104" y="272" width="244.06517028808594" height="106" transform="matrix(1 0 0 1 -30 -230)"/></g><g><path fill="none" stroke="#000000" paint-order="fill stroke markers" d=" M 1074 42 L 1318.065170288086 42 L 1318.065170288086 148 L 1074 148 L 1074 42 Z Z" stroke-miterlimit="10" stroke-dasharray=""/></g><g><path fill="none" stroke="#000000" paint-order="fill stroke markers" d=" M 1074 80 L 1318.065170288086 80" stroke-miterlimit="10" stroke-dasharray=""/></g><g><g><path fill="none" stroke="none"/><text fill="#000000" stroke="none" font-family="Arial" font-size="13px" font-style="normal" font-weight="normal" text-decoration="undefined" x="1226.532585144043" y="283.5" text-anchor="middle" dominant-baseline="central" transform="matrix(1 0 0 1 -30 -230)">«struct»</text></g></g><g><g><path fill="none" stroke="none"/><text fill="#000000" stroke="none" font-family="Arial" font-size="13px" font-style="normal" font-weight="bold" text-decoration="undefined" x="1226.532585144043" y="298.5" text-anchor="middle" dominant-baseline="central" transform="matrix(1 0 0 1 -30 -230)">MazeData</text></g></g><g><g><path fill="none" stroke="none"/><text fill="#000000" stroke="none" font-family="Arial" font-size="13px" font-style="normal" font-weight="normal" text-decoration="undefined" x="1109" y="321.5" text-anchor="start" dominant-baseline="central" transform="matrix(1 0 0 1 -30 -230)">+mazeBinaryData1: unsigned int[961]</text></g></g><g><g><path fill="none" stroke="none"/><text fill="#000000" stroke="none" font-family="Arial" font-size="13px" font-style="normal" font-weight="normal" text-decoration="undefined" x="1109" y="336.5" text-anchor="start" dominant-baseline="central" transform="matrix(1 0 0 1 -30 -230)">+mazeBinaryData2: unsigned int[2601]</text></g></g><g><rect fill="#C0C0C0" stroke="none" x="1111" y="407" width="233.82115173339844" height="64" transform="matrix(1 0 0 1 -30 -230)" fill-opacity="0.2"/></g><g><rect fill="#ffffff" stroke="none" x="1104" y="400" width="233.82115173339844" height="64" transform="matrix(1 0 0 1 -30 -230)"/></g><g><path fill="none" stroke="#000000" paint-order="fill stroke markers" d=" M 1074 170 L 1307.8211517333984 170 L 1307.8211517333984 234 L 1074 234 L 1074 170 Z Z" stroke-miterlimit="10" stroke-dasharray=""/></g><g><path fill="none" stroke="#000000" paint-order="fill stroke markers" d=" M 1074 195 L 1307.8211517333984 195" stroke-miterlimit="10" stroke-dasharray=""/></g><g><path fill="none" stroke="#000000" paint-order="fill stroke markers" d=" M 1074 205 L 1307.8211517333984 205" stroke-miterlimit="10" stroke-dasharray=""/></g><g><g><path fill="none" stroke="none"/><text fill="#000000" stroke="none" font-family="Arial" font-size="13px" font-style="normal" font-weight="bold" text-decoration="undefined" x="1221.4105758666992" y="413.5" text-anchor="middle" dominant-baseline="central" transform="matrix(1 0 0 1 -30 -230)">Maze</text></g></g><g><g><path fill="none" stroke="none"/><text fill="#000000" stroke="none" font-family="Arial" font-size="13px" font-style="normal" font-weight="normal" text-decoration="undefined" x="1109" y="446.5" text-anchor="start" dominant-baseline="central" transform="matrix(1 0 0 1 -30 -230)">+Maze(stageNum: unsigned int)</text></g></g><g><path fill="none" stroke="#000000" paint-order="fill stroke markers" d=" M 1191 170 L 1191 148" stroke-miterlimit="10" stroke-dasharray="3"/></g><g><path fill="none" stroke="#000000" paint-order="fill stroke markers" d=" M 1195.2095177560159 158.16267485762415 L 1191 148 L 1186.7904822439841 158.16267485762415" stroke-miterlimit="10" stroke-dasharray=""/></g><g><rect fill="#C0C0C0" stroke="none" x="1023" y="487" width="418.44720458984375" height="191" transform="matrix(1 0 0 1 -30 -230)" fill-opacity="0.2"/></g><g><rect fill="#ffffff" stroke="none" x="1016" y="480" width="418.44720458984375" height="191" transform="matrix(1 0 0 1 -30 -230)"/></g><g><path fill="none" stroke="#000000" paint-order="fill stroke markers" d=" M 986 250 L 1404.4472045898438 250 L 1404.4472045898438 441 L 986 441 L 986 250 Z Z" stroke-miterlimit="10" stroke-dasharray=""/></g><g><path fill="none" stroke="#000000" paint-order="fill stroke markers" d=" M 986 275 L 1404.4472045898438 275" stroke-miterlimit="10" stroke-dasharray=""/></g><g><path fill="none" stroke="#000000" paint-order="fill stroke markers" d=" M 986 298 L 1404.4472045898438 298" stroke-miterlimit="10" stroke-dasharray=""/></g><g><g><path fill="none" stroke="none"/><text fill="#000000" stroke="none" font-family="Arial" font-size="13px" font-style="normal" font-weight="bold" text-decoration="undefined" x="1225.7236022949219" y="493.5" text-anchor="middle" dominant-baseline="central" transform="matrix(1 0 0 1 -30 -230)">Stage</text></g></g><g><g><path fill="none" stroke="none"/><text fill="#000000" stroke="none" font-family="Arial" font-size="13px" font-style="normal" font-weight="normal" text-decoration="undefined" x="1021" y="516.5" text-anchor="start" dominant-baseline="central" transform="matrix(1 0 0 1 -30 -230)">-stageNum: unsigned int</text></g></g><g><g><path fill="none" stroke="none"/><text fill="#000000" stroke="none" font-family="Arial" font-size="13px" font-style="normal" font-weight="normal" text-decoration="undefined" x="1021" y="539.5" text-anchor="start" dominant-baseline="central" transform="matrix(1 0 0 1 -30 -230)">+loadStage()</text></g></g><g><g><path fill="none" stroke="none"/><text fill="#000000" stroke="none" font-family="Arial" font-size="13px" font-style="normal" font-weight="normal" text-decoration="undefined" x="1021" y="554.5" text-anchor="start" dominant-baseline="central" transform="matrix(1 0 0 1 -30 -230)">+loadMaze()</text></g></g><g><g><path fill="none" stroke="none"/><text fill="#000000" stroke="none" font-family="Arial" font-size="13px" font-style="normal" font-weight="normal" text-decoration="undefined" x="1021" y="569.5" text-anchor="start" dominant-baseline="central" transform="matrix(1 0 0 1 -30 -230)">+showStage()</text></g></g><g><g><path fill="none" stroke="none"/><text fill="#000000" stroke="none" font-family="Arial" font-size="13px" font-style="normal" font-weight="normal" text-decoration="undefined" x="1021" y="584.5" text-anchor="start" dominant-baseline="central" transform="matrix(1 0 0 1 -30 -230)">+gameOver()</text></g></g><g><g><path fill="none" stroke="none"/><text fill="#000000" stroke="none" font-family="Arial" font-size="13px" font-style="normal" font-weight="normal" text-decoration="undefined" x="1021" y="599.5" text-anchor="start" dominant-baseline="central" transform="matrix(1 0 0 1 -30 -230)">-isEscaperDead()</text></g></g><g><g><path fill="none" stroke="none"/><text fill="#000000" stroke="none" font-family="Arial" font-size="13px" font-style="normal" font-weight="normal" text-decoration="undefined" x="1021" y="614.5" text-anchor="start" dominant-baseline="central" transform="matrix(1 0 0 1 -30 -230)">+getStageNum(): unsigned int</text></g></g><g><g><path fill="none" stroke="none"/><text fill="#000000" stroke="none" font-family="Arial" font-size="13px" font-style="normal" font-weight="normal" text-decoration="undefined" x="1021" y="629.5" text-anchor="start" dominant-baseline="central" transform="matrix(1 0 0 1 -30 -230)">+createLandMine(mazeData: MazeData, stageNum: unsigned int)</text></g></g><g><g><path fill="none" stroke="none"/><text fill="#000000" stroke="none" font-family="Arial" font-size="13px" font-style="normal" font-weight="normal" text-decoration="undefined" x="1021" y="644.5" text-anchor="start" dominant-baseline="central" transform="matrix(1 0 0 1 -30 -230)">-setRandomPosition(mazeData: MazeData, stageNum: unsigned int)</text></g></g><g><g><path fill="none" stroke="none"/><text fill="#000000" stroke="none" font-family="Arial" font-size="13px" font-style="normal" font-weight="normal" text-decoration="undefined" x="1021" y="659.5" text-anchor="start" dominant-baseline="central" transform="matrix(1 0 0 1 -30 -230)">+deleteMaze()</text></g></g><g><path fill="none" stroke="#000000" paint-order="fill stroke markers" d=" M 1187 250 L 1187 234" stroke-miterlimit="10" stroke-dasharray=""/></g><g><rect fill="#C0C0C0" stroke="none" x="695" y="463" width="296" height="116" transform="matrix(1 0 0 1 -30 -230)" fill-opacity="0.2"/></g><g><rect fill="#ffffff" stroke="none" x="688" y="456" width="296" height="116" transform="matrix(1 0 0 1 -30 -230)"/></g><g><path fill="none" stroke="#000000" paint-order="fill stroke markers" d=" M 658 226 L 954 226 L 954 342 L 658 342 L 658 226 Z Z" stroke-miterlimit="10" stroke-dasharray=""/></g><g><path fill="none" stroke="#000000" paint-order="fill stroke markers" d=" M 658 251 L 954 251" stroke-miterlimit="10" stroke-dasharray=""/></g><g><path fill="none" stroke="#000000" paint-order="fill stroke markers" d=" M 658 289 L 954 289" stroke-miterlimit="10" stroke-dasharray=""/></g><g><g><path fill="none" stroke="none"/><text fill="#000000" stroke="none" font-family="Arial" font-size="13px" font-style="normal" font-weight="bold" text-decoration="undefined" x="836.5" y="469.5" text-anchor="middle" dominant-baseline="central" transform="matrix(1 0 0 1 -30 -230)">LandMine</text></g></g><g><g><path fill="none" stroke="none"/><text fill="#000000" stroke="none" font-family="Arial" font-size="13px" font-style="normal" font-weight="normal" text-decoration="undefined" x="693" y="492.5" text-anchor="start" dominant-baseline="central" transform="matrix(1 0 0 1 -30 -230)">-positon: Position</text></g></g><g><g><path fill="none" stroke="none"/><text fill="#000000" stroke="none" font-family="Arial" font-size="13px" font-style="normal" font-weight="normal" text-decoration="undefined" x="693" y="507.5" text-anchor="start" dominant-baseline="central" transform="matrix(1 0 0 1 -30 -230)">-activation: boolean = True</text></g></g><g><g><path fill="none" stroke="none"/><text fill="#000000" stroke="none" font-family="Arial" font-size="13px" font-style="normal" font-weight="normal" text-decoration="undefined" x="693" y="530.5" text-anchor="start" dominant-baseline="central" transform="matrix(1 0 0 1 -30 -230)">+explodeWithEscaper()</text></g></g><g><g><path fill="none" stroke="none"/><text fill="#000000" stroke="none" font-family="Arial" font-size="13px" font-style="normal" font-weight="normal" text-decoration="undefined" x="693" y="545.5" text-anchor="start" dominant-baseline="central" transform="matrix(1 0 0 1 -30 -230)">+deactivate()</text></g></g><g><g><path fill="none" stroke="none"/><text fill="#000000" stroke="none" font-family="Arial" font-size="13px" font-style="normal" font-weight="normal" text-decoration="undefined" x="693" y="560.5" text-anchor="start" dominant-baseline="central" transform="matrix(1 0 0 1 -30 -230)">+getPosition(): Position</text></g></g><g><rect fill="#C0C0C0" stroke="none" x="383" y="463" width="73.2353515625" height="76" transform="matrix(1 0 0 1 -30 -230)" fill-opacity="0.2"/></g><g><rect fill="#ffffff" stroke="none" x="376" y="456" width="73.2353515625" height="76" transform="matrix(1 0 0 1 -30 -230)"/></g><g><path fill="none" stroke="#000000" paint-order="fill stroke markers" d=" M 346 226 L 419.2353515625 226 L 419.2353515625 302 L 346 302 L 346 226 Z Z" stroke-miterlimit="10" stroke-dasharray=""/></g><g><path fill="none" stroke="#000000" paint-order="fill stroke markers" d=" M 346 264 L 419.2353515625 264" stroke-miterlimit="10" stroke-dasharray=""/></g><g><g><path fill="none" stroke="none"/><text fill="#000000" stroke="none" font-family="Arial" font-size="13px" font-style="normal" font-weight="normal" text-decoration="undefined" x="413.11767578125" y="467.5" text-anchor="middle" dominant-baseline="central" transform="matrix(1 0 0 1 -30 -230)">«struct»</text></g></g><g><g><path fill="none" stroke="none"/><text fill="#000000" stroke="none" font-family="Arial" font-size="13px" font-style="normal" font-weight="bold" text-decoration="undefined" x="413.11767578125" y="482.5" text-anchor="middle" dominant-baseline="central" transform="matrix(1 0 0 1 -30 -230)">Postition</text></g></g><g><g><path fill="none" stroke="none"/><text fill="#000000" stroke="none" font-family="Arial" font-size="13px" font-style="normal" font-weight="normal" text-decoration="undefined" x="381" y="505.5" text-anchor="start" dominant-baseline="central" transform="matrix(1 0 0 1 -30 -230)">+x: int</text></g></g><g><g><path fill="none" stroke="none"/><text fill="#000000" stroke="none" font-family="Arial" font-size="13px" font-style="normal" font-weight="normal" text-decoration="undefined" x="381" y="520.5" text-anchor="start" dominant-baseline="central" transform="matrix(1 0 0 1 -30 -230)">+y: int</text></g></g><g><path fill="none" stroke="#000000" paint-order="fill stroke markers" d=" M 746 173 L 746 226" stroke-miterlimit="10" stroke-dasharray=""/></g><g><rect fill="#C0C0C0" stroke="none" x="343" y="607" width="213.33311462402344" height="48" transform="matrix(1 0 0 1 -30 -230)" fill-opacity="0.2"/></g><g><rect fill="#ffffff" stroke="none" x="336" y="600" width="213.33311462402344" height="48" transform="matrix(1 0 0 1 -30 -230)"/></g><g><path fill="none" stroke="#000000" paint-order="fill stroke markers" d=" M 306 370 L 519.3331146240234 370 L 519.3331146240234 418 L 306 418 L 306 370 Z Z" stroke-miterlimit="10" stroke-dasharray=""/></g><g><path fill="none" stroke="#000000" paint-order="fill stroke markers" d=" M 306 395 L 519.3331146240234 395" stroke-miterlimit="10" stroke-dasharray=""/></g><g><g><path fill="none" stroke="none"/><text fill="#000000" stroke="none" font-family="Arial" font-size="13px" font-style="normal" font-weight="bold" text-decoration="undefined" x="443.1665573120117" y="613.5" text-anchor="middle" dominant-baseline="central" transform="matrix(1 0 0 1 -30 -230)">EscaperBoundaryClass</text></g></g><g><g><path fill="none" stroke="none"/><text fill="#000000" stroke="none" font-family="Arial" font-size="13px" font-style="normal" font-weight="normal" text-decoration="undefined" x="341" y="636.5" text-anchor="start" dominant-baseline="central" transform="matrix(1 0 0 1 -30 -230)">+isInBoundary(position: Position)</text></g></g><g><rect fill="#C0C0C0" stroke="none" x="87" y="519" width="213.33311462402344" height="48" transform="matrix(1 0 0 1 -30 -230)" fill-opacity="0.2"/></g><g><rect fill="#ffffff" stroke="none" x="80" y="512" width="213.33311462402344" height="48" transform="matrix(1 0 0 1 -30 -230)"/></g><g><path fill="none" stroke="#000000" paint-order="fill stroke markers" d=" M 50 282 L 263.33311462402344 282 L 263.33311462402344 330 L 50 330 L 50 282 Z Z" stroke-miterlimit="10" stroke-dasharray=""/></g><g><path fill="none" stroke="#000000" paint-order="fill stroke markers" d=" M 50 307 L 263.33311462402344 307" stroke-miterlimit="10" stroke-dasharray=""/></g><g><g><path fill="none" stroke="none"/><text fill="#000000" stroke="none" font-family="Arial" font-size="13px" font-style="normal" font-weight="bold" text-decoration="undefined" x="187.16655731201172" y="525.5" text-anchor="middle" dominant-baseline="central" transform="matrix(1 0 0 1 -30 -230)">KillerBoundaryClass</text></g></g><g><g><path fill="none" stroke="none"/><text fill="#000000" stroke="none" font-family="Arial" font-size="13px" font-style="normal" font-weight="normal" text-decoration="undefined" x="85" y="548.5" text-anchor="start" dominant-baseline="central" transform="matrix(1 0 0 1 -30 -230)">+isInBoundary(position: Position)</text></g></g><g><rect fill="#C0C0C0" stroke="none" x="407" y="399" width="213.33311462402344" height="48" transform="matrix(1 0 0 1 -30 -230)" fill-opacity="0.2"/></g><g><rect fill="#ffffff" stroke="none" x="400" y="392" width="213.33311462402344" height="48" transform="matrix(1 0 0 1 -30 -230)"/></g><g><path fill="none" stroke="#000000" paint-order="fill stroke markers" d=" M 370 162 L 583.3331146240234 162 L 583.3331146240234 210 L 370 210 L 370 162 Z Z" stroke-miterlimit="10" stroke-dasharray=""/></g><g><path fill="none" stroke="#000000" paint-order="fill stroke markers" d=" M 370 187 L 583.3331146240234 187" stroke-miterlimit="10" stroke-dasharray=""/></g><g><g><path fill="none" stroke="none"/><text fill="#000000" stroke="none" font-family="Arial" font-size="13px" font-style="normal" font-weight="bold" text-decoration="undefined" x="507.1665573120117" y="405.5" text-anchor="middle" dominant-baseline="central" transform="matrix(1 0 0 1 -30 -230)">LandMineBoundaryClass</text></g></g><g><g><path fill="none" stroke="none"/><text fill="#000000" stroke="none" font-family="Arial" font-size="13px" font-style="normal" font-weight="normal" text-decoration="undefined" x="405" y="428.5" text-anchor="start" dominant-baseline="central" transform="matrix(1 0 0 1 -30 -230)">+isInBoundary(position: Position)</text></g></g><g><rect fill="#C0C0C0" stroke="none" x="1111" y="695" width="233.93817138671875" height="101" transform="matrix(1 0 0 1 -30 -230)" fill-opacity="0.2"/></g><g><rect fill="#ffffff" stroke="none" x="1104" y="688" width="233.93817138671875" height="101" transform="matrix(1 0 0 1 -30 -230)"/></g><g><path fill="none" stroke="#000000" paint-order="fill stroke markers" d=" M 1074 458 L 1307.9381713867188 458 L 1307.9381713867188 559 L 1074 559 L 1074 458 Z Z" stroke-miterlimit="10" stroke-dasharray=""/></g><g><path fill="none" stroke="#000000" paint-order="fill stroke markers" d=" M 1074 483 L 1307.9381713867188 483" stroke-miterlimit="10" stroke-dasharray=""/></g><g><path fill="none" stroke="#000000" paint-order="fill stroke markers" d=" M 1074 506 L 1307.9381713867188 506" stroke-miterlimit="10" stroke-dasharray=""/></g><g><g><path fill="none" stroke="none"/><text fill="#000000" stroke="none" font-family="Arial" font-size="13px" font-style="normal" font-weight="bold" text-decoration="undefined" x="1221.4690856933594" y="701.5" text-anchor="middle" dominant-baseline="central" transform="matrix(1 0 0 1 -30 -230)">Rule</text></g></g><g><g><path fill="none" stroke="none"/><text fill="#000000" stroke="none" font-family="Arial" font-size="13px" font-style="normal" font-weight="normal" text-decoration="undefined" x="1109" y="724.5" text-anchor="start" dominant-baseline="central" transform="matrix(1 0 0 1 -30 -230)">-page: unsigned int</text></g></g><g><g><path fill="none" stroke="none"/><text fill="#000000" stroke="none" font-family="Arial" font-size="13px" font-style="normal" font-weight="normal" text-decoration="undefined" x="1109" y="747.5" text-anchor="start" dominant-baseline="central" transform="matrix(1 0 0 1 -30 -230)">+moveWithKeys(horizontal: boolean)</text></g></g><g><g><path fill="none" stroke="none"/><text fill="#000000" stroke="none" font-family="Arial" font-size="13px" font-style="normal" font-weight="normal" text-decoration="undefined" x="1109" y="762.5" text-anchor="start" dominant-baseline="central" transform="matrix(1 0 0 1 -30 -230)">+checkPageBoarder()</text></g></g><g><g><path fill="none" stroke="none"/><text fill="#000000" stroke="none" font-family="Arial" font-size="13px" font-style="normal" font-weight="normal" text-decoration="undefined" x="1109" y="777.5" text-anchor="start" dominant-baseline="central" transform="matrix(1 0 0 1 -30 -230)">+WaitForKey()</text></g></g><g><rect fill="#C0C0C0" stroke="none" x="879" y="719" width="95.21507263183594" height="91" transform="matrix(1 0 0 1 -30 -230)" fill-opacity="0.2"/></g><g><rect fill="#ffffff" stroke="none" x="872" y="712" width="95.21507263183594" height="91" transform="matrix(1 0 0 1 -30 -230)"/></g><g><path fill="none" stroke="#000000" paint-order="fill stroke markers" d=" M 842 482 L 937.2150726318359 482 L 937.2150726318359 573 L 842 573 L 842 482 Z Z" stroke-miterlimit="10" stroke-dasharray=""/></g><g><path fill="none" stroke="#000000" paint-order="fill stroke markers" d=" M 842 520 L 937.2150726318359 520" stroke-miterlimit="10" stroke-dasharray=""/></g><g><g><path fill="none" stroke="none"/><text fill="#000000" stroke="none" font-family="Arial" font-size="13px" font-style="normal" font-weight="normal" text-decoration="undefined" x="920.107536315918" y="723.5" text-anchor="middle" dominant-baseline="central" transform="matrix(1 0 0 1 -30 -230)">«interface»</text></g></g><g><g><path fill="none" stroke="none"/><text fill="#000000" stroke="none" font-family="Arial" font-size="13px" font-style="normal" font-weight="bold" text-decoration="undefined" x="920.107536315918" y="738.5" text-anchor="middle" dominant-baseline="central" transform="matrix(1 0 0 1 -30 -230)">MainKey</text></g></g><g><g><path fill="none" stroke="none"/><text fill="#000000" stroke="none" font-family="Arial" font-size="13px" font-style="normal" font-weight="normal" text-decoration="undefined" x="877" y="761.5" text-anchor="start" dominant-baseline="central" transform="matrix(1 0 0 1 -30 -230)">+startGame()</text></g></g><g><g><path fill="none" stroke="none"/><text fill="#000000" stroke="none" font-family="Arial" font-size="13px" font-style="normal" font-weight="normal" text-decoration="undefined" x="877" y="776.5" text-anchor="start" dominant-baseline="central" transform="matrix(1 0 0 1 -30 -230)">+exitMenu()</text></g></g><g><g><path fill="none" stroke="none"/><text fill="#000000" stroke="none" font-family="Arial" font-size="13px" font-style="normal" font-weight="normal" text-decoration="undefined" x="877" y="791.5" text-anchor="start" dominant-baseline="central" transform="matrix(1 0 0 1 -30 -230)">+WaitForKey()</text></g></g><g><path fill="none" stroke="#000000" paint-order="fill stroke markers" d=" M 1074 520 L 937 520" stroke-miterlimit="10" stroke-dasharray="3"/></g><g><path fill="none" stroke="#000000" paint-order="fill stroke markers" d=" M 947.1626748576241 515.790482243984 L 937 520 L 947.1626748576241 524.209517756016" stroke-miterlimit="10" stroke-dasharray=""/></g><g><rect fill="#C0C0C0" stroke="none" x="695" y="735" width="114.55908203125" height="73" transform="matrix(1 0 0 1 -30 -230)" fill-opacity="0.2"/></g><g><rect fill="#ffffff" stroke="none" x="688" y="728" width="114.55908203125" height="73" transform="matrix(1 0 0 1 -30 -230)"/></g><g><path fill="none" stroke="#000000" paint-order="fill stroke markers" d=" M 658 498 L 772.55908203125 498 L 772.55908203125 571 L 658 571 L 658 498 Z Z" stroke-miterlimit="10" stroke-dasharray=""/></g><g><path fill="none" stroke="#000000" paint-order="fill stroke markers" d=" M 658 523 L 772.55908203125 523" stroke-miterlimit="10" stroke-dasharray=""/></g><g><path fill="none" stroke="#000000" paint-order="fill stroke markers" d=" M 658 533 L 772.55908203125 533" stroke-miterlimit="10" stroke-dasharray=""/></g><g><g><path fill="none" stroke="none"/><text fill="#000000" stroke="none" font-family="Arial" font-size="13px" font-style="normal" font-weight="bold" text-decoration="undefined" x="745.779541015625" y="741.5" text-anchor="middle" dominant-baseline="central" transform="matrix(1 0 0 1 -30 -230)">Menu</text></g></g><g><g><path fill="none" stroke="none"/><text fill="#000000" stroke="none" font-family="Arial" font-size="13px" font-style="normal" font-weight="normal" text-decoration="undefined" x="693" y="774.5" text-anchor="start" dominant-baseline="central" transform="matrix(1 0 0 1 -30 -230)">+checkForRules()</text></g></g><g><g><path fill="none" stroke="none"/><text fill="#000000" stroke="none" font-family="Arial" font-size="13px" font-style="normal" font-weight="normal" text-decoration="undefined" x="693" y="789.5" text-anchor="start" dominant-baseline="central" transform="matrix(1 0 0 1 -30 -230)">+WaitForKey()</text></g></g><g><path fill="none" stroke="#000000" paint-order="fill stroke markers" d=" M 773 520 L 842 520" stroke-miterlimit="10" stroke-dasharray="3"/></g><g><path fill="none" stroke="#000000" paint-order="fill stroke markers" d=" M 831.8373251423759 524.209517756016 L 842 520 L 831.8373251423758 515.790482243984" stroke-miterlimit="10" stroke-dasharray=""/></g><g><path fill="none" stroke="#000000" paint-order="fill stroke markers" d=" M 890 442 L 890 482" stroke-miterlimit="10" stroke-dasharray="3"/></g><g><path fill="#FFFFFF" stroke="none" paint-order="stroke fill markers" d=" M 881.580964487968 461.6746502847517 L 890 482 L 898.419035512032 461.6746502847517"/></g><g><path fill="none" stroke="#000000" paint-order="fill stroke markers" d=" M 881.580964487968 461.6746502847517 L 890 482 L 898.419035512032 461.6746502847517 L 881.580964487968 461.6746502847517" stroke-miterlimit="10" stroke-dasharray=""/></g><g><rect fill="#C0C0C0" stroke="none" x="111" y="279" width="225.5531463623047" height="176" transform="matrix(1 0 0 1 -30 -230)" fill-opacity="0.2"/></g><g><rect fill="#ffffff" stroke="none" x="104" y="272" width="225.5531463623047" height="176" transform="matrix(1 0 0 1 -30 -230)"/></g><g><path fill="none" stroke="#000000" paint-order="fill stroke markers" d=" M 74 42 L 299.5531463623047 42 L 299.5531463623047 218 L 74 218 L 74 42 Z Z" stroke-miterlimit="10" stroke-dasharray=""/></g><g><path fill="none" stroke="#000000" paint-order="fill stroke markers" d=" M 74 67 L 299.5531463623047 67" stroke-miterlimit="10" stroke-dasharray=""/></g><g><path fill="none" stroke="#000000" paint-order="fill stroke markers" d=" M 74 105 L 299.5531463623047 105" stroke-miterlimit="10" stroke-dasharray=""/></g><g><g><path fill="none" stroke="none"/><text fill="#000000" stroke="none" font-family="Arial" font-size="13px" font-style="normal" font-weight="bold" text-decoration="undefined" x="217.27657318115234" y="285.5" text-anchor="middle" dominant-baseline="central" transform="matrix(1 0 0 1 -30 -230)">Killer</text></g></g><g><g><path fill="none" stroke="none"/><text fill="#000000" stroke="none" font-family="Arial" font-size="13px" font-style="normal" font-weight="normal" text-decoration="undefined" x="109" y="308.5" text-anchor="start" dominant-baseline="central" transform="matrix(1 0 0 1 -30 -230)">-speed: unsigned int</text></g></g><g><g><path fill="none" stroke="none"/><text fill="#000000" stroke="none" font-family="Arial" font-size="13px" font-style="normal" font-weight="normal" text-decoration="undefined" x="109" y="323.5" text-anchor="start" dominant-baseline="central" transform="matrix(1 0 0 1 -30 -230)">-position: Position</text></g></g><g><g><path fill="none" stroke="none"/><text fill="#000000" stroke="none" font-family="Arial" font-size="13px" font-style="normal" font-weight="normal" text-decoration="undefined" x="109" y="346.5" text-anchor="start" dominant-baseline="central" transform="matrix(1 0 0 1 -30 -230)">+setSpeed(stageNum: unsigned int)</text></g></g><g><g><path fill="none" stroke="none"/><text fill="#000000" stroke="none" font-family="Arial" font-size="13px" font-style="normal" font-weight="normal" text-decoration="undefined" x="109" y="361.5" text-anchor="start" dominant-baseline="central" transform="matrix(1 0 0 1 -30 -230)">+followEscaper(escaper: Escaper)</text></g></g><g><g><path fill="none" stroke="none"/><text fill="#000000" stroke="none" font-family="Arial" font-size="13px" font-style="normal" font-weight="normal" text-decoration="undefined" x="109" y="376.5" text-anchor="start" dominant-baseline="central" transform="matrix(1 0 0 1 -30 -230)">+killEscaper(escaper: Escaper)</text></g></g><g><g><path fill="none" stroke="none"/><text fill="#000000" stroke="none" font-family="Arial" font-size="13px" font-style="normal" font-weight="normal" text-decoration="undefined" x="109" y="391.5" text-anchor="start" dominant-baseline="central" transform="matrix(1 0 0 1 -30 -230)">+swingSword()</text></g></g><g><g><path fill="none" stroke="none"/><text fill="#000000" stroke="none" font-family="Arial" font-size="13px" font-style="normal" font-weight="normal" text-decoration="undefined" x="109" y="406.5" text-anchor="start" dominant-baseline="central" transform="matrix(1 0 0 1 -30 -230)">+getPosition(): Position</text></g></g><g><path fill="none" stroke="#000000" paint-order="fill stroke markers" d=" M 300 116 L 314 116" stroke-miterlimit="10" stroke-dasharray="3"/></g><g><path fill="none" stroke="#000000" paint-order="fill stroke markers" d=" M 303.83732514237585 120.209517756016 L 314 116 L 303.83732514237585 111.790482243984" stroke-miterlimit="10" stroke-dasharray=""/></g><g><path fill="none" stroke="#000000" paint-order="fill stroke markers" d=" M 986 306 L 954 306" stroke-miterlimit="10" stroke-dasharray=""/></g><g><path fill="none" stroke="#000000" paint-order="fill stroke markers" d=" M 964.1626748576241 301.790482243984 L 954 306 L 964.1626748576241 310.209517756016" stroke-miterlimit="10" stroke-dasharray=""/></g><g><path fill="none" stroke="#000000" paint-order="fill stroke markers" d=" M 519 394 L 602 394 L 602 173 L 674 173" stroke-miterlimit="10" stroke-dasharray="3"/></g><g><path fill="none" stroke="#000000" paint-order="fill stroke markers" d=" M 663.8373251423759 177.209517756016 L 674 173 L 663.8373251423758 168.790482243984" stroke-miterlimit="10" stroke-dasharray=""/></g><g><path fill="none" stroke="#000000" paint-order="fill stroke markers" d=" M 182 282 L 182 218" stroke-miterlimit="10" stroke-dasharray="3"/></g><g><path fill="none" stroke="#000000" paint-order="fill stroke markers" d=" M 186.209517756016 228.16267485762415 L 182 218 L 177.790482243984 228.16267485762415" stroke-miterlimit="10" stroke-dasharray=""/></g><g><path fill="none" stroke="#000000" paint-order="fill stroke markers" d=" M 170 282 L 170 264 L 346 264" stroke-miterlimit="10" stroke-dasharray="3"/></g><g><path fill="none" stroke="#000000" paint-order="fill stroke markers" d=" M 335.83732514237585 268.209517756016 L 346 264 L 335.83732514237585 259.790482243984" stroke-miterlimit="10" stroke-dasharray=""/></g><g><path fill="none" stroke="#000000" paint-order="fill stroke markers" d=" M 406 369 L 391 303" stroke-miterlimit="10" stroke-dasharray="3"/></g><g><path fill="none" stroke="#000000" paint-order="fill stroke markers" d=" M 397.35710228829123 311.9770401857295 L 391 303 L 389.1474241464338 313.8428761270608" stroke-miterlimit="10" stroke-dasharray=""/></g><g><path fill="none" stroke="#000000" paint-order="fill stroke markers" d=" M 474 210 L 474 254 L 419 254" stroke-miterlimit="10" stroke-dasharray="3"/></g><g><path fill="none" stroke="#000000" paint-order="fill stroke markers" d=" M 429.16267485762415 249.790482243984 L 419 254 L 429.16267485762415 258.209517756016" stroke-miterlimit="10" stroke-dasharray=""/></g><g><path fill="none" stroke="#000000" paint-order="fill stroke markers" d=" M 474 130 L 474 162" stroke-miterlimit="10" stroke-dasharray="3"/></g><g><path fill="none" stroke="#000000" paint-order="fill stroke markers" d=" M 469.790482243984 151.83732514237585 L 474 162 L 478.209517756016 151.83732514237585" stroke-miterlimit="10" stroke-dasharray=""/></g></g></svg>